%TF.GenerationSoftware,KiCad,Pcbnew,7.0.2*%
%TF.CreationDate,2023-06-22T21:43:46+09:00*%
%TF.ProjectId,mana-board-kicad,6d616e61-2d62-46f6-9172-642d6b696361,rev?*%
%TF.SameCoordinates,Original*%
%TF.FileFunction,Paste,Bot*%
%TF.FilePolarity,Positive*%
%FSLAX46Y46*%
G04 Gerber Fmt 4.6, Leading zero omitted, Abs format (unit mm)*
G04 Created by KiCad (PCBNEW 7.0.2) date 2023-06-22 21:43:46*
%MOMM*%
%LPD*%
G01*
G04 APERTURE LIST*
G04 Aperture macros list*
%AMRoundRect*
0 Rectangle with rounded corners*
0 $1 Rounding radius*
0 $2 $3 $4 $5 $6 $7 $8 $9 X,Y pos of 4 corners*
0 Add a 4 corners polygon primitive as box body*
4,1,4,$2,$3,$4,$5,$6,$7,$8,$9,$2,$3,0*
0 Add four circle primitives for the rounded corners*
1,1,$1+$1,$2,$3*
1,1,$1+$1,$4,$5*
1,1,$1+$1,$6,$7*
1,1,$1+$1,$8,$9*
0 Add four rect primitives between the rounded corners*
20,1,$1+$1,$2,$3,$4,$5,0*
20,1,$1+$1,$4,$5,$6,$7,0*
20,1,$1+$1,$6,$7,$8,$9,0*
20,1,$1+$1,$8,$9,$2,$3,0*%
%AMRotRect*
0 Rectangle, with rotation*
0 The origin of the aperture is its center*
0 $1 length*
0 $2 width*
0 $3 Rotation angle, in degrees counterclockwise*
0 Add horizontal line*
21,1,$1,$2,0,0,$3*%
G04 Aperture macros list end*
%ADD10RotRect,1.700000X0.820000X210.000000*%
%ADD11RoundRect,0.205000X0.456086X0.500035X-0.661086X-0.144965X-0.456086X-0.500035X0.661086X0.144965X0*%
%ADD12RoundRect,0.250000X0.682235X0.356667X-0.032235X0.769167X-0.682235X-0.356667X0.032235X-0.769167X0*%
%ADD13RoundRect,0.250000X0.032235X0.769167X-0.682235X0.356667X-0.032235X-0.769167X0.682235X-0.356667X0*%
%ADD14R,1.000000X0.750000*%
%ADD15RotRect,1.700000X0.820000X150.000000*%
%ADD16RoundRect,0.205000X0.661086X-0.144965X-0.456086X0.500035X-0.661086X0.144965X0.456086X-0.500035X0*%
G04 APERTURE END LIST*
D10*
%TO.C,D13*%
X183784460Y-144320670D03*
X183034460Y-143021632D03*
D11*
X178617730Y-145571632D03*
D10*
X179367730Y-146870670D03*
%TD*%
%TO.C,D7*%
X204333365Y-60518113D03*
X203583365Y-59219075D03*
D11*
X199166635Y-61769075D03*
D10*
X199916635Y-63068113D03*
%TD*%
D12*
%TO.C,C4*%
X107402389Y-73590325D03*
X104696059Y-72027825D03*
%TD*%
D10*
%TO.C,D5*%
X162596459Y-89019669D03*
X161846459Y-87720631D03*
D11*
X157429729Y-90270631D03*
D10*
X158179729Y-91569669D03*
%TD*%
D13*
%TO.C,C6*%
X163366259Y-92328002D03*
X160659929Y-93890502D03*
%TD*%
%TO.C,C13*%
X243353165Y-82452358D03*
X240646835Y-84014858D03*
%TD*%
%TO.C,C14*%
X184554260Y-147629003D03*
X181847930Y-149191503D03*
%TD*%
D10*
%TO.C,D10*%
X189747094Y-86045948D03*
X188997094Y-84746910D03*
D11*
X184580364Y-87296910D03*
D10*
X185330364Y-88595948D03*
%TD*%
D13*
%TO.C,C10*%
X173366259Y-109648510D03*
X170659929Y-111211010D03*
%TD*%
D10*
%TO.C,D9*%
X172596459Y-106340177D03*
X171846459Y-105041139D03*
D11*
X167429729Y-107591139D03*
D10*
X168179729Y-108890177D03*
%TD*%
D13*
%TO.C,C7*%
X180516894Y-72033772D03*
X177810564Y-73596272D03*
%TD*%
D10*
%TO.C,D8*%
X232583366Y-61823517D03*
X231833366Y-60524479D03*
D11*
X227416636Y-63074479D03*
D10*
X228166636Y-64373517D03*
%TD*%
%TO.C,D6*%
X179747094Y-68725439D03*
X178997094Y-67426401D03*
D11*
X174580364Y-69976401D03*
D10*
X175330364Y-71275439D03*
%TD*%
D14*
%TO.C,BOOTSEL1*%
X243750000Y-94125000D03*
X237750000Y-94125000D03*
X243750000Y-97875000D03*
X237750000Y-97875000D03*
%TD*%
D13*
%TO.C,C11*%
X190516894Y-89354281D03*
X187810564Y-90916781D03*
%TD*%
D10*
%TO.C,D11*%
X214333365Y-77838621D03*
X213583365Y-76539583D03*
D11*
X209166635Y-79089583D03*
D10*
X209916635Y-80388621D03*
%TD*%
D15*
%TO.C,D4*%
X126916460Y-91569670D03*
X127666460Y-90270632D03*
D16*
X123249730Y-87720632D03*
D15*
X122499730Y-89019670D03*
%TD*%
D13*
%TO.C,C8*%
X205103165Y-63826446D03*
X202396835Y-65388946D03*
%TD*%
%TO.C,C9*%
X233353166Y-65131850D03*
X230646836Y-66694350D03*
%TD*%
D12*
%TO.C,C5*%
X124436260Y-93890503D03*
X121729930Y-92328003D03*
%TD*%
D10*
%TO.C,D12*%
X242583365Y-79144025D03*
X241833365Y-77844987D03*
D11*
X237416635Y-80394987D03*
D10*
X238166635Y-81694025D03*
%TD*%
D12*
%TO.C,C3*%
X108415342Y-149191773D03*
X105709012Y-147629273D03*
%TD*%
D13*
%TO.C,C12*%
X215103165Y-81146954D03*
X212396835Y-82709454D03*
%TD*%
D15*
%TO.C,D3*%
X109882589Y-71269492D03*
X110632589Y-69970454D03*
D16*
X106215859Y-67420454D03*
D15*
X105465859Y-68719492D03*
%TD*%
D14*
%TO.C,RESET1*%
X243750000Y-108875000D03*
X237750000Y-108875000D03*
X243750000Y-112625000D03*
X237750000Y-112625000D03*
%TD*%
D15*
%TO.C,D1*%
X85302040Y-63044954D03*
X86052040Y-61745916D03*
D16*
X81635310Y-59195916D03*
D15*
X80885310Y-60494954D03*
%TD*%
D12*
%TO.C,C2*%
X82821840Y-65365787D03*
X80115510Y-63803287D03*
%TD*%
D15*
%TO.C,D2*%
X110895542Y-146870940D03*
X111645542Y-145571902D03*
D16*
X107228812Y-143021902D03*
D15*
X106478812Y-144320940D03*
%TD*%
M02*
