M48
INCH
T1C0.0256
T2C0.0591
T3C0.0709
T4C0.0827
T5C0.1988
%
G90
G05
T1
X6.6776Y-1.5494
X6.9051Y-1.5494
T2
X8.4478Y-4.0465
X8.6388Y-4.0465
T3
X8.436Y-3.9272
X8.6506Y-3.9272
T4
X2.5886Y-1.6929
X2.5886Y-5.8268
X5.7185Y-3.9272
X7.4311Y-4.3209
X9.6752Y-1.6929
X9.6752Y-5.8268
T5
X3.6088Y-2.4048
X4.3908Y-5.5385
X4.4612Y-2.8969
X5.1364Y-3.6959
X6.2913Y-3.6959
X6.685Y-4.3778
X6.9665Y-2.8969
X7.0369Y-5.5385
X7.3602Y-3.5788
X7.8189Y-2.4048
X8.2126Y-3.0867
X8.7303Y-2.0149
X9.124Y-2.6969
T0
M30
