%TF.GenerationSoftware,KiCad,Pcbnew,7.0.2*%
%TF.CreationDate,2023-06-18T21:29:01+09:00*%
%TF.ProjectId,mana-board-kicad,6d616e61-2d62-46f6-9172-642d6b696361,rev?*%
%TF.SameCoordinates,Original*%
%TF.FileFunction,Legend,Top*%
%TF.FilePolarity,Positive*%
%FSLAX46Y46*%
G04 Gerber Fmt 4.6, Leading zero omitted, Abs format (unit mm)*
G04 Created by KiCad (PCBNEW 7.0.2) date 2023-06-18 21:29:01*
%MOMM*%
%LPD*%
G01*
G04 APERTURE LIST*
%ADD10C,0.150000*%
%ADD11C,0.120000*%
G04 APERTURE END LIST*
D10*
X137240952Y-50080000D02*
X137383809Y-50127619D01*
X137383809Y-50127619D02*
X137621904Y-50127619D01*
X137621904Y-50127619D02*
X137717142Y-50080000D01*
X137717142Y-50080000D02*
X137764761Y-50032380D01*
X137764761Y-50032380D02*
X137812380Y-49937142D01*
X137812380Y-49937142D02*
X137812380Y-49841904D01*
X137812380Y-49841904D02*
X137764761Y-49746666D01*
X137764761Y-49746666D02*
X137717142Y-49699047D01*
X137717142Y-49699047D02*
X137621904Y-49651428D01*
X137621904Y-49651428D02*
X137431428Y-49603809D01*
X137431428Y-49603809D02*
X137336190Y-49556190D01*
X137336190Y-49556190D02*
X137288571Y-49508571D01*
X137288571Y-49508571D02*
X137240952Y-49413333D01*
X137240952Y-49413333D02*
X137240952Y-49318095D01*
X137240952Y-49318095D02*
X137288571Y-49222857D01*
X137288571Y-49222857D02*
X137336190Y-49175238D01*
X137336190Y-49175238D02*
X137431428Y-49127619D01*
X137431428Y-49127619D02*
X137669523Y-49127619D01*
X137669523Y-49127619D02*
X137812380Y-49175238D01*
X138621904Y-50080000D02*
X138526666Y-50127619D01*
X138526666Y-50127619D02*
X138336190Y-50127619D01*
X138336190Y-50127619D02*
X138240952Y-50080000D01*
X138240952Y-50080000D02*
X138193333Y-49984761D01*
X138193333Y-49984761D02*
X138193333Y-49603809D01*
X138193333Y-49603809D02*
X138240952Y-49508571D01*
X138240952Y-49508571D02*
X138336190Y-49460952D01*
X138336190Y-49460952D02*
X138526666Y-49460952D01*
X138526666Y-49460952D02*
X138621904Y-49508571D01*
X138621904Y-49508571D02*
X138669523Y-49603809D01*
X138669523Y-49603809D02*
X138669523Y-49699047D01*
X138669523Y-49699047D02*
X138193333Y-49794285D01*
X139240952Y-50127619D02*
X139145714Y-50080000D01*
X139145714Y-50080000D02*
X139098095Y-49984761D01*
X139098095Y-49984761D02*
X139098095Y-49127619D01*
X140002857Y-50080000D02*
X139907619Y-50127619D01*
X139907619Y-50127619D02*
X139717143Y-50127619D01*
X139717143Y-50127619D02*
X139621905Y-50080000D01*
X139621905Y-50080000D02*
X139574286Y-49984761D01*
X139574286Y-49984761D02*
X139574286Y-49603809D01*
X139574286Y-49603809D02*
X139621905Y-49508571D01*
X139621905Y-49508571D02*
X139717143Y-49460952D01*
X139717143Y-49460952D02*
X139907619Y-49460952D01*
X139907619Y-49460952D02*
X140002857Y-49508571D01*
X140002857Y-49508571D02*
X140050476Y-49603809D01*
X140050476Y-49603809D02*
X140050476Y-49699047D01*
X140050476Y-49699047D02*
X139574286Y-49794285D01*
X140907619Y-50080000D02*
X140812381Y-50127619D01*
X140812381Y-50127619D02*
X140621905Y-50127619D01*
X140621905Y-50127619D02*
X140526667Y-50080000D01*
X140526667Y-50080000D02*
X140479048Y-50032380D01*
X140479048Y-50032380D02*
X140431429Y-49937142D01*
X140431429Y-49937142D02*
X140431429Y-49651428D01*
X140431429Y-49651428D02*
X140479048Y-49556190D01*
X140479048Y-49556190D02*
X140526667Y-49508571D01*
X140526667Y-49508571D02*
X140621905Y-49460952D01*
X140621905Y-49460952D02*
X140812381Y-49460952D01*
X140812381Y-49460952D02*
X140907619Y-49508571D01*
X141193334Y-49460952D02*
X141574286Y-49460952D01*
X141336191Y-49127619D02*
X141336191Y-49984761D01*
X141336191Y-49984761D02*
X141383810Y-50080000D01*
X141383810Y-50080000D02*
X141479048Y-50127619D01*
X141479048Y-50127619D02*
X141574286Y-50127619D01*
X122299167Y-50127619D02*
X122299167Y-49127619D01*
X122299167Y-49603809D02*
X122870595Y-49603809D01*
X122870595Y-50127619D02*
X122870595Y-49127619D01*
X123489643Y-50127619D02*
X123394405Y-50080000D01*
X123394405Y-50080000D02*
X123346786Y-50032380D01*
X123346786Y-50032380D02*
X123299167Y-49937142D01*
X123299167Y-49937142D02*
X123299167Y-49651428D01*
X123299167Y-49651428D02*
X123346786Y-49556190D01*
X123346786Y-49556190D02*
X123394405Y-49508571D01*
X123394405Y-49508571D02*
X123489643Y-49460952D01*
X123489643Y-49460952D02*
X123632500Y-49460952D01*
X123632500Y-49460952D02*
X123727738Y-49508571D01*
X123727738Y-49508571D02*
X123775357Y-49556190D01*
X123775357Y-49556190D02*
X123822976Y-49651428D01*
X123822976Y-49651428D02*
X123822976Y-49937142D01*
X123822976Y-49937142D02*
X123775357Y-50032380D01*
X123775357Y-50032380D02*
X123727738Y-50080000D01*
X123727738Y-50080000D02*
X123632500Y-50127619D01*
X123632500Y-50127619D02*
X123489643Y-50127619D01*
X124251548Y-50127619D02*
X124251548Y-49460952D01*
X124251548Y-49556190D02*
X124299167Y-49508571D01*
X124299167Y-49508571D02*
X124394405Y-49460952D01*
X124394405Y-49460952D02*
X124537262Y-49460952D01*
X124537262Y-49460952D02*
X124632500Y-49508571D01*
X124632500Y-49508571D02*
X124680119Y-49603809D01*
X124680119Y-49603809D02*
X124680119Y-50127619D01*
X124680119Y-49603809D02*
X124727738Y-49508571D01*
X124727738Y-49508571D02*
X124822976Y-49460952D01*
X124822976Y-49460952D02*
X124965833Y-49460952D01*
X124965833Y-49460952D02*
X125061072Y-49508571D01*
X125061072Y-49508571D02*
X125108691Y-49603809D01*
X125108691Y-49603809D02*
X125108691Y-50127619D01*
X125965833Y-50080000D02*
X125870595Y-50127619D01*
X125870595Y-50127619D02*
X125680119Y-50127619D01*
X125680119Y-50127619D02*
X125584881Y-50080000D01*
X125584881Y-50080000D02*
X125537262Y-49984761D01*
X125537262Y-49984761D02*
X125537262Y-49603809D01*
X125537262Y-49603809D02*
X125584881Y-49508571D01*
X125584881Y-49508571D02*
X125680119Y-49460952D01*
X125680119Y-49460952D02*
X125870595Y-49460952D01*
X125870595Y-49460952D02*
X125965833Y-49508571D01*
X125965833Y-49508571D02*
X126013452Y-49603809D01*
X126013452Y-49603809D02*
X126013452Y-49699047D01*
X126013452Y-49699047D02*
X125537262Y-49794285D01*
X107008570Y-50032380D02*
X106960951Y-50080000D01*
X106960951Y-50080000D02*
X106818094Y-50127619D01*
X106818094Y-50127619D02*
X106722856Y-50127619D01*
X106722856Y-50127619D02*
X106579999Y-50080000D01*
X106579999Y-50080000D02*
X106484761Y-49984761D01*
X106484761Y-49984761D02*
X106437142Y-49889523D01*
X106437142Y-49889523D02*
X106389523Y-49699047D01*
X106389523Y-49699047D02*
X106389523Y-49556190D01*
X106389523Y-49556190D02*
X106437142Y-49365714D01*
X106437142Y-49365714D02*
X106484761Y-49270476D01*
X106484761Y-49270476D02*
X106579999Y-49175238D01*
X106579999Y-49175238D02*
X106722856Y-49127619D01*
X106722856Y-49127619D02*
X106818094Y-49127619D01*
X106818094Y-49127619D02*
X106960951Y-49175238D01*
X106960951Y-49175238D02*
X107008570Y-49222857D01*
X107865713Y-50127619D02*
X107865713Y-49603809D01*
X107865713Y-49603809D02*
X107818094Y-49508571D01*
X107818094Y-49508571D02*
X107722856Y-49460952D01*
X107722856Y-49460952D02*
X107532380Y-49460952D01*
X107532380Y-49460952D02*
X107437142Y-49508571D01*
X107865713Y-50080000D02*
X107770475Y-50127619D01*
X107770475Y-50127619D02*
X107532380Y-50127619D01*
X107532380Y-50127619D02*
X107437142Y-50080000D01*
X107437142Y-50080000D02*
X107389523Y-49984761D01*
X107389523Y-49984761D02*
X107389523Y-49889523D01*
X107389523Y-49889523D02*
X107437142Y-49794285D01*
X107437142Y-49794285D02*
X107532380Y-49746666D01*
X107532380Y-49746666D02*
X107770475Y-49746666D01*
X107770475Y-49746666D02*
X107865713Y-49699047D01*
X108341904Y-49460952D02*
X108341904Y-50460952D01*
X108341904Y-49508571D02*
X108437142Y-49460952D01*
X108437142Y-49460952D02*
X108627618Y-49460952D01*
X108627618Y-49460952D02*
X108722856Y-49508571D01*
X108722856Y-49508571D02*
X108770475Y-49556190D01*
X108770475Y-49556190D02*
X108818094Y-49651428D01*
X108818094Y-49651428D02*
X108818094Y-49937142D01*
X108818094Y-49937142D02*
X108770475Y-50032380D01*
X108770475Y-50032380D02*
X108722856Y-50080000D01*
X108722856Y-50080000D02*
X108627618Y-50127619D01*
X108627618Y-50127619D02*
X108437142Y-50127619D01*
X108437142Y-50127619D02*
X108341904Y-50080000D01*
X109103809Y-49460952D02*
X109484761Y-49460952D01*
X109246666Y-49127619D02*
X109246666Y-49984761D01*
X109246666Y-49984761D02*
X109294285Y-50080000D01*
X109294285Y-50080000D02*
X109389523Y-50127619D01*
X109389523Y-50127619D02*
X109484761Y-50127619D01*
X110246666Y-49460952D02*
X110246666Y-50127619D01*
X109818095Y-49460952D02*
X109818095Y-49984761D01*
X109818095Y-49984761D02*
X109865714Y-50080000D01*
X109865714Y-50080000D02*
X109960952Y-50127619D01*
X109960952Y-50127619D02*
X110103809Y-50127619D01*
X110103809Y-50127619D02*
X110199047Y-50080000D01*
X110199047Y-50080000D02*
X110246666Y-50032380D01*
X110722857Y-50127619D02*
X110722857Y-49460952D01*
X110722857Y-49651428D02*
X110770476Y-49556190D01*
X110770476Y-49556190D02*
X110818095Y-49508571D01*
X110818095Y-49508571D02*
X110913333Y-49460952D01*
X110913333Y-49460952D02*
X111008571Y-49460952D01*
X111722857Y-50080000D02*
X111627619Y-50127619D01*
X111627619Y-50127619D02*
X111437143Y-50127619D01*
X111437143Y-50127619D02*
X111341905Y-50080000D01*
X111341905Y-50080000D02*
X111294286Y-49984761D01*
X111294286Y-49984761D02*
X111294286Y-49603809D01*
X111294286Y-49603809D02*
X111341905Y-49508571D01*
X111341905Y-49508571D02*
X111437143Y-49460952D01*
X111437143Y-49460952D02*
X111627619Y-49460952D01*
X111627619Y-49460952D02*
X111722857Y-49508571D01*
X111722857Y-49508571D02*
X111770476Y-49603809D01*
X111770476Y-49603809D02*
X111770476Y-49699047D01*
X111770476Y-49699047D02*
X111294286Y-49794285D01*
X152880952Y-50080000D02*
X153023809Y-50127619D01*
X153023809Y-50127619D02*
X153261904Y-50127619D01*
X153261904Y-50127619D02*
X153357142Y-50080000D01*
X153357142Y-50080000D02*
X153404761Y-50032380D01*
X153404761Y-50032380D02*
X153452380Y-49937142D01*
X153452380Y-49937142D02*
X153452380Y-49841904D01*
X153452380Y-49841904D02*
X153404761Y-49746666D01*
X153404761Y-49746666D02*
X153357142Y-49699047D01*
X153357142Y-49699047D02*
X153261904Y-49651428D01*
X153261904Y-49651428D02*
X153071428Y-49603809D01*
X153071428Y-49603809D02*
X152976190Y-49556190D01*
X152976190Y-49556190D02*
X152928571Y-49508571D01*
X152928571Y-49508571D02*
X152880952Y-49413333D01*
X152880952Y-49413333D02*
X152880952Y-49318095D01*
X152880952Y-49318095D02*
X152928571Y-49222857D01*
X152928571Y-49222857D02*
X152976190Y-49175238D01*
X152976190Y-49175238D02*
X153071428Y-49127619D01*
X153071428Y-49127619D02*
X153309523Y-49127619D01*
X153309523Y-49127619D02*
X153452380Y-49175238D01*
X153738095Y-49460952D02*
X154119047Y-49460952D01*
X153880952Y-49127619D02*
X153880952Y-49984761D01*
X153880952Y-49984761D02*
X153928571Y-50080000D01*
X153928571Y-50080000D02*
X154023809Y-50127619D01*
X154023809Y-50127619D02*
X154119047Y-50127619D01*
X154880952Y-50127619D02*
X154880952Y-49603809D01*
X154880952Y-49603809D02*
X154833333Y-49508571D01*
X154833333Y-49508571D02*
X154738095Y-49460952D01*
X154738095Y-49460952D02*
X154547619Y-49460952D01*
X154547619Y-49460952D02*
X154452381Y-49508571D01*
X154880952Y-50080000D02*
X154785714Y-50127619D01*
X154785714Y-50127619D02*
X154547619Y-50127619D01*
X154547619Y-50127619D02*
X154452381Y-50080000D01*
X154452381Y-50080000D02*
X154404762Y-49984761D01*
X154404762Y-49984761D02*
X154404762Y-49889523D01*
X154404762Y-49889523D02*
X154452381Y-49794285D01*
X154452381Y-49794285D02*
X154547619Y-49746666D01*
X154547619Y-49746666D02*
X154785714Y-49746666D01*
X154785714Y-49746666D02*
X154880952Y-49699047D01*
X155357143Y-50127619D02*
X155357143Y-49460952D01*
X155357143Y-49651428D02*
X155404762Y-49556190D01*
X155404762Y-49556190D02*
X155452381Y-49508571D01*
X155452381Y-49508571D02*
X155547619Y-49460952D01*
X155547619Y-49460952D02*
X155642857Y-49460952D01*
X155833334Y-49460952D02*
X156214286Y-49460952D01*
X155976191Y-49127619D02*
X155976191Y-49984761D01*
X155976191Y-49984761D02*
X156023810Y-50080000D01*
X156023810Y-50080000D02*
X156119048Y-50127619D01*
X156119048Y-50127619D02*
X156214286Y-50127619D01*
%TO.C,REF\u002A\u002A*%
X143916666Y-97012619D02*
X143583333Y-96536428D01*
X143345238Y-97012619D02*
X143345238Y-96012619D01*
X143345238Y-96012619D02*
X143726190Y-96012619D01*
X143726190Y-96012619D02*
X143821428Y-96060238D01*
X143821428Y-96060238D02*
X143869047Y-96107857D01*
X143869047Y-96107857D02*
X143916666Y-96203095D01*
X143916666Y-96203095D02*
X143916666Y-96345952D01*
X143916666Y-96345952D02*
X143869047Y-96441190D01*
X143869047Y-96441190D02*
X143821428Y-96488809D01*
X143821428Y-96488809D02*
X143726190Y-96536428D01*
X143726190Y-96536428D02*
X143345238Y-96536428D01*
X144345238Y-96488809D02*
X144678571Y-96488809D01*
X144821428Y-97012619D02*
X144345238Y-97012619D01*
X144345238Y-97012619D02*
X144345238Y-96012619D01*
X144345238Y-96012619D02*
X144821428Y-96012619D01*
X145583333Y-96488809D02*
X145250000Y-96488809D01*
X145250000Y-97012619D02*
X145250000Y-96012619D01*
X145250000Y-96012619D02*
X145726190Y-96012619D01*
X146250000Y-96012619D02*
X146250000Y-96250714D01*
X146011905Y-96155476D02*
X146250000Y-96250714D01*
X146250000Y-96250714D02*
X146488095Y-96155476D01*
X146107143Y-96441190D02*
X146250000Y-96250714D01*
X146250000Y-96250714D02*
X146392857Y-96441190D01*
X147011905Y-96012619D02*
X147011905Y-96250714D01*
X146773810Y-96155476D02*
X147011905Y-96250714D01*
X147011905Y-96250714D02*
X147250000Y-96155476D01*
X146869048Y-96441190D02*
X147011905Y-96250714D01*
X147011905Y-96250714D02*
X147154762Y-96441190D01*
X187416666Y-107012619D02*
X187083333Y-106536428D01*
X186845238Y-107012619D02*
X186845238Y-106012619D01*
X186845238Y-106012619D02*
X187226190Y-106012619D01*
X187226190Y-106012619D02*
X187321428Y-106060238D01*
X187321428Y-106060238D02*
X187369047Y-106107857D01*
X187369047Y-106107857D02*
X187416666Y-106203095D01*
X187416666Y-106203095D02*
X187416666Y-106345952D01*
X187416666Y-106345952D02*
X187369047Y-106441190D01*
X187369047Y-106441190D02*
X187321428Y-106488809D01*
X187321428Y-106488809D02*
X187226190Y-106536428D01*
X187226190Y-106536428D02*
X186845238Y-106536428D01*
X187845238Y-106488809D02*
X188178571Y-106488809D01*
X188321428Y-107012619D02*
X187845238Y-107012619D01*
X187845238Y-107012619D02*
X187845238Y-106012619D01*
X187845238Y-106012619D02*
X188321428Y-106012619D01*
X189083333Y-106488809D02*
X188750000Y-106488809D01*
X188750000Y-107012619D02*
X188750000Y-106012619D01*
X188750000Y-106012619D02*
X189226190Y-106012619D01*
X189750000Y-106012619D02*
X189750000Y-106250714D01*
X189511905Y-106155476D02*
X189750000Y-106250714D01*
X189750000Y-106250714D02*
X189988095Y-106155476D01*
X189607143Y-106441190D02*
X189750000Y-106250714D01*
X189750000Y-106250714D02*
X189892857Y-106441190D01*
X190511905Y-106012619D02*
X190511905Y-106250714D01*
X190273810Y-106155476D02*
X190511905Y-106250714D01*
X190511905Y-106250714D02*
X190750000Y-106155476D01*
X190369048Y-106441190D02*
X190511905Y-106250714D01*
X190511905Y-106250714D02*
X190654762Y-106441190D01*
X64416666Y-145262619D02*
X64083333Y-144786428D01*
X63845238Y-145262619D02*
X63845238Y-144262619D01*
X63845238Y-144262619D02*
X64226190Y-144262619D01*
X64226190Y-144262619D02*
X64321428Y-144310238D01*
X64321428Y-144310238D02*
X64369047Y-144357857D01*
X64369047Y-144357857D02*
X64416666Y-144453095D01*
X64416666Y-144453095D02*
X64416666Y-144595952D01*
X64416666Y-144595952D02*
X64369047Y-144691190D01*
X64369047Y-144691190D02*
X64321428Y-144738809D01*
X64321428Y-144738809D02*
X64226190Y-144786428D01*
X64226190Y-144786428D02*
X63845238Y-144786428D01*
X64845238Y-144738809D02*
X65178571Y-144738809D01*
X65321428Y-145262619D02*
X64845238Y-145262619D01*
X64845238Y-145262619D02*
X64845238Y-144262619D01*
X64845238Y-144262619D02*
X65321428Y-144262619D01*
X66083333Y-144738809D02*
X65750000Y-144738809D01*
X65750000Y-145262619D02*
X65750000Y-144262619D01*
X65750000Y-144262619D02*
X66226190Y-144262619D01*
X66750000Y-144262619D02*
X66750000Y-144500714D01*
X66511905Y-144405476D02*
X66750000Y-144500714D01*
X66750000Y-144500714D02*
X66988095Y-144405476D01*
X66607143Y-144691190D02*
X66750000Y-144500714D01*
X66750000Y-144500714D02*
X66892857Y-144691190D01*
X67511905Y-144262619D02*
X67511905Y-144500714D01*
X67273810Y-144405476D02*
X67511905Y-144500714D01*
X67511905Y-144500714D02*
X67750000Y-144405476D01*
X67369048Y-144691190D02*
X67511905Y-144500714D01*
X67511905Y-144500714D02*
X67654762Y-144691190D01*
X244416666Y-145262619D02*
X244083333Y-144786428D01*
X243845238Y-145262619D02*
X243845238Y-144262619D01*
X243845238Y-144262619D02*
X244226190Y-144262619D01*
X244226190Y-144262619D02*
X244321428Y-144310238D01*
X244321428Y-144310238D02*
X244369047Y-144357857D01*
X244369047Y-144357857D02*
X244416666Y-144453095D01*
X244416666Y-144453095D02*
X244416666Y-144595952D01*
X244416666Y-144595952D02*
X244369047Y-144691190D01*
X244369047Y-144691190D02*
X244321428Y-144738809D01*
X244321428Y-144738809D02*
X244226190Y-144786428D01*
X244226190Y-144786428D02*
X243845238Y-144786428D01*
X244845238Y-144738809D02*
X245178571Y-144738809D01*
X245321428Y-145262619D02*
X244845238Y-145262619D01*
X244845238Y-145262619D02*
X244845238Y-144262619D01*
X244845238Y-144262619D02*
X245321428Y-144262619D01*
X246083333Y-144738809D02*
X245750000Y-144738809D01*
X245750000Y-145262619D02*
X245750000Y-144262619D01*
X245750000Y-144262619D02*
X246226190Y-144262619D01*
X246750000Y-144262619D02*
X246750000Y-144500714D01*
X246511905Y-144405476D02*
X246750000Y-144500714D01*
X246750000Y-144500714D02*
X246988095Y-144405476D01*
X246607143Y-144691190D02*
X246750000Y-144500714D01*
X246750000Y-144500714D02*
X246892857Y-144691190D01*
X247511905Y-144262619D02*
X247511905Y-144500714D01*
X247273810Y-144405476D02*
X247511905Y-144500714D01*
X247511905Y-144500714D02*
X247750000Y-144405476D01*
X247369048Y-144691190D02*
X247511905Y-144500714D01*
X247511905Y-144500714D02*
X247654762Y-144691190D01*
X244416666Y-40262619D02*
X244083333Y-39786428D01*
X243845238Y-40262619D02*
X243845238Y-39262619D01*
X243845238Y-39262619D02*
X244226190Y-39262619D01*
X244226190Y-39262619D02*
X244321428Y-39310238D01*
X244321428Y-39310238D02*
X244369047Y-39357857D01*
X244369047Y-39357857D02*
X244416666Y-39453095D01*
X244416666Y-39453095D02*
X244416666Y-39595952D01*
X244416666Y-39595952D02*
X244369047Y-39691190D01*
X244369047Y-39691190D02*
X244321428Y-39738809D01*
X244321428Y-39738809D02*
X244226190Y-39786428D01*
X244226190Y-39786428D02*
X243845238Y-39786428D01*
X244845238Y-39738809D02*
X245178571Y-39738809D01*
X245321428Y-40262619D02*
X244845238Y-40262619D01*
X244845238Y-40262619D02*
X244845238Y-39262619D01*
X244845238Y-39262619D02*
X245321428Y-39262619D01*
X246083333Y-39738809D02*
X245750000Y-39738809D01*
X245750000Y-40262619D02*
X245750000Y-39262619D01*
X245750000Y-39262619D02*
X246226190Y-39262619D01*
X246750000Y-39262619D02*
X246750000Y-39500714D01*
X246511905Y-39405476D02*
X246750000Y-39500714D01*
X246750000Y-39500714D02*
X246988095Y-39405476D01*
X246607143Y-39691190D02*
X246750000Y-39500714D01*
X246750000Y-39500714D02*
X246892857Y-39691190D01*
X247511905Y-39262619D02*
X247511905Y-39500714D01*
X247273810Y-39405476D02*
X247511905Y-39500714D01*
X247511905Y-39500714D02*
X247750000Y-39405476D01*
X247369048Y-39691190D02*
X247511905Y-39500714D01*
X247511905Y-39500714D02*
X247654762Y-39691190D01*
X64416666Y-40262619D02*
X64083333Y-39786428D01*
X63845238Y-40262619D02*
X63845238Y-39262619D01*
X63845238Y-39262619D02*
X64226190Y-39262619D01*
X64226190Y-39262619D02*
X64321428Y-39310238D01*
X64321428Y-39310238D02*
X64369047Y-39357857D01*
X64369047Y-39357857D02*
X64416666Y-39453095D01*
X64416666Y-39453095D02*
X64416666Y-39595952D01*
X64416666Y-39595952D02*
X64369047Y-39691190D01*
X64369047Y-39691190D02*
X64321428Y-39738809D01*
X64321428Y-39738809D02*
X64226190Y-39786428D01*
X64226190Y-39786428D02*
X63845238Y-39786428D01*
X64845238Y-39738809D02*
X65178571Y-39738809D01*
X65321428Y-40262619D02*
X64845238Y-40262619D01*
X64845238Y-40262619D02*
X64845238Y-39262619D01*
X64845238Y-39262619D02*
X65321428Y-39262619D01*
X66083333Y-39738809D02*
X65750000Y-39738809D01*
X65750000Y-40262619D02*
X65750000Y-39262619D01*
X65750000Y-39262619D02*
X66226190Y-39262619D01*
X66750000Y-39262619D02*
X66750000Y-39500714D01*
X66511905Y-39405476D02*
X66750000Y-39500714D01*
X66750000Y-39500714D02*
X66988095Y-39405476D01*
X66607143Y-39691190D02*
X66750000Y-39500714D01*
X66750000Y-39500714D02*
X66892857Y-39691190D01*
X67511905Y-39262619D02*
X67511905Y-39500714D01*
X67273810Y-39405476D02*
X67511905Y-39500714D01*
X67511905Y-39500714D02*
X67750000Y-39405476D01*
X67369048Y-39691190D02*
X67511905Y-39500714D01*
X67511905Y-39500714D02*
X67654762Y-39691190D01*
%TO.C,B1*%
X164916965Y-103551312D02*
X165064492Y-103521122D01*
X165064492Y-103521122D02*
X165129541Y-103538552D01*
X165129541Y-103538552D02*
X165218399Y-103597221D01*
X165218399Y-103597221D02*
X165289828Y-103720939D01*
X165289828Y-103720939D02*
X165296208Y-103827227D01*
X165296208Y-103827227D02*
X165278778Y-103892276D01*
X165278778Y-103892276D02*
X165220109Y-103981135D01*
X165220109Y-103981135D02*
X164890194Y-104171611D01*
X164890194Y-104171611D02*
X164390194Y-103305585D01*
X164390194Y-103305585D02*
X164678869Y-103138919D01*
X164678869Y-103138919D02*
X164785157Y-103132539D01*
X164785157Y-103132539D02*
X164850206Y-103149969D01*
X164850206Y-103149969D02*
X164939065Y-103208638D01*
X164939065Y-103208638D02*
X164986684Y-103291116D01*
X164986684Y-103291116D02*
X164993063Y-103397405D01*
X164993063Y-103397405D02*
X164975634Y-103462453D01*
X164975634Y-103462453D02*
X164916965Y-103551312D01*
X164916965Y-103551312D02*
X164628289Y-103717978D01*
X166209852Y-103409706D02*
X165714980Y-103695420D01*
X165962416Y-103552563D02*
X165462416Y-102686538D01*
X165462416Y-102686538D02*
X165451366Y-102857875D01*
X165451366Y-102857875D02*
X165416507Y-102987972D01*
X165416507Y-102987972D02*
X165357837Y-103076831D01*
%TO.C,C1*%
X240083333Y-125717380D02*
X240035714Y-125765000D01*
X240035714Y-125765000D02*
X239892857Y-125812619D01*
X239892857Y-125812619D02*
X239797619Y-125812619D01*
X239797619Y-125812619D02*
X239654762Y-125765000D01*
X239654762Y-125765000D02*
X239559524Y-125669761D01*
X239559524Y-125669761D02*
X239511905Y-125574523D01*
X239511905Y-125574523D02*
X239464286Y-125384047D01*
X239464286Y-125384047D02*
X239464286Y-125241190D01*
X239464286Y-125241190D02*
X239511905Y-125050714D01*
X239511905Y-125050714D02*
X239559524Y-124955476D01*
X239559524Y-124955476D02*
X239654762Y-124860238D01*
X239654762Y-124860238D02*
X239797619Y-124812619D01*
X239797619Y-124812619D02*
X239892857Y-124812619D01*
X239892857Y-124812619D02*
X240035714Y-124860238D01*
X240035714Y-124860238D02*
X240083333Y-124907857D01*
X241035714Y-125812619D02*
X240464286Y-125812619D01*
X240750000Y-125812619D02*
X240750000Y-124812619D01*
X240750000Y-124812619D02*
X240654762Y-124955476D01*
X240654762Y-124955476D02*
X240559524Y-125050714D01*
X240559524Y-125050714D02*
X240464286Y-125098333D01*
%TO.C,B3*%
X154916966Y-86230805D02*
X155064493Y-86200615D01*
X155064493Y-86200615D02*
X155129542Y-86218045D01*
X155129542Y-86218045D02*
X155218400Y-86276714D01*
X155218400Y-86276714D02*
X155289829Y-86400432D01*
X155289829Y-86400432D02*
X155296209Y-86506720D01*
X155296209Y-86506720D02*
X155278779Y-86571769D01*
X155278779Y-86571769D02*
X155220110Y-86660628D01*
X155220110Y-86660628D02*
X154890195Y-86851104D01*
X154890195Y-86851104D02*
X154390195Y-85985078D01*
X154390195Y-85985078D02*
X154678870Y-85818412D01*
X154678870Y-85818412D02*
X154785158Y-85812032D01*
X154785158Y-85812032D02*
X154850207Y-85829462D01*
X154850207Y-85829462D02*
X154939066Y-85888131D01*
X154939066Y-85888131D02*
X154986685Y-85970609D01*
X154986685Y-85970609D02*
X154993064Y-86076898D01*
X154993064Y-86076898D02*
X154975635Y-86141946D01*
X154975635Y-86141946D02*
X154916966Y-86230805D01*
X154916966Y-86230805D02*
X154628290Y-86397471D01*
X155173742Y-85532697D02*
X155709853Y-85223174D01*
X155709853Y-85223174D02*
X155611654Y-85719755D01*
X155611654Y-85719755D02*
X155735372Y-85648326D01*
X155735372Y-85648326D02*
X155841660Y-85641946D01*
X155841660Y-85641946D02*
X155906709Y-85659376D01*
X155906709Y-85659376D02*
X155995567Y-85718045D01*
X155995567Y-85718045D02*
X156114615Y-85924242D01*
X156114615Y-85924242D02*
X156120995Y-86030530D01*
X156120995Y-86030530D02*
X156103565Y-86095579D01*
X156103565Y-86095579D02*
X156044896Y-86184437D01*
X156044896Y-86184437D02*
X155797460Y-86327294D01*
X155797460Y-86327294D02*
X155691172Y-86333674D01*
X155691172Y-86333674D02*
X155626123Y-86316244D01*
%TO.C,R4*%
X149712619Y-61666666D02*
X149236428Y-61999999D01*
X149712619Y-62238094D02*
X148712619Y-62238094D01*
X148712619Y-62238094D02*
X148712619Y-61857142D01*
X148712619Y-61857142D02*
X148760238Y-61761904D01*
X148760238Y-61761904D02*
X148807857Y-61714285D01*
X148807857Y-61714285D02*
X148903095Y-61666666D01*
X148903095Y-61666666D02*
X149045952Y-61666666D01*
X149045952Y-61666666D02*
X149141190Y-61714285D01*
X149141190Y-61714285D02*
X149188809Y-61761904D01*
X149188809Y-61761904D02*
X149236428Y-61857142D01*
X149236428Y-61857142D02*
X149236428Y-62238094D01*
X149045952Y-60809523D02*
X149712619Y-60809523D01*
X148665000Y-61047618D02*
X149379285Y-61285713D01*
X149379285Y-61285713D02*
X149379285Y-60666666D01*
%TO.C,TP6*%
X212514619Y-112731904D02*
X212514619Y-112160476D01*
X213514619Y-112446190D02*
X212514619Y-112446190D01*
X213514619Y-111827142D02*
X212514619Y-111827142D01*
X212514619Y-111827142D02*
X212514619Y-111446190D01*
X212514619Y-111446190D02*
X212562238Y-111350952D01*
X212562238Y-111350952D02*
X212609857Y-111303333D01*
X212609857Y-111303333D02*
X212705095Y-111255714D01*
X212705095Y-111255714D02*
X212847952Y-111255714D01*
X212847952Y-111255714D02*
X212943190Y-111303333D01*
X212943190Y-111303333D02*
X212990809Y-111350952D01*
X212990809Y-111350952D02*
X213038428Y-111446190D01*
X213038428Y-111446190D02*
X213038428Y-111827142D01*
X212514619Y-110398571D02*
X212514619Y-110589047D01*
X212514619Y-110589047D02*
X212562238Y-110684285D01*
X212562238Y-110684285D02*
X212609857Y-110731904D01*
X212609857Y-110731904D02*
X212752714Y-110827142D01*
X212752714Y-110827142D02*
X212943190Y-110874761D01*
X212943190Y-110874761D02*
X213324142Y-110874761D01*
X213324142Y-110874761D02*
X213419380Y-110827142D01*
X213419380Y-110827142D02*
X213467000Y-110779523D01*
X213467000Y-110779523D02*
X213514619Y-110684285D01*
X213514619Y-110684285D02*
X213514619Y-110493809D01*
X213514619Y-110493809D02*
X213467000Y-110398571D01*
X213467000Y-110398571D02*
X213419380Y-110350952D01*
X213419380Y-110350952D02*
X213324142Y-110303333D01*
X213324142Y-110303333D02*
X213086047Y-110303333D01*
X213086047Y-110303333D02*
X212990809Y-110350952D01*
X212990809Y-110350952D02*
X212943190Y-110398571D01*
X212943190Y-110398571D02*
X212895571Y-110493809D01*
X212895571Y-110493809D02*
X212895571Y-110684285D01*
X212895571Y-110684285D02*
X212943190Y-110779523D01*
X212943190Y-110779523D02*
X212990809Y-110827142D01*
X212990809Y-110827142D02*
X213086047Y-110874761D01*
%TO.C,S1*%
X138598095Y-40915000D02*
X138740952Y-40962619D01*
X138740952Y-40962619D02*
X138979047Y-40962619D01*
X138979047Y-40962619D02*
X139074285Y-40915000D01*
X139074285Y-40915000D02*
X139121904Y-40867380D01*
X139121904Y-40867380D02*
X139169523Y-40772142D01*
X139169523Y-40772142D02*
X139169523Y-40676904D01*
X139169523Y-40676904D02*
X139121904Y-40581666D01*
X139121904Y-40581666D02*
X139074285Y-40534047D01*
X139074285Y-40534047D02*
X138979047Y-40486428D01*
X138979047Y-40486428D02*
X138788571Y-40438809D01*
X138788571Y-40438809D02*
X138693333Y-40391190D01*
X138693333Y-40391190D02*
X138645714Y-40343571D01*
X138645714Y-40343571D02*
X138598095Y-40248333D01*
X138598095Y-40248333D02*
X138598095Y-40153095D01*
X138598095Y-40153095D02*
X138645714Y-40057857D01*
X138645714Y-40057857D02*
X138693333Y-40010238D01*
X138693333Y-40010238D02*
X138788571Y-39962619D01*
X138788571Y-39962619D02*
X139026666Y-39962619D01*
X139026666Y-39962619D02*
X139169523Y-40010238D01*
X140121904Y-40962619D02*
X139550476Y-40962619D01*
X139836190Y-40962619D02*
X139836190Y-39962619D01*
X139836190Y-39962619D02*
X139740952Y-40105476D01*
X139740952Y-40105476D02*
X139645714Y-40200714D01*
X139645714Y-40200714D02*
X139550476Y-40248333D01*
%TO.C,R6*%
X247782619Y-120916666D02*
X247306428Y-121249999D01*
X247782619Y-121488094D02*
X246782619Y-121488094D01*
X246782619Y-121488094D02*
X246782619Y-121107142D01*
X246782619Y-121107142D02*
X246830238Y-121011904D01*
X246830238Y-121011904D02*
X246877857Y-120964285D01*
X246877857Y-120964285D02*
X246973095Y-120916666D01*
X246973095Y-120916666D02*
X247115952Y-120916666D01*
X247115952Y-120916666D02*
X247211190Y-120964285D01*
X247211190Y-120964285D02*
X247258809Y-121011904D01*
X247258809Y-121011904D02*
X247306428Y-121107142D01*
X247306428Y-121107142D02*
X247306428Y-121488094D01*
X246782619Y-120059523D02*
X246782619Y-120249999D01*
X246782619Y-120249999D02*
X246830238Y-120345237D01*
X246830238Y-120345237D02*
X246877857Y-120392856D01*
X246877857Y-120392856D02*
X247020714Y-120488094D01*
X247020714Y-120488094D02*
X247211190Y-120535713D01*
X247211190Y-120535713D02*
X247592142Y-120535713D01*
X247592142Y-120535713D02*
X247687380Y-120488094D01*
X247687380Y-120488094D02*
X247735000Y-120440475D01*
X247735000Y-120440475D02*
X247782619Y-120345237D01*
X247782619Y-120345237D02*
X247782619Y-120154761D01*
X247782619Y-120154761D02*
X247735000Y-120059523D01*
X247735000Y-120059523D02*
X247687380Y-120011904D01*
X247687380Y-120011904D02*
X247592142Y-119964285D01*
X247592142Y-119964285D02*
X247354047Y-119964285D01*
X247354047Y-119964285D02*
X247258809Y-120011904D01*
X247258809Y-120011904D02*
X247211190Y-120059523D01*
X247211190Y-120059523D02*
X247163571Y-120154761D01*
X247163571Y-120154761D02*
X247163571Y-120345237D01*
X247163571Y-120345237D02*
X247211190Y-120440475D01*
X247211190Y-120440475D02*
X247258809Y-120488094D01*
X247258809Y-120488094D02*
X247354047Y-120535713D01*
%TO.C,S2*%
X153738095Y-40915000D02*
X153880952Y-40962619D01*
X153880952Y-40962619D02*
X154119047Y-40962619D01*
X154119047Y-40962619D02*
X154214285Y-40915000D01*
X154214285Y-40915000D02*
X154261904Y-40867380D01*
X154261904Y-40867380D02*
X154309523Y-40772142D01*
X154309523Y-40772142D02*
X154309523Y-40676904D01*
X154309523Y-40676904D02*
X154261904Y-40581666D01*
X154261904Y-40581666D02*
X154214285Y-40534047D01*
X154214285Y-40534047D02*
X154119047Y-40486428D01*
X154119047Y-40486428D02*
X153928571Y-40438809D01*
X153928571Y-40438809D02*
X153833333Y-40391190D01*
X153833333Y-40391190D02*
X153785714Y-40343571D01*
X153785714Y-40343571D02*
X153738095Y-40248333D01*
X153738095Y-40248333D02*
X153738095Y-40153095D01*
X153738095Y-40153095D02*
X153785714Y-40057857D01*
X153785714Y-40057857D02*
X153833333Y-40010238D01*
X153833333Y-40010238D02*
X153928571Y-39962619D01*
X153928571Y-39962619D02*
X154166666Y-39962619D01*
X154166666Y-39962619D02*
X154309523Y-40010238D01*
X154690476Y-40057857D02*
X154738095Y-40010238D01*
X154738095Y-40010238D02*
X154833333Y-39962619D01*
X154833333Y-39962619D02*
X155071428Y-39962619D01*
X155071428Y-39962619D02*
X155166666Y-40010238D01*
X155166666Y-40010238D02*
X155214285Y-40057857D01*
X155214285Y-40057857D02*
X155261904Y-40153095D01*
X155261904Y-40153095D02*
X155261904Y-40248333D01*
X155261904Y-40248333D02*
X155214285Y-40391190D01*
X155214285Y-40391190D02*
X154642857Y-40962619D01*
X154642857Y-40962619D02*
X155261904Y-40962619D01*
%TO.C,B4*%
X172067600Y-65936575D02*
X172215127Y-65906385D01*
X172215127Y-65906385D02*
X172280176Y-65923815D01*
X172280176Y-65923815D02*
X172369034Y-65982484D01*
X172369034Y-65982484D02*
X172440463Y-66106202D01*
X172440463Y-66106202D02*
X172446843Y-66212490D01*
X172446843Y-66212490D02*
X172429413Y-66277539D01*
X172429413Y-66277539D02*
X172370744Y-66366398D01*
X172370744Y-66366398D02*
X172040829Y-66556874D01*
X172040829Y-66556874D02*
X171540829Y-65690848D01*
X171540829Y-65690848D02*
X171829504Y-65524182D01*
X171829504Y-65524182D02*
X171935792Y-65517802D01*
X171935792Y-65517802D02*
X172000841Y-65535232D01*
X172000841Y-65535232D02*
X172089700Y-65593901D01*
X172089700Y-65593901D02*
X172137319Y-65676379D01*
X172137319Y-65676379D02*
X172143698Y-65782668D01*
X172143698Y-65782668D02*
X172126269Y-65847716D01*
X172126269Y-65847716D02*
X172067600Y-65936575D01*
X172067600Y-65936575D02*
X171778924Y-66103241D01*
X172944675Y-65265238D02*
X173278008Y-65842588D01*
X172548002Y-65054371D02*
X172698949Y-65792008D01*
X172698949Y-65792008D02*
X173235060Y-65482484D01*
%TO.C,U1*%
X216238095Y-123212619D02*
X216238095Y-124022142D01*
X216238095Y-124022142D02*
X216285714Y-124117380D01*
X216285714Y-124117380D02*
X216333333Y-124165000D01*
X216333333Y-124165000D02*
X216428571Y-124212619D01*
X216428571Y-124212619D02*
X216619047Y-124212619D01*
X216619047Y-124212619D02*
X216714285Y-124165000D01*
X216714285Y-124165000D02*
X216761904Y-124117380D01*
X216761904Y-124117380D02*
X216809523Y-124022142D01*
X216809523Y-124022142D02*
X216809523Y-123212619D01*
X217809523Y-124212619D02*
X217238095Y-124212619D01*
X217523809Y-124212619D02*
X217523809Y-123212619D01*
X217523809Y-123212619D02*
X217428571Y-123355476D01*
X217428571Y-123355476D02*
X217333333Y-123450714D01*
X217333333Y-123450714D02*
X217238095Y-123498333D01*
X203418888Y-102277009D02*
X203338075Y-102303946D01*
X203338075Y-102303946D02*
X203257263Y-102384759D01*
X203257263Y-102384759D02*
X203203388Y-102492508D01*
X203203388Y-102492508D02*
X203203388Y-102600258D01*
X203203388Y-102600258D02*
X203230326Y-102681070D01*
X203230326Y-102681070D02*
X203311138Y-102815757D01*
X203311138Y-102815757D02*
X203391950Y-102896569D01*
X203391950Y-102896569D02*
X203526637Y-102977382D01*
X203526637Y-102977382D02*
X203607449Y-103004319D01*
X203607449Y-103004319D02*
X203715199Y-103004319D01*
X203715199Y-103004319D02*
X203822949Y-102950444D01*
X203822949Y-102950444D02*
X203876823Y-102896569D01*
X203876823Y-102896569D02*
X203930698Y-102788820D01*
X203930698Y-102788820D02*
X203930698Y-102734945D01*
X203930698Y-102734945D02*
X203742136Y-102546383D01*
X203742136Y-102546383D02*
X203634387Y-102654133D01*
X204227010Y-102546383D02*
X203661324Y-101980698D01*
X203661324Y-101980698D02*
X203876823Y-101765198D01*
X203876823Y-101765198D02*
X203957636Y-101738261D01*
X203957636Y-101738261D02*
X204011510Y-101738261D01*
X204011510Y-101738261D02*
X204092323Y-101765198D01*
X204092323Y-101765198D02*
X204173135Y-101846011D01*
X204173135Y-101846011D02*
X204200072Y-101926823D01*
X204200072Y-101926823D02*
X204200072Y-101980698D01*
X204200072Y-101980698D02*
X204173135Y-102061510D01*
X204173135Y-102061510D02*
X203957636Y-102277009D01*
X205089006Y-101684386D02*
X204765758Y-102007635D01*
X204927382Y-101846011D02*
X204361697Y-101280325D01*
X204361697Y-101280325D02*
X204388634Y-101415012D01*
X204388634Y-101415012D02*
X204388634Y-101522762D01*
X204388634Y-101522762D02*
X204361697Y-101603574D01*
X203491950Y-104853946D02*
X203411138Y-104880884D01*
X203411138Y-104880884D02*
X203330326Y-104961696D01*
X203330326Y-104961696D02*
X203276451Y-105069446D01*
X203276451Y-105069446D02*
X203276451Y-105177195D01*
X203276451Y-105177195D02*
X203303389Y-105258007D01*
X203303389Y-105258007D02*
X203384201Y-105392694D01*
X203384201Y-105392694D02*
X203465013Y-105473507D01*
X203465013Y-105473507D02*
X203599700Y-105554319D01*
X203599700Y-105554319D02*
X203680512Y-105581256D01*
X203680512Y-105581256D02*
X203788262Y-105581256D01*
X203788262Y-105581256D02*
X203896011Y-105527381D01*
X203896011Y-105527381D02*
X203949886Y-105473507D01*
X203949886Y-105473507D02*
X204003761Y-105365757D01*
X204003761Y-105365757D02*
X204003761Y-105311882D01*
X204003761Y-105311882D02*
X203815199Y-105123320D01*
X203815199Y-105123320D02*
X203707450Y-105231070D01*
X204300072Y-105123320D02*
X203734387Y-104557635D01*
X203734387Y-104557635D02*
X204623321Y-104800072D01*
X204623321Y-104800072D02*
X204057636Y-104234386D01*
X204892695Y-104530698D02*
X204327010Y-103965012D01*
X204327010Y-103965012D02*
X204461697Y-103830325D01*
X204461697Y-103830325D02*
X204569446Y-103776450D01*
X204569446Y-103776450D02*
X204677196Y-103776450D01*
X204677196Y-103776450D02*
X204758008Y-103803388D01*
X204758008Y-103803388D02*
X204892695Y-103884200D01*
X204892695Y-103884200D02*
X204973507Y-103965012D01*
X204973507Y-103965012D02*
X205054319Y-104099699D01*
X205054319Y-104099699D02*
X205081257Y-104180511D01*
X205081257Y-104180511D02*
X205081257Y-104288261D01*
X205081257Y-104288261D02*
X205027382Y-104396011D01*
X205027382Y-104396011D02*
X204892695Y-104530698D01*
X228895638Y-110246383D02*
X229245825Y-109896197D01*
X229245825Y-109896197D02*
X229272762Y-110300258D01*
X229272762Y-110300258D02*
X229353574Y-110219446D01*
X229353574Y-110219446D02*
X229434386Y-110192509D01*
X229434386Y-110192509D02*
X229488261Y-110192509D01*
X229488261Y-110192509D02*
X229569073Y-110219446D01*
X229569073Y-110219446D02*
X229703760Y-110354133D01*
X229703760Y-110354133D02*
X229730698Y-110434945D01*
X229730698Y-110434945D02*
X229730698Y-110488820D01*
X229730698Y-110488820D02*
X229703760Y-110569632D01*
X229703760Y-110569632D02*
X229542136Y-110731257D01*
X229542136Y-110731257D02*
X229461324Y-110758194D01*
X229461324Y-110758194D02*
X229407449Y-110758194D01*
X229407449Y-109734573D02*
X230161696Y-110111696D01*
X230161696Y-110111696D02*
X229784573Y-109357449D01*
X229919260Y-109222762D02*
X230269446Y-108872576D01*
X230269446Y-108872576D02*
X230296383Y-109276637D01*
X230296383Y-109276637D02*
X230377195Y-109195825D01*
X230377195Y-109195825D02*
X230458008Y-109168887D01*
X230458008Y-109168887D02*
X230511882Y-109168887D01*
X230511882Y-109168887D02*
X230592695Y-109195825D01*
X230592695Y-109195825D02*
X230727382Y-109330512D01*
X230727382Y-109330512D02*
X230754319Y-109411324D01*
X230754319Y-109411324D02*
X230754319Y-109465199D01*
X230754319Y-109465199D02*
X230727382Y-109546011D01*
X230727382Y-109546011D02*
X230565757Y-109707635D01*
X230565757Y-109707635D02*
X230484945Y-109734573D01*
X230484945Y-109734573D02*
X230431070Y-109734573D01*
X202995513Y-148276384D02*
X202914701Y-148303321D01*
X202914701Y-148303321D02*
X202833889Y-148384133D01*
X202833889Y-148384133D02*
X202780014Y-148491883D01*
X202780014Y-148491883D02*
X202780014Y-148599632D01*
X202780014Y-148599632D02*
X202806951Y-148680445D01*
X202806951Y-148680445D02*
X202887764Y-148815132D01*
X202887764Y-148815132D02*
X202968576Y-148895944D01*
X202968576Y-148895944D02*
X203103263Y-148976756D01*
X203103263Y-148976756D02*
X203184075Y-149003693D01*
X203184075Y-149003693D02*
X203291825Y-149003693D01*
X203291825Y-149003693D02*
X203399574Y-148949819D01*
X203399574Y-148949819D02*
X203453449Y-148895944D01*
X203453449Y-148895944D02*
X203507324Y-148788194D01*
X203507324Y-148788194D02*
X203507324Y-148734319D01*
X203507324Y-148734319D02*
X203318762Y-148545758D01*
X203318762Y-148545758D02*
X203211012Y-148653507D01*
X203803635Y-148545758D02*
X203237950Y-147980072D01*
X203237950Y-147980072D02*
X203453449Y-147764573D01*
X203453449Y-147764573D02*
X203534261Y-147737636D01*
X203534261Y-147737636D02*
X203588136Y-147737636D01*
X203588136Y-147737636D02*
X203668948Y-147764573D01*
X203668948Y-147764573D02*
X203749760Y-147845385D01*
X203749760Y-147845385D02*
X203776698Y-147926197D01*
X203776698Y-147926197D02*
X203776698Y-147980072D01*
X203776698Y-147980072D02*
X203749760Y-148060884D01*
X203749760Y-148060884D02*
X203534261Y-148276384D01*
X204665632Y-147683761D02*
X204342383Y-148007010D01*
X204504008Y-147845385D02*
X203938322Y-147279700D01*
X203938322Y-147279700D02*
X203965260Y-147414387D01*
X203965260Y-147414387D02*
X203965260Y-147522136D01*
X203965260Y-147522136D02*
X203938322Y-147602948D01*
X204611757Y-146606264D02*
X204342383Y-146875638D01*
X204342383Y-146875638D02*
X204584820Y-147171950D01*
X204584820Y-147171950D02*
X204584820Y-147118075D01*
X204584820Y-147118075D02*
X204611757Y-147037263D01*
X204611757Y-147037263D02*
X204746444Y-146902576D01*
X204746444Y-146902576D02*
X204827257Y-146875638D01*
X204827257Y-146875638D02*
X204881131Y-146875638D01*
X204881131Y-146875638D02*
X204961944Y-146902576D01*
X204961944Y-146902576D02*
X205096631Y-147037263D01*
X205096631Y-147037263D02*
X205123568Y-147118075D01*
X205123568Y-147118075D02*
X205123568Y-147171950D01*
X205123568Y-147171950D02*
X205096631Y-147252762D01*
X205096631Y-147252762D02*
X204961944Y-147387449D01*
X204961944Y-147387449D02*
X204881131Y-147414387D01*
X204881131Y-147414387D02*
X204827257Y-147414387D01*
X203518888Y-112447009D02*
X203438075Y-112473946D01*
X203438075Y-112473946D02*
X203357263Y-112554759D01*
X203357263Y-112554759D02*
X203303388Y-112662508D01*
X203303388Y-112662508D02*
X203303388Y-112770258D01*
X203303388Y-112770258D02*
X203330326Y-112851070D01*
X203330326Y-112851070D02*
X203411138Y-112985757D01*
X203411138Y-112985757D02*
X203491950Y-113066569D01*
X203491950Y-113066569D02*
X203626637Y-113147382D01*
X203626637Y-113147382D02*
X203707449Y-113174319D01*
X203707449Y-113174319D02*
X203815199Y-113174319D01*
X203815199Y-113174319D02*
X203922949Y-113120444D01*
X203922949Y-113120444D02*
X203976823Y-113066569D01*
X203976823Y-113066569D02*
X204030698Y-112958820D01*
X204030698Y-112958820D02*
X204030698Y-112904945D01*
X204030698Y-112904945D02*
X203842136Y-112716383D01*
X203842136Y-112716383D02*
X203734387Y-112824133D01*
X204327010Y-112716383D02*
X203761324Y-112150698D01*
X203761324Y-112150698D02*
X203976823Y-111935198D01*
X203976823Y-111935198D02*
X204057636Y-111908261D01*
X204057636Y-111908261D02*
X204111510Y-111908261D01*
X204111510Y-111908261D02*
X204192323Y-111935198D01*
X204192323Y-111935198D02*
X204273135Y-112016011D01*
X204273135Y-112016011D02*
X204300072Y-112096823D01*
X204300072Y-112096823D02*
X204300072Y-112150698D01*
X204300072Y-112150698D02*
X204273135Y-112231510D01*
X204273135Y-112231510D02*
X204057636Y-112447009D01*
X204758008Y-111531137D02*
X205135132Y-111908261D01*
X204407822Y-111450325D02*
X204677196Y-111989073D01*
X204677196Y-111989073D02*
X205027382Y-111638887D01*
X203418888Y-107367009D02*
X203338075Y-107393946D01*
X203338075Y-107393946D02*
X203257263Y-107474759D01*
X203257263Y-107474759D02*
X203203388Y-107582508D01*
X203203388Y-107582508D02*
X203203388Y-107690258D01*
X203203388Y-107690258D02*
X203230326Y-107771070D01*
X203230326Y-107771070D02*
X203311138Y-107905757D01*
X203311138Y-107905757D02*
X203391950Y-107986569D01*
X203391950Y-107986569D02*
X203526637Y-108067382D01*
X203526637Y-108067382D02*
X203607449Y-108094319D01*
X203607449Y-108094319D02*
X203715199Y-108094319D01*
X203715199Y-108094319D02*
X203822949Y-108040444D01*
X203822949Y-108040444D02*
X203876823Y-107986569D01*
X203876823Y-107986569D02*
X203930698Y-107878820D01*
X203930698Y-107878820D02*
X203930698Y-107824945D01*
X203930698Y-107824945D02*
X203742136Y-107636383D01*
X203742136Y-107636383D02*
X203634387Y-107744133D01*
X204227010Y-107636383D02*
X203661324Y-107070698D01*
X203661324Y-107070698D02*
X203876823Y-106855198D01*
X203876823Y-106855198D02*
X203957636Y-106828261D01*
X203957636Y-106828261D02*
X204011510Y-106828261D01*
X204011510Y-106828261D02*
X204092323Y-106855198D01*
X204092323Y-106855198D02*
X204173135Y-106936011D01*
X204173135Y-106936011D02*
X204200072Y-107016823D01*
X204200072Y-107016823D02*
X204200072Y-107070698D01*
X204200072Y-107070698D02*
X204173135Y-107151510D01*
X204173135Y-107151510D02*
X203957636Y-107367009D01*
X204253947Y-106585824D02*
X204253947Y-106531950D01*
X204253947Y-106531950D02*
X204280884Y-106451137D01*
X204280884Y-106451137D02*
X204415571Y-106316450D01*
X204415571Y-106316450D02*
X204496384Y-106289513D01*
X204496384Y-106289513D02*
X204550258Y-106289513D01*
X204550258Y-106289513D02*
X204631071Y-106316450D01*
X204631071Y-106316450D02*
X204684945Y-106370325D01*
X204684945Y-106370325D02*
X204738820Y-106478075D01*
X204738820Y-106478075D02*
X204738820Y-107124572D01*
X204738820Y-107124572D02*
X205089006Y-106774386D01*
X203518888Y-120067009D02*
X203438075Y-120093946D01*
X203438075Y-120093946D02*
X203357263Y-120174759D01*
X203357263Y-120174759D02*
X203303388Y-120282508D01*
X203303388Y-120282508D02*
X203303388Y-120390258D01*
X203303388Y-120390258D02*
X203330326Y-120471070D01*
X203330326Y-120471070D02*
X203411138Y-120605757D01*
X203411138Y-120605757D02*
X203491950Y-120686569D01*
X203491950Y-120686569D02*
X203626637Y-120767382D01*
X203626637Y-120767382D02*
X203707449Y-120794319D01*
X203707449Y-120794319D02*
X203815199Y-120794319D01*
X203815199Y-120794319D02*
X203922949Y-120740444D01*
X203922949Y-120740444D02*
X203976823Y-120686569D01*
X203976823Y-120686569D02*
X204030698Y-120578820D01*
X204030698Y-120578820D02*
X204030698Y-120524945D01*
X204030698Y-120524945D02*
X203842136Y-120336383D01*
X203842136Y-120336383D02*
X203734387Y-120444133D01*
X204327010Y-120336383D02*
X203761324Y-119770698D01*
X203761324Y-119770698D02*
X203976823Y-119555198D01*
X203976823Y-119555198D02*
X204057636Y-119528261D01*
X204057636Y-119528261D02*
X204111510Y-119528261D01*
X204111510Y-119528261D02*
X204192323Y-119555198D01*
X204192323Y-119555198D02*
X204273135Y-119636011D01*
X204273135Y-119636011D02*
X204300072Y-119716823D01*
X204300072Y-119716823D02*
X204300072Y-119770698D01*
X204300072Y-119770698D02*
X204273135Y-119851510D01*
X204273135Y-119851510D02*
X204057636Y-120067009D01*
X204569446Y-118962576D02*
X204461697Y-119070325D01*
X204461697Y-119070325D02*
X204434759Y-119151137D01*
X204434759Y-119151137D02*
X204434759Y-119205012D01*
X204434759Y-119205012D02*
X204461697Y-119339699D01*
X204461697Y-119339699D02*
X204542509Y-119474386D01*
X204542509Y-119474386D02*
X204758008Y-119689885D01*
X204758008Y-119689885D02*
X204838820Y-119716823D01*
X204838820Y-119716823D02*
X204892695Y-119716823D01*
X204892695Y-119716823D02*
X204973507Y-119689885D01*
X204973507Y-119689885D02*
X205081257Y-119582136D01*
X205081257Y-119582136D02*
X205108194Y-119501324D01*
X205108194Y-119501324D02*
X205108194Y-119447449D01*
X205108194Y-119447449D02*
X205081257Y-119366637D01*
X205081257Y-119366637D02*
X204946570Y-119231950D01*
X204946570Y-119231950D02*
X204865758Y-119205012D01*
X204865758Y-119205012D02*
X204811883Y-119205012D01*
X204811883Y-119205012D02*
X204731071Y-119231950D01*
X204731071Y-119231950D02*
X204623321Y-119339699D01*
X204623321Y-119339699D02*
X204596384Y-119420511D01*
X204596384Y-119420511D02*
X204596384Y-119474386D01*
X204596384Y-119474386D02*
X204623321Y-119555198D01*
X203518888Y-127687009D02*
X203438075Y-127713946D01*
X203438075Y-127713946D02*
X203357263Y-127794759D01*
X203357263Y-127794759D02*
X203303388Y-127902508D01*
X203303388Y-127902508D02*
X203303388Y-128010258D01*
X203303388Y-128010258D02*
X203330326Y-128091070D01*
X203330326Y-128091070D02*
X203411138Y-128225757D01*
X203411138Y-128225757D02*
X203491950Y-128306569D01*
X203491950Y-128306569D02*
X203626637Y-128387382D01*
X203626637Y-128387382D02*
X203707449Y-128414319D01*
X203707449Y-128414319D02*
X203815199Y-128414319D01*
X203815199Y-128414319D02*
X203922949Y-128360444D01*
X203922949Y-128360444D02*
X203976823Y-128306569D01*
X203976823Y-128306569D02*
X204030698Y-128198820D01*
X204030698Y-128198820D02*
X204030698Y-128144945D01*
X204030698Y-128144945D02*
X203842136Y-127956383D01*
X203842136Y-127956383D02*
X203734387Y-128064133D01*
X204327010Y-127956383D02*
X203761324Y-127390698D01*
X203761324Y-127390698D02*
X203976823Y-127175198D01*
X203976823Y-127175198D02*
X204057636Y-127148261D01*
X204057636Y-127148261D02*
X204111510Y-127148261D01*
X204111510Y-127148261D02*
X204192323Y-127175198D01*
X204192323Y-127175198D02*
X204273135Y-127256011D01*
X204273135Y-127256011D02*
X204300072Y-127336823D01*
X204300072Y-127336823D02*
X204300072Y-127390698D01*
X204300072Y-127390698D02*
X204273135Y-127471510D01*
X204273135Y-127471510D02*
X204057636Y-127687009D01*
X204919632Y-127363760D02*
X205027382Y-127256011D01*
X205027382Y-127256011D02*
X205054319Y-127175198D01*
X205054319Y-127175198D02*
X205054319Y-127121324D01*
X205054319Y-127121324D02*
X205027382Y-126986637D01*
X205027382Y-126986637D02*
X204946570Y-126851950D01*
X204946570Y-126851950D02*
X204731071Y-126636450D01*
X204731071Y-126636450D02*
X204650258Y-126609513D01*
X204650258Y-126609513D02*
X204596384Y-126609513D01*
X204596384Y-126609513D02*
X204515571Y-126636450D01*
X204515571Y-126636450D02*
X204407822Y-126744200D01*
X204407822Y-126744200D02*
X204380884Y-126825012D01*
X204380884Y-126825012D02*
X204380884Y-126878887D01*
X204380884Y-126878887D02*
X204407822Y-126959699D01*
X204407822Y-126959699D02*
X204542509Y-127094386D01*
X204542509Y-127094386D02*
X204623321Y-127121324D01*
X204623321Y-127121324D02*
X204677196Y-127121324D01*
X204677196Y-127121324D02*
X204758008Y-127094386D01*
X204758008Y-127094386D02*
X204865758Y-126986637D01*
X204865758Y-126986637D02*
X204892695Y-126905824D01*
X204892695Y-126905824D02*
X204892695Y-126851950D01*
X204892695Y-126851950D02*
X204865758Y-126771137D01*
X203491950Y-117553946D02*
X203411138Y-117580884D01*
X203411138Y-117580884D02*
X203330326Y-117661696D01*
X203330326Y-117661696D02*
X203276451Y-117769446D01*
X203276451Y-117769446D02*
X203276451Y-117877195D01*
X203276451Y-117877195D02*
X203303389Y-117958007D01*
X203303389Y-117958007D02*
X203384201Y-118092694D01*
X203384201Y-118092694D02*
X203465013Y-118173507D01*
X203465013Y-118173507D02*
X203599700Y-118254319D01*
X203599700Y-118254319D02*
X203680512Y-118281256D01*
X203680512Y-118281256D02*
X203788262Y-118281256D01*
X203788262Y-118281256D02*
X203896011Y-118227381D01*
X203896011Y-118227381D02*
X203949886Y-118173507D01*
X203949886Y-118173507D02*
X204003761Y-118065757D01*
X204003761Y-118065757D02*
X204003761Y-118011882D01*
X204003761Y-118011882D02*
X203815199Y-117823320D01*
X203815199Y-117823320D02*
X203707450Y-117931070D01*
X204300072Y-117823320D02*
X203734387Y-117257635D01*
X203734387Y-117257635D02*
X204623321Y-117500072D01*
X204623321Y-117500072D02*
X204057636Y-116934386D01*
X204892695Y-117230698D02*
X204327010Y-116665012D01*
X204327010Y-116665012D02*
X204461697Y-116530325D01*
X204461697Y-116530325D02*
X204569446Y-116476450D01*
X204569446Y-116476450D02*
X204677196Y-116476450D01*
X204677196Y-116476450D02*
X204758008Y-116503388D01*
X204758008Y-116503388D02*
X204892695Y-116584200D01*
X204892695Y-116584200D02*
X204973507Y-116665012D01*
X204973507Y-116665012D02*
X205054319Y-116799699D01*
X205054319Y-116799699D02*
X205081257Y-116880511D01*
X205081257Y-116880511D02*
X205081257Y-116988261D01*
X205081257Y-116988261D02*
X205027382Y-117096011D01*
X205027382Y-117096011D02*
X204892695Y-117230698D01*
X203518888Y-99747009D02*
X203438075Y-99773946D01*
X203438075Y-99773946D02*
X203357263Y-99854759D01*
X203357263Y-99854759D02*
X203303388Y-99962508D01*
X203303388Y-99962508D02*
X203303388Y-100070258D01*
X203303388Y-100070258D02*
X203330326Y-100151070D01*
X203330326Y-100151070D02*
X203411138Y-100285757D01*
X203411138Y-100285757D02*
X203491950Y-100366569D01*
X203491950Y-100366569D02*
X203626637Y-100447382D01*
X203626637Y-100447382D02*
X203707449Y-100474319D01*
X203707449Y-100474319D02*
X203815199Y-100474319D01*
X203815199Y-100474319D02*
X203922949Y-100420444D01*
X203922949Y-100420444D02*
X203976823Y-100366569D01*
X203976823Y-100366569D02*
X204030698Y-100258820D01*
X204030698Y-100258820D02*
X204030698Y-100204945D01*
X204030698Y-100204945D02*
X203842136Y-100016383D01*
X203842136Y-100016383D02*
X203734387Y-100124133D01*
X204327010Y-100016383D02*
X203761324Y-99450698D01*
X203761324Y-99450698D02*
X203976823Y-99235198D01*
X203976823Y-99235198D02*
X204057636Y-99208261D01*
X204057636Y-99208261D02*
X204111510Y-99208261D01*
X204111510Y-99208261D02*
X204192323Y-99235198D01*
X204192323Y-99235198D02*
X204273135Y-99316011D01*
X204273135Y-99316011D02*
X204300072Y-99396823D01*
X204300072Y-99396823D02*
X204300072Y-99450698D01*
X204300072Y-99450698D02*
X204273135Y-99531510D01*
X204273135Y-99531510D02*
X204057636Y-99747009D01*
X204434759Y-98777263D02*
X204488634Y-98723388D01*
X204488634Y-98723388D02*
X204569446Y-98696450D01*
X204569446Y-98696450D02*
X204623321Y-98696450D01*
X204623321Y-98696450D02*
X204704133Y-98723388D01*
X204704133Y-98723388D02*
X204838820Y-98804200D01*
X204838820Y-98804200D02*
X204973507Y-98938887D01*
X204973507Y-98938887D02*
X205054319Y-99073574D01*
X205054319Y-99073574D02*
X205081257Y-99154386D01*
X205081257Y-99154386D02*
X205081257Y-99208261D01*
X205081257Y-99208261D02*
X205054319Y-99289073D01*
X205054319Y-99289073D02*
X205000445Y-99342948D01*
X205000445Y-99342948D02*
X204919632Y-99369885D01*
X204919632Y-99369885D02*
X204865758Y-99369885D01*
X204865758Y-99369885D02*
X204784945Y-99342948D01*
X204784945Y-99342948D02*
X204650258Y-99262136D01*
X204650258Y-99262136D02*
X204515571Y-99127449D01*
X204515571Y-99127449D02*
X204434759Y-98992762D01*
X204434759Y-98992762D02*
X204407822Y-98911950D01*
X204407822Y-98911950D02*
X204407822Y-98858075D01*
X204407822Y-98858075D02*
X204434759Y-98777263D01*
X203491950Y-130253946D02*
X203411138Y-130280884D01*
X203411138Y-130280884D02*
X203330326Y-130361696D01*
X203330326Y-130361696D02*
X203276451Y-130469446D01*
X203276451Y-130469446D02*
X203276451Y-130577195D01*
X203276451Y-130577195D02*
X203303389Y-130658007D01*
X203303389Y-130658007D02*
X203384201Y-130792694D01*
X203384201Y-130792694D02*
X203465013Y-130873507D01*
X203465013Y-130873507D02*
X203599700Y-130954319D01*
X203599700Y-130954319D02*
X203680512Y-130981256D01*
X203680512Y-130981256D02*
X203788262Y-130981256D01*
X203788262Y-130981256D02*
X203896011Y-130927381D01*
X203896011Y-130927381D02*
X203949886Y-130873507D01*
X203949886Y-130873507D02*
X204003761Y-130765757D01*
X204003761Y-130765757D02*
X204003761Y-130711882D01*
X204003761Y-130711882D02*
X203815199Y-130523320D01*
X203815199Y-130523320D02*
X203707450Y-130631070D01*
X204300072Y-130523320D02*
X203734387Y-129957635D01*
X203734387Y-129957635D02*
X204623321Y-130200072D01*
X204623321Y-130200072D02*
X204057636Y-129634386D01*
X204892695Y-129930698D02*
X204327010Y-129365012D01*
X204327010Y-129365012D02*
X204461697Y-129230325D01*
X204461697Y-129230325D02*
X204569446Y-129176450D01*
X204569446Y-129176450D02*
X204677196Y-129176450D01*
X204677196Y-129176450D02*
X204758008Y-129203388D01*
X204758008Y-129203388D02*
X204892695Y-129284200D01*
X204892695Y-129284200D02*
X204973507Y-129365012D01*
X204973507Y-129365012D02*
X205054319Y-129499699D01*
X205054319Y-129499699D02*
X205081257Y-129580511D01*
X205081257Y-129580511D02*
X205081257Y-129688261D01*
X205081257Y-129688261D02*
X205027382Y-129796011D01*
X205027382Y-129796011D02*
X204892695Y-129930698D01*
X228927923Y-107714099D02*
X229278109Y-107363913D01*
X229278109Y-107363913D02*
X229305046Y-107767974D01*
X229305046Y-107767974D02*
X229385859Y-107687162D01*
X229385859Y-107687162D02*
X229466671Y-107660224D01*
X229466671Y-107660224D02*
X229520546Y-107660224D01*
X229520546Y-107660224D02*
X229601358Y-107687162D01*
X229601358Y-107687162D02*
X229736045Y-107821849D01*
X229736045Y-107821849D02*
X229762982Y-107902661D01*
X229762982Y-107902661D02*
X229762982Y-107956536D01*
X229762982Y-107956536D02*
X229736045Y-108037348D01*
X229736045Y-108037348D02*
X229574420Y-108198972D01*
X229574420Y-108198972D02*
X229493608Y-108225910D01*
X229493608Y-108225910D02*
X229439733Y-108225910D01*
X229439733Y-107202288D02*
X230193981Y-107579412D01*
X230193981Y-107579412D02*
X229816857Y-106825165D01*
X229951544Y-106690478D02*
X230301730Y-106340292D01*
X230301730Y-106340292D02*
X230328668Y-106744353D01*
X230328668Y-106744353D02*
X230409480Y-106663541D01*
X230409480Y-106663541D02*
X230490292Y-106636603D01*
X230490292Y-106636603D02*
X230544167Y-106636603D01*
X230544167Y-106636603D02*
X230624979Y-106663541D01*
X230624979Y-106663541D02*
X230759666Y-106798228D01*
X230759666Y-106798228D02*
X230786603Y-106879040D01*
X230786603Y-106879040D02*
X230786603Y-106932915D01*
X230786603Y-106932915D02*
X230759666Y-107013727D01*
X230759666Y-107013727D02*
X230598042Y-107175351D01*
X230598042Y-107175351D02*
X230517229Y-107202289D01*
X230517229Y-107202289D02*
X230463355Y-107202289D01*
X231029040Y-106852102D02*
X231460039Y-106421104D01*
X231244539Y-105936230D02*
X231433101Y-105747669D01*
X231810225Y-105963168D02*
X231540851Y-106232542D01*
X231540851Y-106232542D02*
X230975165Y-105666856D01*
X230975165Y-105666856D02*
X231244539Y-105397482D01*
X232052662Y-105720731D02*
X231486976Y-105155045D01*
X231486976Y-105155045D02*
X232375911Y-105397482D01*
X232375911Y-105397482D02*
X231810225Y-104831797D01*
X229103513Y-145736384D02*
X229022701Y-145763321D01*
X229022701Y-145763321D02*
X228941889Y-145844133D01*
X228941889Y-145844133D02*
X228888014Y-145951883D01*
X228888014Y-145951883D02*
X228888014Y-146059632D01*
X228888014Y-146059632D02*
X228914951Y-146140445D01*
X228914951Y-146140445D02*
X228995764Y-146275132D01*
X228995764Y-146275132D02*
X229076576Y-146355944D01*
X229076576Y-146355944D02*
X229211263Y-146436756D01*
X229211263Y-146436756D02*
X229292075Y-146463693D01*
X229292075Y-146463693D02*
X229399825Y-146463693D01*
X229399825Y-146463693D02*
X229507574Y-146409819D01*
X229507574Y-146409819D02*
X229561449Y-146355944D01*
X229561449Y-146355944D02*
X229615324Y-146248194D01*
X229615324Y-146248194D02*
X229615324Y-146194319D01*
X229615324Y-146194319D02*
X229426762Y-146005758D01*
X229426762Y-146005758D02*
X229319012Y-146113507D01*
X229911635Y-146005758D02*
X229345950Y-145440072D01*
X229345950Y-145440072D02*
X229561449Y-145224573D01*
X229561449Y-145224573D02*
X229642261Y-145197636D01*
X229642261Y-145197636D02*
X229696136Y-145197636D01*
X229696136Y-145197636D02*
X229776948Y-145224573D01*
X229776948Y-145224573D02*
X229857760Y-145305385D01*
X229857760Y-145305385D02*
X229884698Y-145386197D01*
X229884698Y-145386197D02*
X229884698Y-145440072D01*
X229884698Y-145440072D02*
X229857760Y-145520884D01*
X229857760Y-145520884D02*
X229642261Y-145736384D01*
X230773632Y-145143761D02*
X230450383Y-145467010D01*
X230612008Y-145305385D02*
X230046322Y-144739700D01*
X230046322Y-144739700D02*
X230073260Y-144874387D01*
X230073260Y-144874387D02*
X230073260Y-144982136D01*
X230073260Y-144982136D02*
X230046322Y-145062948D01*
X230396509Y-144389513D02*
X230773632Y-144012390D01*
X230773632Y-144012390D02*
X231096881Y-144820512D01*
X203491950Y-142953946D02*
X203411138Y-142980884D01*
X203411138Y-142980884D02*
X203330326Y-143061696D01*
X203330326Y-143061696D02*
X203276451Y-143169446D01*
X203276451Y-143169446D02*
X203276451Y-143277195D01*
X203276451Y-143277195D02*
X203303389Y-143358007D01*
X203303389Y-143358007D02*
X203384201Y-143492694D01*
X203384201Y-143492694D02*
X203465013Y-143573507D01*
X203465013Y-143573507D02*
X203599700Y-143654319D01*
X203599700Y-143654319D02*
X203680512Y-143681256D01*
X203680512Y-143681256D02*
X203788262Y-143681256D01*
X203788262Y-143681256D02*
X203896011Y-143627381D01*
X203896011Y-143627381D02*
X203949886Y-143573507D01*
X203949886Y-143573507D02*
X204003761Y-143465757D01*
X204003761Y-143465757D02*
X204003761Y-143411882D01*
X204003761Y-143411882D02*
X203815199Y-143223320D01*
X203815199Y-143223320D02*
X203707450Y-143331070D01*
X204300072Y-143223320D02*
X203734387Y-142657635D01*
X203734387Y-142657635D02*
X204623321Y-142900072D01*
X204623321Y-142900072D02*
X204057636Y-142334386D01*
X204892695Y-142630698D02*
X204327010Y-142065012D01*
X204327010Y-142065012D02*
X204461697Y-141930325D01*
X204461697Y-141930325D02*
X204569446Y-141876450D01*
X204569446Y-141876450D02*
X204677196Y-141876450D01*
X204677196Y-141876450D02*
X204758008Y-141903388D01*
X204758008Y-141903388D02*
X204892695Y-141984200D01*
X204892695Y-141984200D02*
X204973507Y-142065012D01*
X204973507Y-142065012D02*
X205054319Y-142199699D01*
X205054319Y-142199699D02*
X205081257Y-142280511D01*
X205081257Y-142280511D02*
X205081257Y-142388261D01*
X205081257Y-142388261D02*
X205027382Y-142496011D01*
X205027382Y-142496011D02*
X204892695Y-142630698D01*
X229103513Y-127956384D02*
X229022701Y-127983321D01*
X229022701Y-127983321D02*
X228941889Y-128064133D01*
X228941889Y-128064133D02*
X228888014Y-128171883D01*
X228888014Y-128171883D02*
X228888014Y-128279632D01*
X228888014Y-128279632D02*
X228914951Y-128360445D01*
X228914951Y-128360445D02*
X228995764Y-128495132D01*
X228995764Y-128495132D02*
X229076576Y-128575944D01*
X229076576Y-128575944D02*
X229211263Y-128656756D01*
X229211263Y-128656756D02*
X229292075Y-128683693D01*
X229292075Y-128683693D02*
X229399825Y-128683693D01*
X229399825Y-128683693D02*
X229507574Y-128629819D01*
X229507574Y-128629819D02*
X229561449Y-128575944D01*
X229561449Y-128575944D02*
X229615324Y-128468194D01*
X229615324Y-128468194D02*
X229615324Y-128414319D01*
X229615324Y-128414319D02*
X229426762Y-128225758D01*
X229426762Y-128225758D02*
X229319012Y-128333507D01*
X229911635Y-128225758D02*
X229345950Y-127660072D01*
X229345950Y-127660072D02*
X229561449Y-127444573D01*
X229561449Y-127444573D02*
X229642261Y-127417636D01*
X229642261Y-127417636D02*
X229696136Y-127417636D01*
X229696136Y-127417636D02*
X229776948Y-127444573D01*
X229776948Y-127444573D02*
X229857760Y-127525385D01*
X229857760Y-127525385D02*
X229884698Y-127606197D01*
X229884698Y-127606197D02*
X229884698Y-127660072D01*
X229884698Y-127660072D02*
X229857760Y-127740884D01*
X229857760Y-127740884D02*
X229642261Y-127956384D01*
X229938573Y-127175199D02*
X229938573Y-127121324D01*
X229938573Y-127121324D02*
X229965510Y-127040512D01*
X229965510Y-127040512D02*
X230100197Y-126905825D01*
X230100197Y-126905825D02*
X230181009Y-126878887D01*
X230181009Y-126878887D02*
X230234884Y-126878887D01*
X230234884Y-126878887D02*
X230315696Y-126905825D01*
X230315696Y-126905825D02*
X230369571Y-126959700D01*
X230369571Y-126959700D02*
X230423446Y-127067449D01*
X230423446Y-127067449D02*
X230423446Y-127713947D01*
X230423446Y-127713947D02*
X230773632Y-127363761D01*
X230477321Y-126636451D02*
X230477321Y-126582576D01*
X230477321Y-126582576D02*
X230504258Y-126501764D01*
X230504258Y-126501764D02*
X230638945Y-126367077D01*
X230638945Y-126367077D02*
X230719757Y-126340139D01*
X230719757Y-126340139D02*
X230773632Y-126340139D01*
X230773632Y-126340139D02*
X230854444Y-126367077D01*
X230854444Y-126367077D02*
X230908319Y-126420951D01*
X230908319Y-126420951D02*
X230962194Y-126528701D01*
X230962194Y-126528701D02*
X230962194Y-127175199D01*
X230962194Y-127175199D02*
X231312380Y-126825013D01*
X203518888Y-114987009D02*
X203438075Y-115013946D01*
X203438075Y-115013946D02*
X203357263Y-115094759D01*
X203357263Y-115094759D02*
X203303388Y-115202508D01*
X203303388Y-115202508D02*
X203303388Y-115310258D01*
X203303388Y-115310258D02*
X203330326Y-115391070D01*
X203330326Y-115391070D02*
X203411138Y-115525757D01*
X203411138Y-115525757D02*
X203491950Y-115606569D01*
X203491950Y-115606569D02*
X203626637Y-115687382D01*
X203626637Y-115687382D02*
X203707449Y-115714319D01*
X203707449Y-115714319D02*
X203815199Y-115714319D01*
X203815199Y-115714319D02*
X203922949Y-115660444D01*
X203922949Y-115660444D02*
X203976823Y-115606569D01*
X203976823Y-115606569D02*
X204030698Y-115498820D01*
X204030698Y-115498820D02*
X204030698Y-115444945D01*
X204030698Y-115444945D02*
X203842136Y-115256383D01*
X203842136Y-115256383D02*
X203734387Y-115364133D01*
X204327010Y-115256383D02*
X203761324Y-114690698D01*
X203761324Y-114690698D02*
X203976823Y-114475198D01*
X203976823Y-114475198D02*
X204057636Y-114448261D01*
X204057636Y-114448261D02*
X204111510Y-114448261D01*
X204111510Y-114448261D02*
X204192323Y-114475198D01*
X204192323Y-114475198D02*
X204273135Y-114556011D01*
X204273135Y-114556011D02*
X204300072Y-114636823D01*
X204300072Y-114636823D02*
X204300072Y-114690698D01*
X204300072Y-114690698D02*
X204273135Y-114771510D01*
X204273135Y-114771510D02*
X204057636Y-114987009D01*
X204596384Y-113855638D02*
X204327010Y-114125012D01*
X204327010Y-114125012D02*
X204569446Y-114421324D01*
X204569446Y-114421324D02*
X204569446Y-114367449D01*
X204569446Y-114367449D02*
X204596384Y-114286637D01*
X204596384Y-114286637D02*
X204731071Y-114151950D01*
X204731071Y-114151950D02*
X204811883Y-114125012D01*
X204811883Y-114125012D02*
X204865758Y-114125012D01*
X204865758Y-114125012D02*
X204946570Y-114151950D01*
X204946570Y-114151950D02*
X205081257Y-114286637D01*
X205081257Y-114286637D02*
X205108194Y-114367449D01*
X205108194Y-114367449D02*
X205108194Y-114421324D01*
X205108194Y-114421324D02*
X205081257Y-114502136D01*
X205081257Y-114502136D02*
X204946570Y-114636823D01*
X204946570Y-114636823D02*
X204865758Y-114663760D01*
X204865758Y-114663760D02*
X204811883Y-114663760D01*
X202849513Y-138116384D02*
X202768701Y-138143321D01*
X202768701Y-138143321D02*
X202687889Y-138224133D01*
X202687889Y-138224133D02*
X202634014Y-138331883D01*
X202634014Y-138331883D02*
X202634014Y-138439632D01*
X202634014Y-138439632D02*
X202660951Y-138520445D01*
X202660951Y-138520445D02*
X202741764Y-138655132D01*
X202741764Y-138655132D02*
X202822576Y-138735944D01*
X202822576Y-138735944D02*
X202957263Y-138816756D01*
X202957263Y-138816756D02*
X203038075Y-138843693D01*
X203038075Y-138843693D02*
X203145825Y-138843693D01*
X203145825Y-138843693D02*
X203253574Y-138789819D01*
X203253574Y-138789819D02*
X203307449Y-138735944D01*
X203307449Y-138735944D02*
X203361324Y-138628194D01*
X203361324Y-138628194D02*
X203361324Y-138574319D01*
X203361324Y-138574319D02*
X203172762Y-138385758D01*
X203172762Y-138385758D02*
X203065012Y-138493507D01*
X203657635Y-138385758D02*
X203091950Y-137820072D01*
X203091950Y-137820072D02*
X203307449Y-137604573D01*
X203307449Y-137604573D02*
X203388261Y-137577636D01*
X203388261Y-137577636D02*
X203442136Y-137577636D01*
X203442136Y-137577636D02*
X203522948Y-137604573D01*
X203522948Y-137604573D02*
X203603760Y-137685385D01*
X203603760Y-137685385D02*
X203630698Y-137766197D01*
X203630698Y-137766197D02*
X203630698Y-137820072D01*
X203630698Y-137820072D02*
X203603760Y-137900884D01*
X203603760Y-137900884D02*
X203388261Y-138116384D01*
X204519632Y-137523761D02*
X204196383Y-137847010D01*
X204358008Y-137685385D02*
X203792322Y-137119700D01*
X203792322Y-137119700D02*
X203819260Y-137254387D01*
X203819260Y-137254387D02*
X203819260Y-137362136D01*
X203819260Y-137362136D02*
X203792322Y-137442948D01*
X204223321Y-136796451D02*
X204223321Y-136742576D01*
X204223321Y-136742576D02*
X204250258Y-136661764D01*
X204250258Y-136661764D02*
X204384945Y-136527077D01*
X204384945Y-136527077D02*
X204465757Y-136500139D01*
X204465757Y-136500139D02*
X204519632Y-136500139D01*
X204519632Y-136500139D02*
X204600444Y-136527077D01*
X204600444Y-136527077D02*
X204654319Y-136580951D01*
X204654319Y-136580951D02*
X204708194Y-136688701D01*
X204708194Y-136688701D02*
X204708194Y-137335199D01*
X204708194Y-137335199D02*
X205058380Y-136985013D01*
X229157389Y-118496755D02*
X229426763Y-118227381D01*
X229265138Y-118712254D02*
X228888015Y-117958007D01*
X228888015Y-117958007D02*
X229642262Y-118335131D01*
X229588387Y-117311510D02*
X229507575Y-117338447D01*
X229507575Y-117338447D02*
X229426762Y-117419259D01*
X229426762Y-117419259D02*
X229372888Y-117527009D01*
X229372888Y-117527009D02*
X229372888Y-117634759D01*
X229372888Y-117634759D02*
X229399825Y-117715571D01*
X229399825Y-117715571D02*
X229480637Y-117850258D01*
X229480637Y-117850258D02*
X229561449Y-117931070D01*
X229561449Y-117931070D02*
X229696136Y-118011882D01*
X229696136Y-118011882D02*
X229776949Y-118038820D01*
X229776949Y-118038820D02*
X229884698Y-118038820D01*
X229884698Y-118038820D02*
X229992448Y-117984945D01*
X229992448Y-117984945D02*
X230046323Y-117931070D01*
X230046323Y-117931070D02*
X230100197Y-117823320D01*
X230100197Y-117823320D02*
X230100197Y-117769446D01*
X230100197Y-117769446D02*
X229911636Y-117580884D01*
X229911636Y-117580884D02*
X229803886Y-117688633D01*
X230396509Y-117580884D02*
X229830823Y-117015198D01*
X229830823Y-117015198D02*
X230719758Y-117257635D01*
X230719758Y-117257635D02*
X230154072Y-116691950D01*
X230989132Y-116988261D02*
X230423446Y-116422576D01*
X230423446Y-116422576D02*
X230558133Y-116287889D01*
X230558133Y-116287889D02*
X230665883Y-116234014D01*
X230665883Y-116234014D02*
X230773632Y-116234014D01*
X230773632Y-116234014D02*
X230854445Y-116260951D01*
X230854445Y-116260951D02*
X230989132Y-116341764D01*
X230989132Y-116341764D02*
X231069944Y-116422576D01*
X231069944Y-116422576D02*
X231150756Y-116557263D01*
X231150756Y-116557263D02*
X231177693Y-116638075D01*
X231177693Y-116638075D02*
X231177693Y-116745825D01*
X231177693Y-116745825D02*
X231123819Y-116853574D01*
X231123819Y-116853574D02*
X230989132Y-116988261D01*
X228926265Y-102825757D02*
X229680512Y-103202881D01*
X229680512Y-103202881D02*
X229303388Y-102448634D01*
X230003760Y-102825758D02*
X230111510Y-102771883D01*
X230111510Y-102771883D02*
X230246197Y-102637196D01*
X230246197Y-102637196D02*
X230273134Y-102556384D01*
X230273134Y-102556384D02*
X230273134Y-102502509D01*
X230273134Y-102502509D02*
X230246197Y-102421697D01*
X230246197Y-102421697D02*
X230192322Y-102367822D01*
X230192322Y-102367822D02*
X230111510Y-102340884D01*
X230111510Y-102340884D02*
X230057635Y-102340884D01*
X230057635Y-102340884D02*
X229976823Y-102367822D01*
X229976823Y-102367822D02*
X229842136Y-102448634D01*
X229842136Y-102448634D02*
X229761324Y-102475571D01*
X229761324Y-102475571D02*
X229707449Y-102475571D01*
X229707449Y-102475571D02*
X229626637Y-102448634D01*
X229626637Y-102448634D02*
X229572762Y-102394759D01*
X229572762Y-102394759D02*
X229545825Y-102313947D01*
X229545825Y-102313947D02*
X229545825Y-102260072D01*
X229545825Y-102260072D02*
X229572762Y-102179260D01*
X229572762Y-102179260D02*
X229707449Y-102044573D01*
X229707449Y-102044573D02*
X229815199Y-101990698D01*
X230434759Y-101909886D02*
X230704133Y-102179260D01*
X229949886Y-101802136D02*
X230434759Y-101909886D01*
X230434759Y-101909886D02*
X230327009Y-101425013D01*
X231027382Y-101802136D02*
X231135131Y-101748262D01*
X231135131Y-101748262D02*
X231269818Y-101613575D01*
X231269818Y-101613575D02*
X231296756Y-101532762D01*
X231296756Y-101532762D02*
X231296756Y-101478888D01*
X231296756Y-101478888D02*
X231269818Y-101398075D01*
X231269818Y-101398075D02*
X231215943Y-101344201D01*
X231215943Y-101344201D02*
X231135131Y-101317263D01*
X231135131Y-101317263D02*
X231081256Y-101317263D01*
X231081256Y-101317263D02*
X231000444Y-101344201D01*
X231000444Y-101344201D02*
X230865757Y-101425013D01*
X230865757Y-101425013D02*
X230784945Y-101451950D01*
X230784945Y-101451950D02*
X230731070Y-101451950D01*
X230731070Y-101451950D02*
X230650258Y-101425013D01*
X230650258Y-101425013D02*
X230596383Y-101371138D01*
X230596383Y-101371138D02*
X230569446Y-101290326D01*
X230569446Y-101290326D02*
X230569446Y-101236451D01*
X230569446Y-101236451D02*
X230596383Y-101155639D01*
X230596383Y-101155639D02*
X230731070Y-101020952D01*
X230731070Y-101020952D02*
X230838820Y-100967077D01*
X202849513Y-135576384D02*
X202768701Y-135603321D01*
X202768701Y-135603321D02*
X202687889Y-135684133D01*
X202687889Y-135684133D02*
X202634014Y-135791883D01*
X202634014Y-135791883D02*
X202634014Y-135899632D01*
X202634014Y-135899632D02*
X202660951Y-135980445D01*
X202660951Y-135980445D02*
X202741764Y-136115132D01*
X202741764Y-136115132D02*
X202822576Y-136195944D01*
X202822576Y-136195944D02*
X202957263Y-136276756D01*
X202957263Y-136276756D02*
X203038075Y-136303693D01*
X203038075Y-136303693D02*
X203145825Y-136303693D01*
X203145825Y-136303693D02*
X203253574Y-136249819D01*
X203253574Y-136249819D02*
X203307449Y-136195944D01*
X203307449Y-136195944D02*
X203361324Y-136088194D01*
X203361324Y-136088194D02*
X203361324Y-136034319D01*
X203361324Y-136034319D02*
X203172762Y-135845758D01*
X203172762Y-135845758D02*
X203065012Y-135953507D01*
X203657635Y-135845758D02*
X203091950Y-135280072D01*
X203091950Y-135280072D02*
X203307449Y-135064573D01*
X203307449Y-135064573D02*
X203388261Y-135037636D01*
X203388261Y-135037636D02*
X203442136Y-135037636D01*
X203442136Y-135037636D02*
X203522948Y-135064573D01*
X203522948Y-135064573D02*
X203603760Y-135145385D01*
X203603760Y-135145385D02*
X203630698Y-135226197D01*
X203630698Y-135226197D02*
X203630698Y-135280072D01*
X203630698Y-135280072D02*
X203603760Y-135360884D01*
X203603760Y-135360884D02*
X203388261Y-135576384D01*
X204519632Y-134983761D02*
X204196383Y-135307010D01*
X204358008Y-135145385D02*
X203792322Y-134579700D01*
X203792322Y-134579700D02*
X203819260Y-134714387D01*
X203819260Y-134714387D02*
X203819260Y-134822136D01*
X203819260Y-134822136D02*
X203792322Y-134902948D01*
X205058380Y-134445013D02*
X204735131Y-134768261D01*
X204896756Y-134606637D02*
X204331070Y-134040951D01*
X204331070Y-134040951D02*
X204358008Y-134175638D01*
X204358008Y-134175638D02*
X204358008Y-134283388D01*
X204358008Y-134283388D02*
X204331070Y-134364200D01*
X229091950Y-130253946D02*
X229011138Y-130280884D01*
X229011138Y-130280884D02*
X228930326Y-130361696D01*
X228930326Y-130361696D02*
X228876451Y-130469446D01*
X228876451Y-130469446D02*
X228876451Y-130577195D01*
X228876451Y-130577195D02*
X228903389Y-130658007D01*
X228903389Y-130658007D02*
X228984201Y-130792694D01*
X228984201Y-130792694D02*
X229065013Y-130873507D01*
X229065013Y-130873507D02*
X229199700Y-130954319D01*
X229199700Y-130954319D02*
X229280512Y-130981256D01*
X229280512Y-130981256D02*
X229388262Y-130981256D01*
X229388262Y-130981256D02*
X229496011Y-130927381D01*
X229496011Y-130927381D02*
X229549886Y-130873507D01*
X229549886Y-130873507D02*
X229603761Y-130765757D01*
X229603761Y-130765757D02*
X229603761Y-130711882D01*
X229603761Y-130711882D02*
X229415199Y-130523320D01*
X229415199Y-130523320D02*
X229307450Y-130631070D01*
X229900072Y-130523320D02*
X229334387Y-129957635D01*
X229334387Y-129957635D02*
X230223321Y-130200072D01*
X230223321Y-130200072D02*
X229657636Y-129634386D01*
X230492695Y-129930698D02*
X229927010Y-129365012D01*
X229927010Y-129365012D02*
X230061697Y-129230325D01*
X230061697Y-129230325D02*
X230169446Y-129176450D01*
X230169446Y-129176450D02*
X230277196Y-129176450D01*
X230277196Y-129176450D02*
X230358008Y-129203388D01*
X230358008Y-129203388D02*
X230492695Y-129284200D01*
X230492695Y-129284200D02*
X230573507Y-129365012D01*
X230573507Y-129365012D02*
X230654319Y-129499699D01*
X230654319Y-129499699D02*
X230681257Y-129580511D01*
X230681257Y-129580511D02*
X230681257Y-129688261D01*
X230681257Y-129688261D02*
X230627382Y-129796011D01*
X230627382Y-129796011D02*
X230492695Y-129930698D01*
X229103513Y-120346384D02*
X229022701Y-120373321D01*
X229022701Y-120373321D02*
X228941889Y-120454133D01*
X228941889Y-120454133D02*
X228888014Y-120561883D01*
X228888014Y-120561883D02*
X228888014Y-120669632D01*
X228888014Y-120669632D02*
X228914951Y-120750445D01*
X228914951Y-120750445D02*
X228995764Y-120885132D01*
X228995764Y-120885132D02*
X229076576Y-120965944D01*
X229076576Y-120965944D02*
X229211263Y-121046756D01*
X229211263Y-121046756D02*
X229292075Y-121073693D01*
X229292075Y-121073693D02*
X229399825Y-121073693D01*
X229399825Y-121073693D02*
X229507574Y-121019819D01*
X229507574Y-121019819D02*
X229561449Y-120965944D01*
X229561449Y-120965944D02*
X229615324Y-120858194D01*
X229615324Y-120858194D02*
X229615324Y-120804319D01*
X229615324Y-120804319D02*
X229426762Y-120615758D01*
X229426762Y-120615758D02*
X229319012Y-120723507D01*
X229911635Y-120615758D02*
X229345950Y-120050072D01*
X229345950Y-120050072D02*
X229561449Y-119834573D01*
X229561449Y-119834573D02*
X229642261Y-119807636D01*
X229642261Y-119807636D02*
X229696136Y-119807636D01*
X229696136Y-119807636D02*
X229776948Y-119834573D01*
X229776948Y-119834573D02*
X229857760Y-119915385D01*
X229857760Y-119915385D02*
X229884698Y-119996197D01*
X229884698Y-119996197D02*
X229884698Y-120050072D01*
X229884698Y-120050072D02*
X229857760Y-120130884D01*
X229857760Y-120130884D02*
X229642261Y-120346384D01*
X229938573Y-119565199D02*
X229938573Y-119511324D01*
X229938573Y-119511324D02*
X229965510Y-119430512D01*
X229965510Y-119430512D02*
X230100197Y-119295825D01*
X230100197Y-119295825D02*
X230181009Y-119268887D01*
X230181009Y-119268887D02*
X230234884Y-119268887D01*
X230234884Y-119268887D02*
X230315696Y-119295825D01*
X230315696Y-119295825D02*
X230369571Y-119349700D01*
X230369571Y-119349700D02*
X230423446Y-119457449D01*
X230423446Y-119457449D02*
X230423446Y-120103947D01*
X230423446Y-120103947D02*
X230773632Y-119753761D01*
X230396509Y-118999513D02*
X230773632Y-118622390D01*
X230773632Y-118622390D02*
X231096881Y-119430512D01*
X229091950Y-104853946D02*
X229011138Y-104880884D01*
X229011138Y-104880884D02*
X228930326Y-104961696D01*
X228930326Y-104961696D02*
X228876451Y-105069446D01*
X228876451Y-105069446D02*
X228876451Y-105177195D01*
X228876451Y-105177195D02*
X228903389Y-105258007D01*
X228903389Y-105258007D02*
X228984201Y-105392694D01*
X228984201Y-105392694D02*
X229065013Y-105473507D01*
X229065013Y-105473507D02*
X229199700Y-105554319D01*
X229199700Y-105554319D02*
X229280512Y-105581256D01*
X229280512Y-105581256D02*
X229388262Y-105581256D01*
X229388262Y-105581256D02*
X229496011Y-105527381D01*
X229496011Y-105527381D02*
X229549886Y-105473507D01*
X229549886Y-105473507D02*
X229603761Y-105365757D01*
X229603761Y-105365757D02*
X229603761Y-105311882D01*
X229603761Y-105311882D02*
X229415199Y-105123320D01*
X229415199Y-105123320D02*
X229307450Y-105231070D01*
X229900072Y-105123320D02*
X229334387Y-104557635D01*
X229334387Y-104557635D02*
X230223321Y-104800072D01*
X230223321Y-104800072D02*
X229657636Y-104234386D01*
X230492695Y-104530698D02*
X229927010Y-103965012D01*
X229927010Y-103965012D02*
X230061697Y-103830325D01*
X230061697Y-103830325D02*
X230169446Y-103776450D01*
X230169446Y-103776450D02*
X230277196Y-103776450D01*
X230277196Y-103776450D02*
X230358008Y-103803388D01*
X230358008Y-103803388D02*
X230492695Y-103884200D01*
X230492695Y-103884200D02*
X230573507Y-103965012D01*
X230573507Y-103965012D02*
X230654319Y-104099699D01*
X230654319Y-104099699D02*
X230681257Y-104180511D01*
X230681257Y-104180511D02*
X230681257Y-104288261D01*
X230681257Y-104288261D02*
X230627382Y-104396011D01*
X230627382Y-104396011D02*
X230492695Y-104530698D01*
X229103513Y-148276384D02*
X229022701Y-148303321D01*
X229022701Y-148303321D02*
X228941889Y-148384133D01*
X228941889Y-148384133D02*
X228888014Y-148491883D01*
X228888014Y-148491883D02*
X228888014Y-148599632D01*
X228888014Y-148599632D02*
X228914951Y-148680445D01*
X228914951Y-148680445D02*
X228995764Y-148815132D01*
X228995764Y-148815132D02*
X229076576Y-148895944D01*
X229076576Y-148895944D02*
X229211263Y-148976756D01*
X229211263Y-148976756D02*
X229292075Y-149003693D01*
X229292075Y-149003693D02*
X229399825Y-149003693D01*
X229399825Y-149003693D02*
X229507574Y-148949819D01*
X229507574Y-148949819D02*
X229561449Y-148895944D01*
X229561449Y-148895944D02*
X229615324Y-148788194D01*
X229615324Y-148788194D02*
X229615324Y-148734319D01*
X229615324Y-148734319D02*
X229426762Y-148545758D01*
X229426762Y-148545758D02*
X229319012Y-148653507D01*
X229911635Y-148545758D02*
X229345950Y-147980072D01*
X229345950Y-147980072D02*
X229561449Y-147764573D01*
X229561449Y-147764573D02*
X229642261Y-147737636D01*
X229642261Y-147737636D02*
X229696136Y-147737636D01*
X229696136Y-147737636D02*
X229776948Y-147764573D01*
X229776948Y-147764573D02*
X229857760Y-147845385D01*
X229857760Y-147845385D02*
X229884698Y-147926197D01*
X229884698Y-147926197D02*
X229884698Y-147980072D01*
X229884698Y-147980072D02*
X229857760Y-148060884D01*
X229857760Y-148060884D02*
X229642261Y-148276384D01*
X230773632Y-147683761D02*
X230450383Y-148007010D01*
X230612008Y-147845385D02*
X230046322Y-147279700D01*
X230046322Y-147279700D02*
X230073260Y-147414387D01*
X230073260Y-147414387D02*
X230073260Y-147522136D01*
X230073260Y-147522136D02*
X230046322Y-147602948D01*
X230692820Y-146633202D02*
X230585070Y-146740951D01*
X230585070Y-146740951D02*
X230558133Y-146821764D01*
X230558133Y-146821764D02*
X230558133Y-146875638D01*
X230558133Y-146875638D02*
X230585070Y-147010326D01*
X230585070Y-147010326D02*
X230665883Y-147145013D01*
X230665883Y-147145013D02*
X230881382Y-147360512D01*
X230881382Y-147360512D02*
X230962194Y-147387449D01*
X230962194Y-147387449D02*
X231016069Y-147387449D01*
X231016069Y-147387449D02*
X231096881Y-147360512D01*
X231096881Y-147360512D02*
X231204631Y-147252762D01*
X231204631Y-147252762D02*
X231231568Y-147171950D01*
X231231568Y-147171950D02*
X231231568Y-147118075D01*
X231231568Y-147118075D02*
X231204631Y-147037263D01*
X231204631Y-147037263D02*
X231069944Y-146902576D01*
X231069944Y-146902576D02*
X230989131Y-146875638D01*
X230989131Y-146875638D02*
X230935257Y-146875638D01*
X230935257Y-146875638D02*
X230854444Y-146902576D01*
X230854444Y-146902576D02*
X230746695Y-147010326D01*
X230746695Y-147010326D02*
X230719757Y-147091138D01*
X230719757Y-147091138D02*
X230719757Y-147145013D01*
X230719757Y-147145013D02*
X230746695Y-147225825D01*
X228958921Y-100283101D02*
X229713168Y-100660224D01*
X229713168Y-100660224D02*
X229336045Y-99905977D01*
X229982542Y-99798228D02*
X230090292Y-99744353D01*
X230090292Y-99744353D02*
X230144167Y-99744353D01*
X230144167Y-99744353D02*
X230224979Y-99771290D01*
X230224979Y-99771290D02*
X230305791Y-99852103D01*
X230305791Y-99852103D02*
X230332728Y-99932915D01*
X230332728Y-99932915D02*
X230332728Y-99986790D01*
X230332728Y-99986790D02*
X230305791Y-100067602D01*
X230305791Y-100067602D02*
X230090292Y-100283101D01*
X230090292Y-100283101D02*
X229524606Y-99717416D01*
X229524606Y-99717416D02*
X229713168Y-99528854D01*
X229713168Y-99528854D02*
X229793980Y-99501916D01*
X229793980Y-99501916D02*
X229847855Y-99501916D01*
X229847855Y-99501916D02*
X229928667Y-99528854D01*
X229928667Y-99528854D02*
X229982542Y-99582729D01*
X229982542Y-99582729D02*
X230009480Y-99663541D01*
X230009480Y-99663541D02*
X230009480Y-99717416D01*
X230009480Y-99717416D02*
X229982542Y-99798228D01*
X229982542Y-99798228D02*
X229793980Y-99986790D01*
X230090292Y-99151730D02*
X230548228Y-99609666D01*
X230548228Y-99609666D02*
X230629040Y-99636603D01*
X230629040Y-99636603D02*
X230682915Y-99636603D01*
X230682915Y-99636603D02*
X230763727Y-99609666D01*
X230763727Y-99609666D02*
X230871476Y-99501916D01*
X230871476Y-99501916D02*
X230898414Y-99421104D01*
X230898414Y-99421104D02*
X230898414Y-99367229D01*
X230898414Y-99367229D02*
X230871476Y-99286417D01*
X230871476Y-99286417D02*
X230413541Y-98828481D01*
X231194725Y-99124793D02*
X231302475Y-99070918D01*
X231302475Y-99070918D02*
X231437162Y-98936231D01*
X231437162Y-98936231D02*
X231464099Y-98855419D01*
X231464099Y-98855419D02*
X231464099Y-98801544D01*
X231464099Y-98801544D02*
X231437162Y-98720732D01*
X231437162Y-98720732D02*
X231383287Y-98666857D01*
X231383287Y-98666857D02*
X231302475Y-98639920D01*
X231302475Y-98639920D02*
X231248600Y-98639920D01*
X231248600Y-98639920D02*
X231167788Y-98666857D01*
X231167788Y-98666857D02*
X231033101Y-98747669D01*
X231033101Y-98747669D02*
X230952288Y-98774607D01*
X230952288Y-98774607D02*
X230898414Y-98774607D01*
X230898414Y-98774607D02*
X230817601Y-98747669D01*
X230817601Y-98747669D02*
X230763727Y-98693794D01*
X230763727Y-98693794D02*
X230736789Y-98612982D01*
X230736789Y-98612982D02*
X230736789Y-98559107D01*
X230736789Y-98559107D02*
X230763727Y-98478295D01*
X230763727Y-98478295D02*
X230898414Y-98343608D01*
X230898414Y-98343608D02*
X231006163Y-98289733D01*
X202949513Y-145736384D02*
X202868701Y-145763321D01*
X202868701Y-145763321D02*
X202787889Y-145844133D01*
X202787889Y-145844133D02*
X202734014Y-145951883D01*
X202734014Y-145951883D02*
X202734014Y-146059632D01*
X202734014Y-146059632D02*
X202760951Y-146140445D01*
X202760951Y-146140445D02*
X202841764Y-146275132D01*
X202841764Y-146275132D02*
X202922576Y-146355944D01*
X202922576Y-146355944D02*
X203057263Y-146436756D01*
X203057263Y-146436756D02*
X203138075Y-146463693D01*
X203138075Y-146463693D02*
X203245825Y-146463693D01*
X203245825Y-146463693D02*
X203353574Y-146409819D01*
X203353574Y-146409819D02*
X203407449Y-146355944D01*
X203407449Y-146355944D02*
X203461324Y-146248194D01*
X203461324Y-146248194D02*
X203461324Y-146194319D01*
X203461324Y-146194319D02*
X203272762Y-146005758D01*
X203272762Y-146005758D02*
X203165012Y-146113507D01*
X203757635Y-146005758D02*
X203191950Y-145440072D01*
X203191950Y-145440072D02*
X203407449Y-145224573D01*
X203407449Y-145224573D02*
X203488261Y-145197636D01*
X203488261Y-145197636D02*
X203542136Y-145197636D01*
X203542136Y-145197636D02*
X203622948Y-145224573D01*
X203622948Y-145224573D02*
X203703760Y-145305385D01*
X203703760Y-145305385D02*
X203730698Y-145386197D01*
X203730698Y-145386197D02*
X203730698Y-145440072D01*
X203730698Y-145440072D02*
X203703760Y-145520884D01*
X203703760Y-145520884D02*
X203488261Y-145736384D01*
X204619632Y-145143761D02*
X204296383Y-145467010D01*
X204458008Y-145305385D02*
X203892322Y-144739700D01*
X203892322Y-144739700D02*
X203919260Y-144874387D01*
X203919260Y-144874387D02*
X203919260Y-144982136D01*
X203919260Y-144982136D02*
X203892322Y-145062948D01*
X204727382Y-144281764D02*
X205104505Y-144658887D01*
X204377196Y-144200951D02*
X204646570Y-144739700D01*
X204646570Y-144739700D02*
X204996756Y-144389513D01*
X229160579Y-113289565D02*
X229429953Y-113020191D01*
X229268329Y-113505064D02*
X228891205Y-112750817D01*
X228891205Y-112750817D02*
X229645452Y-113127940D01*
X229834014Y-112939379D02*
X229268329Y-112373693D01*
X229268329Y-112373693D02*
X229403016Y-112239006D01*
X229403016Y-112239006D02*
X229510765Y-112185132D01*
X229510765Y-112185132D02*
X229618515Y-112185132D01*
X229618515Y-112185132D02*
X229699327Y-112212069D01*
X229699327Y-112212069D02*
X229834014Y-112292881D01*
X229834014Y-112292881D02*
X229914826Y-112373693D01*
X229914826Y-112373693D02*
X229995638Y-112508380D01*
X229995638Y-112508380D02*
X230022576Y-112589193D01*
X230022576Y-112589193D02*
X230022576Y-112696942D01*
X230022576Y-112696942D02*
X229968701Y-112804692D01*
X229968701Y-112804692D02*
X229834014Y-112939379D01*
X230669073Y-111996570D02*
X230669073Y-112050445D01*
X230669073Y-112050445D02*
X230615199Y-112158194D01*
X230615199Y-112158194D02*
X230561324Y-112212069D01*
X230561324Y-112212069D02*
X230453574Y-112265944D01*
X230453574Y-112265944D02*
X230345825Y-112265944D01*
X230345825Y-112265944D02*
X230265012Y-112239006D01*
X230265012Y-112239006D02*
X230130325Y-112158194D01*
X230130325Y-112158194D02*
X230049513Y-112077382D01*
X230049513Y-112077382D02*
X229968701Y-111942695D01*
X229968701Y-111942695D02*
X229941764Y-111861883D01*
X229941764Y-111861883D02*
X229941764Y-111754133D01*
X229941764Y-111754133D02*
X229995638Y-111646383D01*
X229995638Y-111646383D02*
X230049513Y-111592509D01*
X230049513Y-111592509D02*
X230157263Y-111538634D01*
X230157263Y-111538634D02*
X230211138Y-111538634D01*
X230884573Y-111996570D02*
X231315571Y-111565571D01*
X230749886Y-110892136D02*
X231504133Y-111269260D01*
X231504133Y-111269260D02*
X231127009Y-110515013D01*
X232204505Y-110568888D02*
X231746569Y-110488075D01*
X231881256Y-110892136D02*
X231315571Y-110326451D01*
X231315571Y-110326451D02*
X231531070Y-110110952D01*
X231531070Y-110110952D02*
X231611882Y-110084014D01*
X231611882Y-110084014D02*
X231665757Y-110084014D01*
X231665757Y-110084014D02*
X231746569Y-110110952D01*
X231746569Y-110110952D02*
X231827382Y-110191764D01*
X231827382Y-110191764D02*
X231854319Y-110272576D01*
X231854319Y-110272576D02*
X231854319Y-110326451D01*
X231854319Y-110326451D02*
X231827382Y-110407263D01*
X231827382Y-110407263D02*
X231611882Y-110622762D01*
X232150630Y-110030139D02*
X232339192Y-109841578D01*
X232716316Y-110057077D02*
X232446942Y-110326451D01*
X232446942Y-110326451D02*
X231881256Y-109760765D01*
X231881256Y-109760765D02*
X232150630Y-109491391D01*
X232851003Y-109329767D02*
X232662441Y-109518329D01*
X232958753Y-109814640D02*
X232393067Y-109248955D01*
X232393067Y-109248955D02*
X232662441Y-108979581D01*
X203518888Y-125147009D02*
X203438075Y-125173946D01*
X203438075Y-125173946D02*
X203357263Y-125254759D01*
X203357263Y-125254759D02*
X203303388Y-125362508D01*
X203303388Y-125362508D02*
X203303388Y-125470258D01*
X203303388Y-125470258D02*
X203330326Y-125551070D01*
X203330326Y-125551070D02*
X203411138Y-125685757D01*
X203411138Y-125685757D02*
X203491950Y-125766569D01*
X203491950Y-125766569D02*
X203626637Y-125847382D01*
X203626637Y-125847382D02*
X203707449Y-125874319D01*
X203707449Y-125874319D02*
X203815199Y-125874319D01*
X203815199Y-125874319D02*
X203922949Y-125820444D01*
X203922949Y-125820444D02*
X203976823Y-125766569D01*
X203976823Y-125766569D02*
X204030698Y-125658820D01*
X204030698Y-125658820D02*
X204030698Y-125604945D01*
X204030698Y-125604945D02*
X203842136Y-125416383D01*
X203842136Y-125416383D02*
X203734387Y-125524133D01*
X204327010Y-125416383D02*
X203761324Y-124850698D01*
X203761324Y-124850698D02*
X203976823Y-124635198D01*
X203976823Y-124635198D02*
X204057636Y-124608261D01*
X204057636Y-124608261D02*
X204111510Y-124608261D01*
X204111510Y-124608261D02*
X204192323Y-124635198D01*
X204192323Y-124635198D02*
X204273135Y-124716011D01*
X204273135Y-124716011D02*
X204300072Y-124796823D01*
X204300072Y-124796823D02*
X204300072Y-124850698D01*
X204300072Y-124850698D02*
X204273135Y-124931510D01*
X204273135Y-124931510D02*
X204057636Y-125147009D01*
X204650258Y-124446637D02*
X204569446Y-124473574D01*
X204569446Y-124473574D02*
X204515571Y-124473574D01*
X204515571Y-124473574D02*
X204434759Y-124446637D01*
X204434759Y-124446637D02*
X204407822Y-124419699D01*
X204407822Y-124419699D02*
X204380884Y-124338887D01*
X204380884Y-124338887D02*
X204380884Y-124285012D01*
X204380884Y-124285012D02*
X204407822Y-124204200D01*
X204407822Y-124204200D02*
X204515571Y-124096450D01*
X204515571Y-124096450D02*
X204596384Y-124069513D01*
X204596384Y-124069513D02*
X204650258Y-124069513D01*
X204650258Y-124069513D02*
X204731071Y-124096450D01*
X204731071Y-124096450D02*
X204758008Y-124123388D01*
X204758008Y-124123388D02*
X204784945Y-124204200D01*
X204784945Y-124204200D02*
X204784945Y-124258075D01*
X204784945Y-124258075D02*
X204758008Y-124338887D01*
X204758008Y-124338887D02*
X204650258Y-124446637D01*
X204650258Y-124446637D02*
X204623321Y-124527449D01*
X204623321Y-124527449D02*
X204623321Y-124581324D01*
X204623321Y-124581324D02*
X204650258Y-124662136D01*
X204650258Y-124662136D02*
X204758008Y-124769885D01*
X204758008Y-124769885D02*
X204838820Y-124796823D01*
X204838820Y-124796823D02*
X204892695Y-124796823D01*
X204892695Y-124796823D02*
X204973507Y-124769885D01*
X204973507Y-124769885D02*
X205081257Y-124662136D01*
X205081257Y-124662136D02*
X205108194Y-124581324D01*
X205108194Y-124581324D02*
X205108194Y-124527449D01*
X205108194Y-124527449D02*
X205081257Y-124446637D01*
X205081257Y-124446637D02*
X204973507Y-124338887D01*
X204973507Y-124338887D02*
X204892695Y-124311950D01*
X204892695Y-124311950D02*
X204838820Y-124311950D01*
X204838820Y-124311950D02*
X204758008Y-124338887D01*
X202995513Y-133036384D02*
X202914701Y-133063321D01*
X202914701Y-133063321D02*
X202833889Y-133144133D01*
X202833889Y-133144133D02*
X202780014Y-133251883D01*
X202780014Y-133251883D02*
X202780014Y-133359632D01*
X202780014Y-133359632D02*
X202806951Y-133440445D01*
X202806951Y-133440445D02*
X202887764Y-133575132D01*
X202887764Y-133575132D02*
X202968576Y-133655944D01*
X202968576Y-133655944D02*
X203103263Y-133736756D01*
X203103263Y-133736756D02*
X203184075Y-133763693D01*
X203184075Y-133763693D02*
X203291825Y-133763693D01*
X203291825Y-133763693D02*
X203399574Y-133709819D01*
X203399574Y-133709819D02*
X203453449Y-133655944D01*
X203453449Y-133655944D02*
X203507324Y-133548194D01*
X203507324Y-133548194D02*
X203507324Y-133494319D01*
X203507324Y-133494319D02*
X203318762Y-133305758D01*
X203318762Y-133305758D02*
X203211012Y-133413507D01*
X203803635Y-133305758D02*
X203237950Y-132740072D01*
X203237950Y-132740072D02*
X203453449Y-132524573D01*
X203453449Y-132524573D02*
X203534261Y-132497636D01*
X203534261Y-132497636D02*
X203588136Y-132497636D01*
X203588136Y-132497636D02*
X203668948Y-132524573D01*
X203668948Y-132524573D02*
X203749760Y-132605385D01*
X203749760Y-132605385D02*
X203776698Y-132686197D01*
X203776698Y-132686197D02*
X203776698Y-132740072D01*
X203776698Y-132740072D02*
X203749760Y-132820884D01*
X203749760Y-132820884D02*
X203534261Y-133036384D01*
X204665632Y-132443761D02*
X204342383Y-132767010D01*
X204504008Y-132605385D02*
X203938322Y-132039700D01*
X203938322Y-132039700D02*
X203965260Y-132174387D01*
X203965260Y-132174387D02*
X203965260Y-132282136D01*
X203965260Y-132282136D02*
X203938322Y-132362948D01*
X204450133Y-131527889D02*
X204504008Y-131474014D01*
X204504008Y-131474014D02*
X204584820Y-131447077D01*
X204584820Y-131447077D02*
X204638695Y-131447077D01*
X204638695Y-131447077D02*
X204719507Y-131474014D01*
X204719507Y-131474014D02*
X204854194Y-131554826D01*
X204854194Y-131554826D02*
X204988881Y-131689513D01*
X204988881Y-131689513D02*
X205069693Y-131824200D01*
X205069693Y-131824200D02*
X205096631Y-131905013D01*
X205096631Y-131905013D02*
X205096631Y-131958887D01*
X205096631Y-131958887D02*
X205069693Y-132039700D01*
X205069693Y-132039700D02*
X205015818Y-132093574D01*
X205015818Y-132093574D02*
X204935006Y-132120512D01*
X204935006Y-132120512D02*
X204881131Y-132120512D01*
X204881131Y-132120512D02*
X204800319Y-132093574D01*
X204800319Y-132093574D02*
X204665632Y-132012762D01*
X204665632Y-132012762D02*
X204530945Y-131878075D01*
X204530945Y-131878075D02*
X204450133Y-131743388D01*
X204450133Y-131743388D02*
X204423196Y-131662576D01*
X204423196Y-131662576D02*
X204423196Y-131608701D01*
X204423196Y-131608701D02*
X204450133Y-131527889D01*
X229091950Y-142953946D02*
X229011138Y-142980884D01*
X229011138Y-142980884D02*
X228930326Y-143061696D01*
X228930326Y-143061696D02*
X228876451Y-143169446D01*
X228876451Y-143169446D02*
X228876451Y-143277195D01*
X228876451Y-143277195D02*
X228903389Y-143358007D01*
X228903389Y-143358007D02*
X228984201Y-143492694D01*
X228984201Y-143492694D02*
X229065013Y-143573507D01*
X229065013Y-143573507D02*
X229199700Y-143654319D01*
X229199700Y-143654319D02*
X229280512Y-143681256D01*
X229280512Y-143681256D02*
X229388262Y-143681256D01*
X229388262Y-143681256D02*
X229496011Y-143627381D01*
X229496011Y-143627381D02*
X229549886Y-143573507D01*
X229549886Y-143573507D02*
X229603761Y-143465757D01*
X229603761Y-143465757D02*
X229603761Y-143411882D01*
X229603761Y-143411882D02*
X229415199Y-143223320D01*
X229415199Y-143223320D02*
X229307450Y-143331070D01*
X229900072Y-143223320D02*
X229334387Y-142657635D01*
X229334387Y-142657635D02*
X230223321Y-142900072D01*
X230223321Y-142900072D02*
X229657636Y-142334386D01*
X230492695Y-142630698D02*
X229927010Y-142065012D01*
X229927010Y-142065012D02*
X230061697Y-141930325D01*
X230061697Y-141930325D02*
X230169446Y-141876450D01*
X230169446Y-141876450D02*
X230277196Y-141876450D01*
X230277196Y-141876450D02*
X230358008Y-141903388D01*
X230358008Y-141903388D02*
X230492695Y-141984200D01*
X230492695Y-141984200D02*
X230573507Y-142065012D01*
X230573507Y-142065012D02*
X230654319Y-142199699D01*
X230654319Y-142199699D02*
X230681257Y-142280511D01*
X230681257Y-142280511D02*
X230681257Y-142388261D01*
X230681257Y-142388261D02*
X230627382Y-142496011D01*
X230627382Y-142496011D02*
X230492695Y-142630698D01*
X229103513Y-133046384D02*
X229022701Y-133073321D01*
X229022701Y-133073321D02*
X228941889Y-133154133D01*
X228941889Y-133154133D02*
X228888014Y-133261883D01*
X228888014Y-133261883D02*
X228888014Y-133369632D01*
X228888014Y-133369632D02*
X228914951Y-133450445D01*
X228914951Y-133450445D02*
X228995764Y-133585132D01*
X228995764Y-133585132D02*
X229076576Y-133665944D01*
X229076576Y-133665944D02*
X229211263Y-133746756D01*
X229211263Y-133746756D02*
X229292075Y-133773693D01*
X229292075Y-133773693D02*
X229399825Y-133773693D01*
X229399825Y-133773693D02*
X229507574Y-133719819D01*
X229507574Y-133719819D02*
X229561449Y-133665944D01*
X229561449Y-133665944D02*
X229615324Y-133558194D01*
X229615324Y-133558194D02*
X229615324Y-133504319D01*
X229615324Y-133504319D02*
X229426762Y-133315758D01*
X229426762Y-133315758D02*
X229319012Y-133423507D01*
X229911635Y-133315758D02*
X229345950Y-132750072D01*
X229345950Y-132750072D02*
X229561449Y-132534573D01*
X229561449Y-132534573D02*
X229642261Y-132507636D01*
X229642261Y-132507636D02*
X229696136Y-132507636D01*
X229696136Y-132507636D02*
X229776948Y-132534573D01*
X229776948Y-132534573D02*
X229857760Y-132615385D01*
X229857760Y-132615385D02*
X229884698Y-132696197D01*
X229884698Y-132696197D02*
X229884698Y-132750072D01*
X229884698Y-132750072D02*
X229857760Y-132830884D01*
X229857760Y-132830884D02*
X229642261Y-133046384D01*
X229938573Y-132265199D02*
X229938573Y-132211324D01*
X229938573Y-132211324D02*
X229965510Y-132130512D01*
X229965510Y-132130512D02*
X230100197Y-131995825D01*
X230100197Y-131995825D02*
X230181009Y-131968887D01*
X230181009Y-131968887D02*
X230234884Y-131968887D01*
X230234884Y-131968887D02*
X230315696Y-131995825D01*
X230315696Y-131995825D02*
X230369571Y-132049700D01*
X230369571Y-132049700D02*
X230423446Y-132157449D01*
X230423446Y-132157449D02*
X230423446Y-132803947D01*
X230423446Y-132803947D02*
X230773632Y-132453761D01*
X231312380Y-131915013D02*
X230989131Y-132238261D01*
X231150756Y-132076637D02*
X230585070Y-131510951D01*
X230585070Y-131510951D02*
X230612008Y-131645638D01*
X230612008Y-131645638D02*
X230612008Y-131753388D01*
X230612008Y-131753388D02*
X230585070Y-131834200D01*
X229103513Y-140656384D02*
X229022701Y-140683321D01*
X229022701Y-140683321D02*
X228941889Y-140764133D01*
X228941889Y-140764133D02*
X228888014Y-140871883D01*
X228888014Y-140871883D02*
X228888014Y-140979632D01*
X228888014Y-140979632D02*
X228914951Y-141060445D01*
X228914951Y-141060445D02*
X228995764Y-141195132D01*
X228995764Y-141195132D02*
X229076576Y-141275944D01*
X229076576Y-141275944D02*
X229211263Y-141356756D01*
X229211263Y-141356756D02*
X229292075Y-141383693D01*
X229292075Y-141383693D02*
X229399825Y-141383693D01*
X229399825Y-141383693D02*
X229507574Y-141329819D01*
X229507574Y-141329819D02*
X229561449Y-141275944D01*
X229561449Y-141275944D02*
X229615324Y-141168194D01*
X229615324Y-141168194D02*
X229615324Y-141114319D01*
X229615324Y-141114319D02*
X229426762Y-140925758D01*
X229426762Y-140925758D02*
X229319012Y-141033507D01*
X229911635Y-140925758D02*
X229345950Y-140360072D01*
X229345950Y-140360072D02*
X229561449Y-140144573D01*
X229561449Y-140144573D02*
X229642261Y-140117636D01*
X229642261Y-140117636D02*
X229696136Y-140117636D01*
X229696136Y-140117636D02*
X229776948Y-140144573D01*
X229776948Y-140144573D02*
X229857760Y-140225385D01*
X229857760Y-140225385D02*
X229884698Y-140306197D01*
X229884698Y-140306197D02*
X229884698Y-140360072D01*
X229884698Y-140360072D02*
X229857760Y-140440884D01*
X229857760Y-140440884D02*
X229642261Y-140656384D01*
X230773632Y-140063761D02*
X230450383Y-140387010D01*
X230612008Y-140225385D02*
X230046322Y-139659700D01*
X230046322Y-139659700D02*
X230073260Y-139794387D01*
X230073260Y-139794387D02*
X230073260Y-139902136D01*
X230073260Y-139902136D02*
X230046322Y-139982948D01*
X230773632Y-139417263D02*
X230692820Y-139444200D01*
X230692820Y-139444200D02*
X230638945Y-139444200D01*
X230638945Y-139444200D02*
X230558133Y-139417263D01*
X230558133Y-139417263D02*
X230531196Y-139390326D01*
X230531196Y-139390326D02*
X230504258Y-139309513D01*
X230504258Y-139309513D02*
X230504258Y-139255638D01*
X230504258Y-139255638D02*
X230531196Y-139174826D01*
X230531196Y-139174826D02*
X230638945Y-139067077D01*
X230638945Y-139067077D02*
X230719757Y-139040139D01*
X230719757Y-139040139D02*
X230773632Y-139040139D01*
X230773632Y-139040139D02*
X230854444Y-139067077D01*
X230854444Y-139067077D02*
X230881382Y-139094014D01*
X230881382Y-139094014D02*
X230908319Y-139174826D01*
X230908319Y-139174826D02*
X230908319Y-139228701D01*
X230908319Y-139228701D02*
X230881382Y-139309513D01*
X230881382Y-139309513D02*
X230773632Y-139417263D01*
X230773632Y-139417263D02*
X230746695Y-139498075D01*
X230746695Y-139498075D02*
X230746695Y-139551950D01*
X230746695Y-139551950D02*
X230773632Y-139632762D01*
X230773632Y-139632762D02*
X230881382Y-139740512D01*
X230881382Y-139740512D02*
X230962194Y-139767449D01*
X230962194Y-139767449D02*
X231016069Y-139767449D01*
X231016069Y-139767449D02*
X231096881Y-139740512D01*
X231096881Y-139740512D02*
X231204631Y-139632762D01*
X231204631Y-139632762D02*
X231231568Y-139551950D01*
X231231568Y-139551950D02*
X231231568Y-139498075D01*
X231231568Y-139498075D02*
X231204631Y-139417263D01*
X231204631Y-139417263D02*
X231096881Y-139309513D01*
X231096881Y-139309513D02*
X231016069Y-139282576D01*
X231016069Y-139282576D02*
X230962194Y-139282576D01*
X230962194Y-139282576D02*
X230881382Y-139309513D01*
X229103513Y-138116384D02*
X229022701Y-138143321D01*
X229022701Y-138143321D02*
X228941889Y-138224133D01*
X228941889Y-138224133D02*
X228888014Y-138331883D01*
X228888014Y-138331883D02*
X228888014Y-138439632D01*
X228888014Y-138439632D02*
X228914951Y-138520445D01*
X228914951Y-138520445D02*
X228995764Y-138655132D01*
X228995764Y-138655132D02*
X229076576Y-138735944D01*
X229076576Y-138735944D02*
X229211263Y-138816756D01*
X229211263Y-138816756D02*
X229292075Y-138843693D01*
X229292075Y-138843693D02*
X229399825Y-138843693D01*
X229399825Y-138843693D02*
X229507574Y-138789819D01*
X229507574Y-138789819D02*
X229561449Y-138735944D01*
X229561449Y-138735944D02*
X229615324Y-138628194D01*
X229615324Y-138628194D02*
X229615324Y-138574319D01*
X229615324Y-138574319D02*
X229426762Y-138385758D01*
X229426762Y-138385758D02*
X229319012Y-138493507D01*
X229911635Y-138385758D02*
X229345950Y-137820072D01*
X229345950Y-137820072D02*
X229561449Y-137604573D01*
X229561449Y-137604573D02*
X229642261Y-137577636D01*
X229642261Y-137577636D02*
X229696136Y-137577636D01*
X229696136Y-137577636D02*
X229776948Y-137604573D01*
X229776948Y-137604573D02*
X229857760Y-137685385D01*
X229857760Y-137685385D02*
X229884698Y-137766197D01*
X229884698Y-137766197D02*
X229884698Y-137820072D01*
X229884698Y-137820072D02*
X229857760Y-137900884D01*
X229857760Y-137900884D02*
X229642261Y-138116384D01*
X230773632Y-137523761D02*
X230450383Y-137847010D01*
X230612008Y-137685385D02*
X230046322Y-137119700D01*
X230046322Y-137119700D02*
X230073260Y-137254387D01*
X230073260Y-137254387D02*
X230073260Y-137362136D01*
X230073260Y-137362136D02*
X230046322Y-137442948D01*
X231043006Y-137254387D02*
X231150756Y-137146637D01*
X231150756Y-137146637D02*
X231177693Y-137065825D01*
X231177693Y-137065825D02*
X231177693Y-137011950D01*
X231177693Y-137011950D02*
X231150756Y-136877263D01*
X231150756Y-136877263D02*
X231069944Y-136742576D01*
X231069944Y-136742576D02*
X230854444Y-136527077D01*
X230854444Y-136527077D02*
X230773632Y-136500139D01*
X230773632Y-136500139D02*
X230719757Y-136500139D01*
X230719757Y-136500139D02*
X230638945Y-136527077D01*
X230638945Y-136527077D02*
X230531196Y-136634826D01*
X230531196Y-136634826D02*
X230504258Y-136715638D01*
X230504258Y-136715638D02*
X230504258Y-136769513D01*
X230504258Y-136769513D02*
X230531196Y-136850326D01*
X230531196Y-136850326D02*
X230665883Y-136985013D01*
X230665883Y-136985013D02*
X230746695Y-137011950D01*
X230746695Y-137011950D02*
X230800570Y-137011950D01*
X230800570Y-137011950D02*
X230881382Y-136985013D01*
X230881382Y-136985013D02*
X230989131Y-136877263D01*
X230989131Y-136877263D02*
X231016069Y-136796451D01*
X231016069Y-136796451D02*
X231016069Y-136742576D01*
X231016069Y-136742576D02*
X230989131Y-136661764D01*
X229103513Y-135576384D02*
X229022701Y-135603321D01*
X229022701Y-135603321D02*
X228941889Y-135684133D01*
X228941889Y-135684133D02*
X228888014Y-135791883D01*
X228888014Y-135791883D02*
X228888014Y-135899632D01*
X228888014Y-135899632D02*
X228914951Y-135980445D01*
X228914951Y-135980445D02*
X228995764Y-136115132D01*
X228995764Y-136115132D02*
X229076576Y-136195944D01*
X229076576Y-136195944D02*
X229211263Y-136276756D01*
X229211263Y-136276756D02*
X229292075Y-136303693D01*
X229292075Y-136303693D02*
X229399825Y-136303693D01*
X229399825Y-136303693D02*
X229507574Y-136249819D01*
X229507574Y-136249819D02*
X229561449Y-136195944D01*
X229561449Y-136195944D02*
X229615324Y-136088194D01*
X229615324Y-136088194D02*
X229615324Y-136034319D01*
X229615324Y-136034319D02*
X229426762Y-135845758D01*
X229426762Y-135845758D02*
X229319012Y-135953507D01*
X229911635Y-135845758D02*
X229345950Y-135280072D01*
X229345950Y-135280072D02*
X229561449Y-135064573D01*
X229561449Y-135064573D02*
X229642261Y-135037636D01*
X229642261Y-135037636D02*
X229696136Y-135037636D01*
X229696136Y-135037636D02*
X229776948Y-135064573D01*
X229776948Y-135064573D02*
X229857760Y-135145385D01*
X229857760Y-135145385D02*
X229884698Y-135226197D01*
X229884698Y-135226197D02*
X229884698Y-135280072D01*
X229884698Y-135280072D02*
X229857760Y-135360884D01*
X229857760Y-135360884D02*
X229642261Y-135576384D01*
X229938573Y-134795199D02*
X229938573Y-134741324D01*
X229938573Y-134741324D02*
X229965510Y-134660512D01*
X229965510Y-134660512D02*
X230100197Y-134525825D01*
X230100197Y-134525825D02*
X230181009Y-134498887D01*
X230181009Y-134498887D02*
X230234884Y-134498887D01*
X230234884Y-134498887D02*
X230315696Y-134525825D01*
X230315696Y-134525825D02*
X230369571Y-134579700D01*
X230369571Y-134579700D02*
X230423446Y-134687449D01*
X230423446Y-134687449D02*
X230423446Y-135333947D01*
X230423446Y-135333947D02*
X230773632Y-134983761D01*
X230558133Y-134067889D02*
X230612008Y-134014014D01*
X230612008Y-134014014D02*
X230692820Y-133987077D01*
X230692820Y-133987077D02*
X230746695Y-133987077D01*
X230746695Y-133987077D02*
X230827507Y-134014014D01*
X230827507Y-134014014D02*
X230962194Y-134094826D01*
X230962194Y-134094826D02*
X231096881Y-134229513D01*
X231096881Y-134229513D02*
X231177693Y-134364200D01*
X231177693Y-134364200D02*
X231204631Y-134445013D01*
X231204631Y-134445013D02*
X231204631Y-134498887D01*
X231204631Y-134498887D02*
X231177693Y-134579700D01*
X231177693Y-134579700D02*
X231123818Y-134633574D01*
X231123818Y-134633574D02*
X231043006Y-134660512D01*
X231043006Y-134660512D02*
X230989131Y-134660512D01*
X230989131Y-134660512D02*
X230908319Y-134633574D01*
X230908319Y-134633574D02*
X230773632Y-134552762D01*
X230773632Y-134552762D02*
X230638945Y-134418075D01*
X230638945Y-134418075D02*
X230558133Y-134283388D01*
X230558133Y-134283388D02*
X230531196Y-134202576D01*
X230531196Y-134202576D02*
X230531196Y-134148701D01*
X230531196Y-134148701D02*
X230558133Y-134067889D01*
X203618888Y-122577009D02*
X203538075Y-122603946D01*
X203538075Y-122603946D02*
X203457263Y-122684759D01*
X203457263Y-122684759D02*
X203403388Y-122792508D01*
X203403388Y-122792508D02*
X203403388Y-122900258D01*
X203403388Y-122900258D02*
X203430326Y-122981070D01*
X203430326Y-122981070D02*
X203511138Y-123115757D01*
X203511138Y-123115757D02*
X203591950Y-123196569D01*
X203591950Y-123196569D02*
X203726637Y-123277382D01*
X203726637Y-123277382D02*
X203807449Y-123304319D01*
X203807449Y-123304319D02*
X203915199Y-123304319D01*
X203915199Y-123304319D02*
X204022949Y-123250444D01*
X204022949Y-123250444D02*
X204076823Y-123196569D01*
X204076823Y-123196569D02*
X204130698Y-123088820D01*
X204130698Y-123088820D02*
X204130698Y-123034945D01*
X204130698Y-123034945D02*
X203942136Y-122846383D01*
X203942136Y-122846383D02*
X203834387Y-122954133D01*
X204427010Y-122846383D02*
X203861324Y-122280698D01*
X203861324Y-122280698D02*
X204076823Y-122065198D01*
X204076823Y-122065198D02*
X204157636Y-122038261D01*
X204157636Y-122038261D02*
X204211510Y-122038261D01*
X204211510Y-122038261D02*
X204292323Y-122065198D01*
X204292323Y-122065198D02*
X204373135Y-122146011D01*
X204373135Y-122146011D02*
X204400072Y-122226823D01*
X204400072Y-122226823D02*
X204400072Y-122280698D01*
X204400072Y-122280698D02*
X204373135Y-122361510D01*
X204373135Y-122361510D02*
X204157636Y-122577009D01*
X204373135Y-121768887D02*
X204750258Y-121391763D01*
X204750258Y-121391763D02*
X205073507Y-122199885D01*
X209490475Y-150282000D02*
X209604761Y-150320095D01*
X209604761Y-150320095D02*
X209795237Y-150320095D01*
X209795237Y-150320095D02*
X209871428Y-150282000D01*
X209871428Y-150282000D02*
X209909523Y-150243904D01*
X209909523Y-150243904D02*
X209947618Y-150167714D01*
X209947618Y-150167714D02*
X209947618Y-150091523D01*
X209947618Y-150091523D02*
X209909523Y-150015333D01*
X209909523Y-150015333D02*
X209871428Y-149977238D01*
X209871428Y-149977238D02*
X209795237Y-149939142D01*
X209795237Y-149939142D02*
X209642856Y-149901047D01*
X209642856Y-149901047D02*
X209566666Y-149862952D01*
X209566666Y-149862952D02*
X209528571Y-149824857D01*
X209528571Y-149824857D02*
X209490475Y-149748666D01*
X209490475Y-149748666D02*
X209490475Y-149672476D01*
X209490475Y-149672476D02*
X209528571Y-149596285D01*
X209528571Y-149596285D02*
X209566666Y-149558190D01*
X209566666Y-149558190D02*
X209642856Y-149520095D01*
X209642856Y-149520095D02*
X209833333Y-149520095D01*
X209833333Y-149520095D02*
X209947618Y-149558190D01*
X210214285Y-149520095D02*
X210404761Y-150320095D01*
X210404761Y-150320095D02*
X210557142Y-149748666D01*
X210557142Y-149748666D02*
X210709523Y-150320095D01*
X210709523Y-150320095D02*
X210900000Y-149520095D01*
X211661905Y-150243904D02*
X211623809Y-150282000D01*
X211623809Y-150282000D02*
X211509524Y-150320095D01*
X211509524Y-150320095D02*
X211433333Y-150320095D01*
X211433333Y-150320095D02*
X211319047Y-150282000D01*
X211319047Y-150282000D02*
X211242857Y-150205809D01*
X211242857Y-150205809D02*
X211204762Y-150129619D01*
X211204762Y-150129619D02*
X211166666Y-149977238D01*
X211166666Y-149977238D02*
X211166666Y-149862952D01*
X211166666Y-149862952D02*
X211204762Y-149710571D01*
X211204762Y-149710571D02*
X211242857Y-149634380D01*
X211242857Y-149634380D02*
X211319047Y-149558190D01*
X211319047Y-149558190D02*
X211433333Y-149520095D01*
X211433333Y-149520095D02*
X211509524Y-149520095D01*
X211509524Y-149520095D02*
X211623809Y-149558190D01*
X211623809Y-149558190D02*
X211661905Y-149596285D01*
X212385714Y-150320095D02*
X212004762Y-150320095D01*
X212004762Y-150320095D02*
X212004762Y-149520095D01*
X212652381Y-150320095D02*
X212652381Y-149520095D01*
X213109524Y-150320095D02*
X212766666Y-149862952D01*
X213109524Y-149520095D02*
X212652381Y-149977238D01*
X229103513Y-115002384D02*
X229022701Y-115029321D01*
X229022701Y-115029321D02*
X228941889Y-115110133D01*
X228941889Y-115110133D02*
X228888014Y-115217883D01*
X228888014Y-115217883D02*
X228888014Y-115325632D01*
X228888014Y-115325632D02*
X228914951Y-115406445D01*
X228914951Y-115406445D02*
X228995764Y-115541132D01*
X228995764Y-115541132D02*
X229076576Y-115621944D01*
X229076576Y-115621944D02*
X229211263Y-115702756D01*
X229211263Y-115702756D02*
X229292075Y-115729693D01*
X229292075Y-115729693D02*
X229399825Y-115729693D01*
X229399825Y-115729693D02*
X229507574Y-115675819D01*
X229507574Y-115675819D02*
X229561449Y-115621944D01*
X229561449Y-115621944D02*
X229615324Y-115514194D01*
X229615324Y-115514194D02*
X229615324Y-115460319D01*
X229615324Y-115460319D02*
X229426762Y-115271758D01*
X229426762Y-115271758D02*
X229319012Y-115379507D01*
X229911635Y-115271758D02*
X229345950Y-114706072D01*
X229345950Y-114706072D02*
X229561449Y-114490573D01*
X229561449Y-114490573D02*
X229642261Y-114463636D01*
X229642261Y-114463636D02*
X229696136Y-114463636D01*
X229696136Y-114463636D02*
X229776948Y-114490573D01*
X229776948Y-114490573D02*
X229857760Y-114571385D01*
X229857760Y-114571385D02*
X229884698Y-114652197D01*
X229884698Y-114652197D02*
X229884698Y-114706072D01*
X229884698Y-114706072D02*
X229857760Y-114786884D01*
X229857760Y-114786884D02*
X229642261Y-115002384D01*
X229938573Y-114221199D02*
X229938573Y-114167324D01*
X229938573Y-114167324D02*
X229965510Y-114086512D01*
X229965510Y-114086512D02*
X230100197Y-113951825D01*
X230100197Y-113951825D02*
X230181009Y-113924887D01*
X230181009Y-113924887D02*
X230234884Y-113924887D01*
X230234884Y-113924887D02*
X230315696Y-113951825D01*
X230315696Y-113951825D02*
X230369571Y-114005700D01*
X230369571Y-114005700D02*
X230423446Y-114113449D01*
X230423446Y-114113449D02*
X230423446Y-114759947D01*
X230423446Y-114759947D02*
X230773632Y-114409761D01*
X230773632Y-113763263D02*
X230692820Y-113790200D01*
X230692820Y-113790200D02*
X230638945Y-113790200D01*
X230638945Y-113790200D02*
X230558133Y-113763263D01*
X230558133Y-113763263D02*
X230531196Y-113736326D01*
X230531196Y-113736326D02*
X230504258Y-113655513D01*
X230504258Y-113655513D02*
X230504258Y-113601638D01*
X230504258Y-113601638D02*
X230531196Y-113520826D01*
X230531196Y-113520826D02*
X230638945Y-113413077D01*
X230638945Y-113413077D02*
X230719757Y-113386139D01*
X230719757Y-113386139D02*
X230773632Y-113386139D01*
X230773632Y-113386139D02*
X230854444Y-113413077D01*
X230854444Y-113413077D02*
X230881382Y-113440014D01*
X230881382Y-113440014D02*
X230908319Y-113520826D01*
X230908319Y-113520826D02*
X230908319Y-113574701D01*
X230908319Y-113574701D02*
X230881382Y-113655513D01*
X230881382Y-113655513D02*
X230773632Y-113763263D01*
X230773632Y-113763263D02*
X230746695Y-113844075D01*
X230746695Y-113844075D02*
X230746695Y-113897950D01*
X230746695Y-113897950D02*
X230773632Y-113978762D01*
X230773632Y-113978762D02*
X230881382Y-114086512D01*
X230881382Y-114086512D02*
X230962194Y-114113449D01*
X230962194Y-114113449D02*
X231016069Y-114113449D01*
X231016069Y-114113449D02*
X231096881Y-114086512D01*
X231096881Y-114086512D02*
X231204631Y-113978762D01*
X231204631Y-113978762D02*
X231231568Y-113897950D01*
X231231568Y-113897950D02*
X231231568Y-113844075D01*
X231231568Y-113844075D02*
X231204631Y-113763263D01*
X231204631Y-113763263D02*
X231096881Y-113655513D01*
X231096881Y-113655513D02*
X231016069Y-113628576D01*
X231016069Y-113628576D02*
X230962194Y-113628576D01*
X230962194Y-113628576D02*
X230881382Y-113655513D01*
X202995513Y-140656384D02*
X202914701Y-140683321D01*
X202914701Y-140683321D02*
X202833889Y-140764133D01*
X202833889Y-140764133D02*
X202780014Y-140871883D01*
X202780014Y-140871883D02*
X202780014Y-140979632D01*
X202780014Y-140979632D02*
X202806951Y-141060445D01*
X202806951Y-141060445D02*
X202887764Y-141195132D01*
X202887764Y-141195132D02*
X202968576Y-141275944D01*
X202968576Y-141275944D02*
X203103263Y-141356756D01*
X203103263Y-141356756D02*
X203184075Y-141383693D01*
X203184075Y-141383693D02*
X203291825Y-141383693D01*
X203291825Y-141383693D02*
X203399574Y-141329819D01*
X203399574Y-141329819D02*
X203453449Y-141275944D01*
X203453449Y-141275944D02*
X203507324Y-141168194D01*
X203507324Y-141168194D02*
X203507324Y-141114319D01*
X203507324Y-141114319D02*
X203318762Y-140925758D01*
X203318762Y-140925758D02*
X203211012Y-141033507D01*
X203803635Y-140925758D02*
X203237950Y-140360072D01*
X203237950Y-140360072D02*
X203453449Y-140144573D01*
X203453449Y-140144573D02*
X203534261Y-140117636D01*
X203534261Y-140117636D02*
X203588136Y-140117636D01*
X203588136Y-140117636D02*
X203668948Y-140144573D01*
X203668948Y-140144573D02*
X203749760Y-140225385D01*
X203749760Y-140225385D02*
X203776698Y-140306197D01*
X203776698Y-140306197D02*
X203776698Y-140360072D01*
X203776698Y-140360072D02*
X203749760Y-140440884D01*
X203749760Y-140440884D02*
X203534261Y-140656384D01*
X204665632Y-140063761D02*
X204342383Y-140387010D01*
X204504008Y-140225385D02*
X203938322Y-139659700D01*
X203938322Y-139659700D02*
X203965260Y-139794387D01*
X203965260Y-139794387D02*
X203965260Y-139902136D01*
X203965260Y-139902136D02*
X203938322Y-139982948D01*
X204288509Y-139309513D02*
X204638695Y-138959327D01*
X204638695Y-138959327D02*
X204665632Y-139363388D01*
X204665632Y-139363388D02*
X204746444Y-139282576D01*
X204746444Y-139282576D02*
X204827257Y-139255638D01*
X204827257Y-139255638D02*
X204881131Y-139255638D01*
X204881131Y-139255638D02*
X204961944Y-139282576D01*
X204961944Y-139282576D02*
X205096631Y-139417263D01*
X205096631Y-139417263D02*
X205123568Y-139498075D01*
X205123568Y-139498075D02*
X205123568Y-139551950D01*
X205123568Y-139551950D02*
X205096631Y-139632762D01*
X205096631Y-139632762D02*
X204935006Y-139794387D01*
X204935006Y-139794387D02*
X204854194Y-139821324D01*
X204854194Y-139821324D02*
X204800319Y-139821324D01*
X220904761Y-150282000D02*
X221019047Y-150320095D01*
X221019047Y-150320095D02*
X221209523Y-150320095D01*
X221209523Y-150320095D02*
X221285714Y-150282000D01*
X221285714Y-150282000D02*
X221323809Y-150243904D01*
X221323809Y-150243904D02*
X221361904Y-150167714D01*
X221361904Y-150167714D02*
X221361904Y-150091523D01*
X221361904Y-150091523D02*
X221323809Y-150015333D01*
X221323809Y-150015333D02*
X221285714Y-149977238D01*
X221285714Y-149977238D02*
X221209523Y-149939142D01*
X221209523Y-149939142D02*
X221057142Y-149901047D01*
X221057142Y-149901047D02*
X220980952Y-149862952D01*
X220980952Y-149862952D02*
X220942857Y-149824857D01*
X220942857Y-149824857D02*
X220904761Y-149748666D01*
X220904761Y-149748666D02*
X220904761Y-149672476D01*
X220904761Y-149672476D02*
X220942857Y-149596285D01*
X220942857Y-149596285D02*
X220980952Y-149558190D01*
X220980952Y-149558190D02*
X221057142Y-149520095D01*
X221057142Y-149520095D02*
X221247619Y-149520095D01*
X221247619Y-149520095D02*
X221361904Y-149558190D01*
X221628571Y-149520095D02*
X221819047Y-150320095D01*
X221819047Y-150320095D02*
X221971428Y-149748666D01*
X221971428Y-149748666D02*
X222123809Y-150320095D01*
X222123809Y-150320095D02*
X222314286Y-149520095D01*
X222619048Y-150320095D02*
X222619048Y-149520095D01*
X222619048Y-149520095D02*
X222809524Y-149520095D01*
X222809524Y-149520095D02*
X222923810Y-149558190D01*
X222923810Y-149558190D02*
X223000000Y-149634380D01*
X223000000Y-149634380D02*
X223038095Y-149710571D01*
X223038095Y-149710571D02*
X223076191Y-149862952D01*
X223076191Y-149862952D02*
X223076191Y-149977238D01*
X223076191Y-149977238D02*
X223038095Y-150129619D01*
X223038095Y-150129619D02*
X223000000Y-150205809D01*
X223000000Y-150205809D02*
X222923810Y-150282000D01*
X222923810Y-150282000D02*
X222809524Y-150320095D01*
X222809524Y-150320095D02*
X222619048Y-150320095D01*
X223419048Y-150320095D02*
X223419048Y-149520095D01*
X223952381Y-149520095D02*
X224104762Y-149520095D01*
X224104762Y-149520095D02*
X224180952Y-149558190D01*
X224180952Y-149558190D02*
X224257143Y-149634380D01*
X224257143Y-149634380D02*
X224295238Y-149786761D01*
X224295238Y-149786761D02*
X224295238Y-150053428D01*
X224295238Y-150053428D02*
X224257143Y-150205809D01*
X224257143Y-150205809D02*
X224180952Y-150282000D01*
X224180952Y-150282000D02*
X224104762Y-150320095D01*
X224104762Y-150320095D02*
X223952381Y-150320095D01*
X223952381Y-150320095D02*
X223876190Y-150282000D01*
X223876190Y-150282000D02*
X223800000Y-150205809D01*
X223800000Y-150205809D02*
X223761904Y-150053428D01*
X223761904Y-150053428D02*
X223761904Y-149786761D01*
X223761904Y-149786761D02*
X223800000Y-149634380D01*
X223800000Y-149634380D02*
X223876190Y-149558190D01*
X223876190Y-149558190D02*
X223952381Y-149520095D01*
X229844167Y-125699226D02*
X229386231Y-125618414D01*
X229520918Y-126022475D02*
X228955233Y-125456789D01*
X228955233Y-125456789D02*
X229170732Y-125241290D01*
X229170732Y-125241290D02*
X229251544Y-125214353D01*
X229251544Y-125214353D02*
X229305419Y-125214353D01*
X229305419Y-125214353D02*
X229386231Y-125241290D01*
X229386231Y-125241290D02*
X229467043Y-125322102D01*
X229467043Y-125322102D02*
X229493981Y-125402914D01*
X229493981Y-125402914D02*
X229493981Y-125456789D01*
X229493981Y-125456789D02*
X229467043Y-125537601D01*
X229467043Y-125537601D02*
X229251544Y-125753101D01*
X229520918Y-124891104D02*
X229978854Y-125349040D01*
X229978854Y-125349040D02*
X230059666Y-125375977D01*
X230059666Y-125375977D02*
X230113541Y-125375977D01*
X230113541Y-125375977D02*
X230194353Y-125349040D01*
X230194353Y-125349040D02*
X230302103Y-125241290D01*
X230302103Y-125241290D02*
X230329040Y-125160478D01*
X230329040Y-125160478D02*
X230329040Y-125106603D01*
X230329040Y-125106603D02*
X230302103Y-125025791D01*
X230302103Y-125025791D02*
X229844167Y-124567855D01*
X230679226Y-124864167D02*
X230113541Y-124298481D01*
X230113541Y-124298481D02*
X231002475Y-124540918D01*
X231002475Y-124540918D02*
X230436789Y-123975232D01*
X229103513Y-122876384D02*
X229022701Y-122903321D01*
X229022701Y-122903321D02*
X228941889Y-122984133D01*
X228941889Y-122984133D02*
X228888014Y-123091883D01*
X228888014Y-123091883D02*
X228888014Y-123199632D01*
X228888014Y-123199632D02*
X228914951Y-123280445D01*
X228914951Y-123280445D02*
X228995764Y-123415132D01*
X228995764Y-123415132D02*
X229076576Y-123495944D01*
X229076576Y-123495944D02*
X229211263Y-123576756D01*
X229211263Y-123576756D02*
X229292075Y-123603693D01*
X229292075Y-123603693D02*
X229399825Y-123603693D01*
X229399825Y-123603693D02*
X229507574Y-123549819D01*
X229507574Y-123549819D02*
X229561449Y-123495944D01*
X229561449Y-123495944D02*
X229615324Y-123388194D01*
X229615324Y-123388194D02*
X229615324Y-123334319D01*
X229615324Y-123334319D02*
X229426762Y-123145758D01*
X229426762Y-123145758D02*
X229319012Y-123253507D01*
X229911635Y-123145758D02*
X229345950Y-122580072D01*
X229345950Y-122580072D02*
X229561449Y-122364573D01*
X229561449Y-122364573D02*
X229642261Y-122337636D01*
X229642261Y-122337636D02*
X229696136Y-122337636D01*
X229696136Y-122337636D02*
X229776948Y-122364573D01*
X229776948Y-122364573D02*
X229857760Y-122445385D01*
X229857760Y-122445385D02*
X229884698Y-122526197D01*
X229884698Y-122526197D02*
X229884698Y-122580072D01*
X229884698Y-122580072D02*
X229857760Y-122660884D01*
X229857760Y-122660884D02*
X229642261Y-122876384D01*
X229938573Y-122095199D02*
X229938573Y-122041324D01*
X229938573Y-122041324D02*
X229965510Y-121960512D01*
X229965510Y-121960512D02*
X230100197Y-121825825D01*
X230100197Y-121825825D02*
X230181009Y-121798887D01*
X230181009Y-121798887D02*
X230234884Y-121798887D01*
X230234884Y-121798887D02*
X230315696Y-121825825D01*
X230315696Y-121825825D02*
X230369571Y-121879700D01*
X230369571Y-121879700D02*
X230423446Y-121987449D01*
X230423446Y-121987449D02*
X230423446Y-122633947D01*
X230423446Y-122633947D02*
X230773632Y-122283761D01*
X230692820Y-121233202D02*
X230585070Y-121340951D01*
X230585070Y-121340951D02*
X230558133Y-121421764D01*
X230558133Y-121421764D02*
X230558133Y-121475638D01*
X230558133Y-121475638D02*
X230585070Y-121610326D01*
X230585070Y-121610326D02*
X230665883Y-121745013D01*
X230665883Y-121745013D02*
X230881382Y-121960512D01*
X230881382Y-121960512D02*
X230962194Y-121987449D01*
X230962194Y-121987449D02*
X231016069Y-121987449D01*
X231016069Y-121987449D02*
X231096881Y-121960512D01*
X231096881Y-121960512D02*
X231204631Y-121852762D01*
X231204631Y-121852762D02*
X231231568Y-121771950D01*
X231231568Y-121771950D02*
X231231568Y-121718075D01*
X231231568Y-121718075D02*
X231204631Y-121637263D01*
X231204631Y-121637263D02*
X231069944Y-121502576D01*
X231069944Y-121502576D02*
X230989131Y-121475638D01*
X230989131Y-121475638D02*
X230935257Y-121475638D01*
X230935257Y-121475638D02*
X230854444Y-121502576D01*
X230854444Y-121502576D02*
X230746695Y-121610326D01*
X230746695Y-121610326D02*
X230719757Y-121691138D01*
X230719757Y-121691138D02*
X230719757Y-121745013D01*
X230719757Y-121745013D02*
X230746695Y-121825825D01*
X203518888Y-109907009D02*
X203438075Y-109933946D01*
X203438075Y-109933946D02*
X203357263Y-110014759D01*
X203357263Y-110014759D02*
X203303388Y-110122508D01*
X203303388Y-110122508D02*
X203303388Y-110230258D01*
X203303388Y-110230258D02*
X203330326Y-110311070D01*
X203330326Y-110311070D02*
X203411138Y-110445757D01*
X203411138Y-110445757D02*
X203491950Y-110526569D01*
X203491950Y-110526569D02*
X203626637Y-110607382D01*
X203626637Y-110607382D02*
X203707449Y-110634319D01*
X203707449Y-110634319D02*
X203815199Y-110634319D01*
X203815199Y-110634319D02*
X203922949Y-110580444D01*
X203922949Y-110580444D02*
X203976823Y-110526569D01*
X203976823Y-110526569D02*
X204030698Y-110418820D01*
X204030698Y-110418820D02*
X204030698Y-110364945D01*
X204030698Y-110364945D02*
X203842136Y-110176383D01*
X203842136Y-110176383D02*
X203734387Y-110284133D01*
X204327010Y-110176383D02*
X203761324Y-109610698D01*
X203761324Y-109610698D02*
X203976823Y-109395198D01*
X203976823Y-109395198D02*
X204057636Y-109368261D01*
X204057636Y-109368261D02*
X204111510Y-109368261D01*
X204111510Y-109368261D02*
X204192323Y-109395198D01*
X204192323Y-109395198D02*
X204273135Y-109476011D01*
X204273135Y-109476011D02*
X204300072Y-109556823D01*
X204300072Y-109556823D02*
X204300072Y-109610698D01*
X204300072Y-109610698D02*
X204273135Y-109691510D01*
X204273135Y-109691510D02*
X204057636Y-109907009D01*
X204273135Y-109098887D02*
X204623321Y-108748701D01*
X204623321Y-108748701D02*
X204650258Y-109152762D01*
X204650258Y-109152762D02*
X204731071Y-109071950D01*
X204731071Y-109071950D02*
X204811883Y-109045012D01*
X204811883Y-109045012D02*
X204865758Y-109045012D01*
X204865758Y-109045012D02*
X204946570Y-109071950D01*
X204946570Y-109071950D02*
X205081257Y-109206637D01*
X205081257Y-109206637D02*
X205108194Y-109287449D01*
X205108194Y-109287449D02*
X205108194Y-109341324D01*
X205108194Y-109341324D02*
X205081257Y-109422136D01*
X205081257Y-109422136D02*
X204919632Y-109583760D01*
X204919632Y-109583760D02*
X204838820Y-109610698D01*
X204838820Y-109610698D02*
X204784945Y-109610698D01*
%TO.C,L2*%
X227336972Y-61189743D02*
X226924579Y-61427839D01*
X226924579Y-61427839D02*
X226424579Y-60561813D01*
X227132027Y-60263339D02*
X227149457Y-60198291D01*
X227149457Y-60198291D02*
X227208126Y-60109432D01*
X227208126Y-60109432D02*
X227414322Y-59990385D01*
X227414322Y-59990385D02*
X227520610Y-59984005D01*
X227520610Y-59984005D02*
X227585659Y-60001435D01*
X227585659Y-60001435D02*
X227674518Y-60060104D01*
X227674518Y-60060104D02*
X227722137Y-60142582D01*
X227722137Y-60142582D02*
X227752326Y-60290110D01*
X227752326Y-60290110D02*
X227543168Y-61070696D01*
X227543168Y-61070696D02*
X228079279Y-60761172D01*
%TO.C,R2*%
X204186337Y-71091667D02*
X203659566Y-70845941D01*
X203691465Y-71377382D02*
X203191465Y-70511356D01*
X203191465Y-70511356D02*
X203521380Y-70320880D01*
X203521380Y-70320880D02*
X203627668Y-70314500D01*
X203627668Y-70314500D02*
X203692717Y-70331930D01*
X203692717Y-70331930D02*
X203781575Y-70390599D01*
X203781575Y-70390599D02*
X203853004Y-70514317D01*
X203853004Y-70514317D02*
X203859383Y-70620605D01*
X203859383Y-70620605D02*
X203841953Y-70685654D01*
X203841953Y-70685654D02*
X203783284Y-70774512D01*
X203783284Y-70774512D02*
X203453370Y-70964989D01*
X204063870Y-70117644D02*
X204081300Y-70052596D01*
X204081300Y-70052596D02*
X204139969Y-69963737D01*
X204139969Y-69963737D02*
X204346166Y-69844690D01*
X204346166Y-69844690D02*
X204452454Y-69838310D01*
X204452454Y-69838310D02*
X204517503Y-69855740D01*
X204517503Y-69855740D02*
X204606361Y-69914409D01*
X204606361Y-69914409D02*
X204653980Y-69996887D01*
X204653980Y-69996887D02*
X204684169Y-70144415D01*
X204684169Y-70144415D02*
X204475012Y-70925001D01*
X204475012Y-70925001D02*
X205011123Y-70615477D01*
%TO.C,UP2*%
X172874562Y-133047983D02*
X173279324Y-133749052D01*
X173279324Y-133749052D02*
X173368183Y-133807721D01*
X173368183Y-133807721D02*
X173433232Y-133825150D01*
X173433232Y-133825150D02*
X173539520Y-133818771D01*
X173539520Y-133818771D02*
X173704477Y-133723533D01*
X173704477Y-133723533D02*
X173763146Y-133634674D01*
X173763146Y-133634674D02*
X173780576Y-133569625D01*
X173780576Y-133569625D02*
X173774196Y-133463337D01*
X173774196Y-133463337D02*
X173369434Y-132762269D01*
X174281827Y-133390199D02*
X173781827Y-132524174D01*
X173781827Y-132524174D02*
X174111742Y-132333698D01*
X174111742Y-132333698D02*
X174218030Y-132327318D01*
X174218030Y-132327318D02*
X174283079Y-132344748D01*
X174283079Y-132344748D02*
X174371937Y-132403417D01*
X174371937Y-132403417D02*
X174443365Y-132527135D01*
X174443365Y-132527135D02*
X174449745Y-132633423D01*
X174449745Y-132633423D02*
X174432315Y-132698472D01*
X174432315Y-132698472D02*
X174373646Y-132787330D01*
X174373646Y-132787330D02*
X174043732Y-132977806D01*
X174654232Y-132130462D02*
X174671662Y-132065413D01*
X174671662Y-132065413D02*
X174730331Y-131976555D01*
X174730331Y-131976555D02*
X174936528Y-131857507D01*
X174936528Y-131857507D02*
X175042816Y-131851127D01*
X175042816Y-131851127D02*
X175107865Y-131868557D01*
X175107865Y-131868557D02*
X175196723Y-131927226D01*
X175196723Y-131927226D02*
X175244342Y-132009705D01*
X175244342Y-132009705D02*
X175274531Y-132157232D01*
X175274531Y-132157232D02*
X175065374Y-132937818D01*
X175065374Y-132937818D02*
X175601485Y-132628294D01*
%TO.C,R5*%
X142392619Y-61666666D02*
X141916428Y-61999999D01*
X142392619Y-62238094D02*
X141392619Y-62238094D01*
X141392619Y-62238094D02*
X141392619Y-61857142D01*
X141392619Y-61857142D02*
X141440238Y-61761904D01*
X141440238Y-61761904D02*
X141487857Y-61714285D01*
X141487857Y-61714285D02*
X141583095Y-61666666D01*
X141583095Y-61666666D02*
X141725952Y-61666666D01*
X141725952Y-61666666D02*
X141821190Y-61714285D01*
X141821190Y-61714285D02*
X141868809Y-61761904D01*
X141868809Y-61761904D02*
X141916428Y-61857142D01*
X141916428Y-61857142D02*
X141916428Y-62238094D01*
X141392619Y-60761904D02*
X141392619Y-61238094D01*
X141392619Y-61238094D02*
X141868809Y-61285713D01*
X141868809Y-61285713D02*
X141821190Y-61238094D01*
X141821190Y-61238094D02*
X141773571Y-61142856D01*
X141773571Y-61142856D02*
X141773571Y-60904761D01*
X141773571Y-60904761D02*
X141821190Y-60809523D01*
X141821190Y-60809523D02*
X141868809Y-60761904D01*
X141868809Y-60761904D02*
X141964047Y-60714285D01*
X141964047Y-60714285D02*
X142202142Y-60714285D01*
X142202142Y-60714285D02*
X142297380Y-60761904D01*
X142297380Y-60761904D02*
X142345000Y-60809523D01*
X142345000Y-60809523D02*
X142392619Y-60904761D01*
X142392619Y-60904761D02*
X142392619Y-61142856D01*
X142392619Y-61142856D02*
X142345000Y-61238094D01*
X142345000Y-61238094D02*
X142297380Y-61285713D01*
%TO.C,LEFT1*%
X94695240Y-52973542D02*
X94282847Y-52735446D01*
X94282847Y-52735446D02*
X94782847Y-51869421D01*
X95245820Y-52686576D02*
X95534495Y-52853243D01*
X95396308Y-53378304D02*
X94983915Y-53140208D01*
X94983915Y-53140208D02*
X95483915Y-52274183D01*
X95483915Y-52274183D02*
X95896308Y-52512278D01*
X96318042Y-53305624D02*
X96029367Y-53138957D01*
X95767462Y-53592589D02*
X96267462Y-52726564D01*
X96267462Y-52726564D02*
X96679855Y-52964659D01*
X96886052Y-53083707D02*
X97380923Y-53369421D01*
X96633488Y-54092590D02*
X97133488Y-53226564D01*
X97623231Y-54664018D02*
X97128360Y-54378304D01*
X97375795Y-54521161D02*
X97875795Y-53655136D01*
X97875795Y-53655136D02*
X97721888Y-53731235D01*
X97721888Y-53731235D02*
X97591791Y-53766094D01*
X97591791Y-53766094D02*
X97485502Y-53759714D01*
%TO.C,A1*%
X123505714Y-40676904D02*
X123981904Y-40676904D01*
X123410476Y-40962619D02*
X123743809Y-39962619D01*
X123743809Y-39962619D02*
X124077142Y-40962619D01*
X124934285Y-40962619D02*
X124362857Y-40962619D01*
X124648571Y-40962619D02*
X124648571Y-39962619D01*
X124648571Y-39962619D02*
X124553333Y-40105476D01*
X124553333Y-40105476D02*
X124458095Y-40200714D01*
X124458095Y-40200714D02*
X124362857Y-40248333D01*
%TO.C,R1*%
X194186337Y-53771160D02*
X193659566Y-53525434D01*
X193691465Y-54056875D02*
X193191465Y-53190849D01*
X193191465Y-53190849D02*
X193521380Y-53000373D01*
X193521380Y-53000373D02*
X193627668Y-52993993D01*
X193627668Y-52993993D02*
X193692717Y-53011423D01*
X193692717Y-53011423D02*
X193781575Y-53070092D01*
X193781575Y-53070092D02*
X193853004Y-53193810D01*
X193853004Y-53193810D02*
X193859383Y-53300098D01*
X193859383Y-53300098D02*
X193841953Y-53365147D01*
X193841953Y-53365147D02*
X193783284Y-53454005D01*
X193783284Y-53454005D02*
X193453370Y-53644482D01*
X195011123Y-53294970D02*
X194516251Y-53580684D01*
X194763687Y-53437827D02*
X194263687Y-52571802D01*
X194263687Y-52571802D02*
X194252637Y-52743139D01*
X194252637Y-52743139D02*
X194217778Y-52873236D01*
X194217778Y-52873236D02*
X194159108Y-52962095D01*
%TO.C,USB1*%
X174238094Y-42787380D02*
X174238094Y-41977857D01*
X174238094Y-41977857D02*
X174190475Y-41882619D01*
X174190475Y-41882619D02*
X174142856Y-41835000D01*
X174142856Y-41835000D02*
X174047618Y-41787380D01*
X174047618Y-41787380D02*
X173857142Y-41787380D01*
X173857142Y-41787380D02*
X173761904Y-41835000D01*
X173761904Y-41835000D02*
X173714285Y-41882619D01*
X173714285Y-41882619D02*
X173666666Y-41977857D01*
X173666666Y-41977857D02*
X173666666Y-42787380D01*
X173238094Y-41835000D02*
X173095237Y-41787380D01*
X173095237Y-41787380D02*
X172857142Y-41787380D01*
X172857142Y-41787380D02*
X172761904Y-41835000D01*
X172761904Y-41835000D02*
X172714285Y-41882619D01*
X172714285Y-41882619D02*
X172666666Y-41977857D01*
X172666666Y-41977857D02*
X172666666Y-42073095D01*
X172666666Y-42073095D02*
X172714285Y-42168333D01*
X172714285Y-42168333D02*
X172761904Y-42215952D01*
X172761904Y-42215952D02*
X172857142Y-42263571D01*
X172857142Y-42263571D02*
X173047618Y-42311190D01*
X173047618Y-42311190D02*
X173142856Y-42358809D01*
X173142856Y-42358809D02*
X173190475Y-42406428D01*
X173190475Y-42406428D02*
X173238094Y-42501666D01*
X173238094Y-42501666D02*
X173238094Y-42596904D01*
X173238094Y-42596904D02*
X173190475Y-42692142D01*
X173190475Y-42692142D02*
X173142856Y-42739761D01*
X173142856Y-42739761D02*
X173047618Y-42787380D01*
X173047618Y-42787380D02*
X172809523Y-42787380D01*
X172809523Y-42787380D02*
X172666666Y-42739761D01*
X171904761Y-42311190D02*
X171761904Y-42263571D01*
X171761904Y-42263571D02*
X171714285Y-42215952D01*
X171714285Y-42215952D02*
X171666666Y-42120714D01*
X171666666Y-42120714D02*
X171666666Y-41977857D01*
X171666666Y-41977857D02*
X171714285Y-41882619D01*
X171714285Y-41882619D02*
X171761904Y-41835000D01*
X171761904Y-41835000D02*
X171857142Y-41787380D01*
X171857142Y-41787380D02*
X172238094Y-41787380D01*
X172238094Y-41787380D02*
X172238094Y-42787380D01*
X172238094Y-42787380D02*
X171904761Y-42787380D01*
X171904761Y-42787380D02*
X171809523Y-42739761D01*
X171809523Y-42739761D02*
X171761904Y-42692142D01*
X171761904Y-42692142D02*
X171714285Y-42596904D01*
X171714285Y-42596904D02*
X171714285Y-42501666D01*
X171714285Y-42501666D02*
X171761904Y-42406428D01*
X171761904Y-42406428D02*
X171809523Y-42358809D01*
X171809523Y-42358809D02*
X171904761Y-42311190D01*
X171904761Y-42311190D02*
X172238094Y-42311190D01*
X170714285Y-41787380D02*
X171285713Y-41787380D01*
X170999999Y-41787380D02*
X170999999Y-42787380D01*
X170999999Y-42787380D02*
X171095237Y-42644523D01*
X171095237Y-42644523D02*
X171190475Y-42549285D01*
X171190475Y-42549285D02*
X171285713Y-42501666D01*
%TO.C,UP1*%
X115203025Y-131786349D02*
X114798263Y-132487417D01*
X114798263Y-132487417D02*
X114791884Y-132593705D01*
X114791884Y-132593705D02*
X114809314Y-132658754D01*
X114809314Y-132658754D02*
X114867983Y-132747612D01*
X114867983Y-132747612D02*
X115032940Y-132842850D01*
X115032940Y-132842850D02*
X115139228Y-132849230D01*
X115139228Y-132849230D02*
X115204277Y-132831800D01*
X115204277Y-132831800D02*
X115293135Y-132773131D01*
X115293135Y-132773131D02*
X115697897Y-132072063D01*
X115610290Y-133176183D02*
X116110290Y-132310158D01*
X116110290Y-132310158D02*
X116440205Y-132500634D01*
X116440205Y-132500634D02*
X116498874Y-132589493D01*
X116498874Y-132589493D02*
X116516303Y-132654541D01*
X116516303Y-132654541D02*
X116509924Y-132760830D01*
X116509924Y-132760830D02*
X116438495Y-132884547D01*
X116438495Y-132884547D02*
X116349637Y-132943217D01*
X116349637Y-132943217D02*
X116284588Y-132960646D01*
X116284588Y-132960646D02*
X116178300Y-132954267D01*
X116178300Y-132954267D02*
X115848385Y-132763790D01*
X116929948Y-133938088D02*
X116435076Y-133652374D01*
X116682512Y-133795231D02*
X117182512Y-132929206D01*
X117182512Y-132929206D02*
X117028605Y-133005305D01*
X117028605Y-133005305D02*
X116898507Y-133040164D01*
X116898507Y-133040164D02*
X116792219Y-133033784D01*
%TO.C,R3*%
X152425521Y-69794035D02*
X152092188Y-69317844D01*
X151854093Y-69794035D02*
X151854093Y-68794035D01*
X151854093Y-68794035D02*
X152235045Y-68794035D01*
X152235045Y-68794035D02*
X152330283Y-68841654D01*
X152330283Y-68841654D02*
X152377902Y-68889273D01*
X152377902Y-68889273D02*
X152425521Y-68984511D01*
X152425521Y-68984511D02*
X152425521Y-69127368D01*
X152425521Y-69127368D02*
X152377902Y-69222606D01*
X152377902Y-69222606D02*
X152330283Y-69270225D01*
X152330283Y-69270225D02*
X152235045Y-69317844D01*
X152235045Y-69317844D02*
X151854093Y-69317844D01*
X152758855Y-68794035D02*
X153377902Y-68794035D01*
X153377902Y-68794035D02*
X153044569Y-69174987D01*
X153044569Y-69174987D02*
X153187426Y-69174987D01*
X153187426Y-69174987D02*
X153282664Y-69222606D01*
X153282664Y-69222606D02*
X153330283Y-69270225D01*
X153330283Y-69270225D02*
X153377902Y-69365463D01*
X153377902Y-69365463D02*
X153377902Y-69603558D01*
X153377902Y-69603558D02*
X153330283Y-69698796D01*
X153330283Y-69698796D02*
X153282664Y-69746416D01*
X153282664Y-69746416D02*
X153187426Y-69794035D01*
X153187426Y-69794035D02*
X152901712Y-69794035D01*
X152901712Y-69794035D02*
X152806474Y-69746416D01*
X152806474Y-69746416D02*
X152758855Y-69698796D01*
%TO.C,L3*%
X137254236Y-69794035D02*
X136778046Y-69794035D01*
X136778046Y-69794035D02*
X136778046Y-68794035D01*
X137492332Y-68794035D02*
X138111379Y-68794035D01*
X138111379Y-68794035D02*
X137778046Y-69174987D01*
X137778046Y-69174987D02*
X137920903Y-69174987D01*
X137920903Y-69174987D02*
X138016141Y-69222606D01*
X138016141Y-69222606D02*
X138063760Y-69270225D01*
X138063760Y-69270225D02*
X138111379Y-69365463D01*
X138111379Y-69365463D02*
X138111379Y-69603558D01*
X138111379Y-69603558D02*
X138063760Y-69698796D01*
X138063760Y-69698796D02*
X138016141Y-69746416D01*
X138016141Y-69746416D02*
X137920903Y-69794035D01*
X137920903Y-69794035D02*
X137635189Y-69794035D01*
X137635189Y-69794035D02*
X137539951Y-69746416D01*
X137539951Y-69746416D02*
X137492332Y-69698796D01*
%TO.C,A2*%
X108365714Y-40676904D02*
X108841904Y-40676904D01*
X108270476Y-40962619D02*
X108603809Y-39962619D01*
X108603809Y-39962619D02*
X108937142Y-40962619D01*
X109222857Y-40057857D02*
X109270476Y-40010238D01*
X109270476Y-40010238D02*
X109365714Y-39962619D01*
X109365714Y-39962619D02*
X109603809Y-39962619D01*
X109603809Y-39962619D02*
X109699047Y-40010238D01*
X109699047Y-40010238D02*
X109746666Y-40057857D01*
X109746666Y-40057857D02*
X109794285Y-40153095D01*
X109794285Y-40153095D02*
X109794285Y-40248333D01*
X109794285Y-40248333D02*
X109746666Y-40391190D01*
X109746666Y-40391190D02*
X109175238Y-40962619D01*
X109175238Y-40962619D02*
X109794285Y-40962619D01*
%TO.C,RIGHT1*%
X133166596Y-85577295D02*
X133116016Y-84998235D01*
X132671724Y-85291580D02*
X133171724Y-84425555D01*
X133171724Y-84425555D02*
X133501639Y-84616031D01*
X133501639Y-84616031D02*
X133560308Y-84704890D01*
X133560308Y-84704890D02*
X133577738Y-84769938D01*
X133577738Y-84769938D02*
X133571358Y-84876227D01*
X133571358Y-84876227D02*
X133499929Y-84999944D01*
X133499929Y-84999944D02*
X133411071Y-85058614D01*
X133411071Y-85058614D02*
X133346022Y-85076043D01*
X133346022Y-85076043D02*
X133239734Y-85069664D01*
X133239734Y-85069664D02*
X132909820Y-84879187D01*
X133537750Y-85791580D02*
X134037750Y-84925555D01*
X134879965Y-85466794D02*
X134821296Y-85377936D01*
X134821296Y-85377936D02*
X134697578Y-85306507D01*
X134697578Y-85306507D02*
X134550051Y-85276318D01*
X134550051Y-85276318D02*
X134419953Y-85311178D01*
X134419953Y-85311178D02*
X134331095Y-85369847D01*
X134331095Y-85369847D02*
X134194617Y-85510994D01*
X134194617Y-85510994D02*
X134123189Y-85634712D01*
X134123189Y-85634712D02*
X134069190Y-85823479D01*
X134069190Y-85823479D02*
X134062810Y-85929767D01*
X134062810Y-85929767D02*
X134097670Y-86059865D01*
X134097670Y-86059865D02*
X134197578Y-86172533D01*
X134197578Y-86172533D02*
X134280057Y-86220152D01*
X134280057Y-86220152D02*
X134427584Y-86250341D01*
X134427584Y-86250341D02*
X134492633Y-86232911D01*
X134492633Y-86232911D02*
X134659300Y-85944236D01*
X134659300Y-85944236D02*
X134494342Y-85848998D01*
X134816168Y-86529675D02*
X135316168Y-85663650D01*
X135078072Y-86076043D02*
X135572944Y-86361757D01*
X135311039Y-86815390D02*
X135811039Y-85949364D01*
X136099714Y-86116031D02*
X136594586Y-86401745D01*
X135847150Y-87124914D02*
X136347150Y-86258888D01*
X136836894Y-87696342D02*
X136342022Y-87410628D01*
X136589458Y-87553485D02*
X137089458Y-86687460D01*
X137089458Y-86687460D02*
X136935551Y-86763559D01*
X136935551Y-86763559D02*
X136805453Y-86798418D01*
X136805453Y-86798418D02*
X136699165Y-86792038D01*
%TO.C,TP3*%
X215460619Y-103431903D02*
X215460619Y-102860475D01*
X216460619Y-103146189D02*
X215460619Y-103146189D01*
X216460619Y-102527141D02*
X215460619Y-102527141D01*
X215460619Y-102527141D02*
X215460619Y-102146189D01*
X215460619Y-102146189D02*
X215508238Y-102050951D01*
X215508238Y-102050951D02*
X215555857Y-102003332D01*
X215555857Y-102003332D02*
X215651095Y-101955713D01*
X215651095Y-101955713D02*
X215793952Y-101955713D01*
X215793952Y-101955713D02*
X215889190Y-102003332D01*
X215889190Y-102003332D02*
X215936809Y-102050951D01*
X215936809Y-102050951D02*
X215984428Y-102146189D01*
X215984428Y-102146189D02*
X215984428Y-102527141D01*
X215460619Y-101622379D02*
X215460619Y-101003332D01*
X215460619Y-101003332D02*
X215841571Y-101336665D01*
X215841571Y-101336665D02*
X215841571Y-101193808D01*
X215841571Y-101193808D02*
X215889190Y-101098570D01*
X215889190Y-101098570D02*
X215936809Y-101050951D01*
X215936809Y-101050951D02*
X216032047Y-101003332D01*
X216032047Y-101003332D02*
X216270142Y-101003332D01*
X216270142Y-101003332D02*
X216365380Y-101050951D01*
X216365380Y-101050951D02*
X216413000Y-101098570D01*
X216413000Y-101098570D02*
X216460619Y-101193808D01*
X216460619Y-101193808D02*
X216460619Y-101479522D01*
X216460619Y-101479522D02*
X216413000Y-101574760D01*
X216413000Y-101574760D02*
X216365380Y-101622379D01*
%TO.C,U2*%
X239488095Y-115312619D02*
X239488095Y-116122142D01*
X239488095Y-116122142D02*
X239535714Y-116217380D01*
X239535714Y-116217380D02*
X239583333Y-116265000D01*
X239583333Y-116265000D02*
X239678571Y-116312619D01*
X239678571Y-116312619D02*
X239869047Y-116312619D01*
X239869047Y-116312619D02*
X239964285Y-116265000D01*
X239964285Y-116265000D02*
X240011904Y-116217380D01*
X240011904Y-116217380D02*
X240059523Y-116122142D01*
X240059523Y-116122142D02*
X240059523Y-115312619D01*
X240488095Y-115407857D02*
X240535714Y-115360238D01*
X240535714Y-115360238D02*
X240630952Y-115312619D01*
X240630952Y-115312619D02*
X240869047Y-115312619D01*
X240869047Y-115312619D02*
X240964285Y-115360238D01*
X240964285Y-115360238D02*
X241011904Y-115407857D01*
X241011904Y-115407857D02*
X241059523Y-115503095D01*
X241059523Y-115503095D02*
X241059523Y-115598333D01*
X241059523Y-115598333D02*
X241011904Y-115741190D01*
X241011904Y-115741190D02*
X240440476Y-116312619D01*
X240440476Y-116312619D02*
X241059523Y-116312619D01*
%TO.C,B2*%
X182067600Y-83257083D02*
X182215127Y-83226893D01*
X182215127Y-83226893D02*
X182280176Y-83244323D01*
X182280176Y-83244323D02*
X182369034Y-83302992D01*
X182369034Y-83302992D02*
X182440463Y-83426710D01*
X182440463Y-83426710D02*
X182446843Y-83532998D01*
X182446843Y-83532998D02*
X182429413Y-83598047D01*
X182429413Y-83598047D02*
X182370744Y-83686906D01*
X182370744Y-83686906D02*
X182040829Y-83877382D01*
X182040829Y-83877382D02*
X181540829Y-83011356D01*
X181540829Y-83011356D02*
X181829504Y-82844690D01*
X181829504Y-82844690D02*
X181935792Y-82838310D01*
X181935792Y-82838310D02*
X182000841Y-82855740D01*
X182000841Y-82855740D02*
X182089700Y-82914409D01*
X182089700Y-82914409D02*
X182137319Y-82996887D01*
X182137319Y-82996887D02*
X182143698Y-83103176D01*
X182143698Y-83103176D02*
X182126269Y-83168224D01*
X182126269Y-83168224D02*
X182067600Y-83257083D01*
X182067600Y-83257083D02*
X181778924Y-83423749D01*
X182413234Y-82617644D02*
X182430664Y-82552596D01*
X182430664Y-82552596D02*
X182489333Y-82463737D01*
X182489333Y-82463737D02*
X182695530Y-82344690D01*
X182695530Y-82344690D02*
X182801818Y-82338310D01*
X182801818Y-82338310D02*
X182866867Y-82355740D01*
X182866867Y-82355740D02*
X182955725Y-82414409D01*
X182955725Y-82414409D02*
X183003344Y-82496887D01*
X183003344Y-82496887D02*
X183033533Y-82644415D01*
X183033533Y-82644415D02*
X182824376Y-83425001D01*
X182824376Y-83425001D02*
X183360487Y-83115477D01*
%TO.C,TP2*%
X217460620Y-103431902D02*
X217460620Y-102860474D01*
X218460620Y-103146188D02*
X217460620Y-103146188D01*
X218460620Y-102527140D02*
X217460620Y-102527140D01*
X217460620Y-102527140D02*
X217460620Y-102146188D01*
X217460620Y-102146188D02*
X217508239Y-102050950D01*
X217508239Y-102050950D02*
X217555858Y-102003331D01*
X217555858Y-102003331D02*
X217651096Y-101955712D01*
X217651096Y-101955712D02*
X217793953Y-101955712D01*
X217793953Y-101955712D02*
X217889191Y-102003331D01*
X217889191Y-102003331D02*
X217936810Y-102050950D01*
X217936810Y-102050950D02*
X217984429Y-102146188D01*
X217984429Y-102146188D02*
X217984429Y-102527140D01*
X217555858Y-101574759D02*
X217508239Y-101527140D01*
X217508239Y-101527140D02*
X217460620Y-101431902D01*
X217460620Y-101431902D02*
X217460620Y-101193807D01*
X217460620Y-101193807D02*
X217508239Y-101098569D01*
X217508239Y-101098569D02*
X217555858Y-101050950D01*
X217555858Y-101050950D02*
X217651096Y-101003331D01*
X217651096Y-101003331D02*
X217746334Y-101003331D01*
X217746334Y-101003331D02*
X217889191Y-101050950D01*
X217889191Y-101050950D02*
X218460620Y-101622378D01*
X218460620Y-101622378D02*
X218460620Y-101003331D01*
%TO.C,DOWN1*%
X115541708Y-65009255D02*
X116041708Y-64143230D01*
X116041708Y-64143230D02*
X116247905Y-64262277D01*
X116247905Y-64262277D02*
X116347813Y-64374945D01*
X116347813Y-64374945D02*
X116382673Y-64505043D01*
X116382673Y-64505043D02*
X116376293Y-64611331D01*
X116376293Y-64611331D02*
X116322294Y-64800098D01*
X116322294Y-64800098D02*
X116250866Y-64923816D01*
X116250866Y-64923816D02*
X116114388Y-65064963D01*
X116114388Y-65064963D02*
X116025530Y-65123632D01*
X116025530Y-65123632D02*
X115895432Y-65158492D01*
X115895432Y-65158492D02*
X115747905Y-65128303D01*
X115747905Y-65128303D02*
X115541708Y-65009255D01*
X117072691Y-64738468D02*
X117237648Y-64833706D01*
X117237648Y-64833706D02*
X117296317Y-64922564D01*
X117296317Y-64922564D02*
X117331177Y-65052662D01*
X117331177Y-65052662D02*
X117277178Y-65241429D01*
X117277178Y-65241429D02*
X117110511Y-65530104D01*
X117110511Y-65530104D02*
X116974034Y-65671251D01*
X116974034Y-65671251D02*
X116843936Y-65706111D01*
X116843936Y-65706111D02*
X116737648Y-65699731D01*
X116737648Y-65699731D02*
X116572691Y-65604493D01*
X116572691Y-65604493D02*
X116514022Y-65515635D01*
X116514022Y-65515635D02*
X116479162Y-65385537D01*
X116479162Y-65385537D02*
X116533161Y-65196770D01*
X116533161Y-65196770D02*
X116699828Y-64908095D01*
X116699828Y-64908095D02*
X116836305Y-64766947D01*
X116836305Y-64766947D02*
X116966403Y-64732088D01*
X116966403Y-64732088D02*
X117072691Y-64738468D01*
X117732520Y-65119420D02*
X117438716Y-66104493D01*
X117438716Y-66104493D02*
X117960817Y-65581142D01*
X117960817Y-65581142D02*
X117768631Y-66294969D01*
X117768631Y-66294969D02*
X118474827Y-65547991D01*
X118304742Y-66604493D02*
X118804742Y-65738468D01*
X118804742Y-65738468D02*
X118799613Y-66890207D01*
X118799613Y-66890207D02*
X119299613Y-66024182D01*
X119665639Y-67390207D02*
X119170767Y-67104493D01*
X119418203Y-67247350D02*
X119918203Y-66381325D01*
X119918203Y-66381325D02*
X119764296Y-66457424D01*
X119764296Y-66457424D02*
X119634198Y-66492283D01*
X119634198Y-66492283D02*
X119527910Y-66485903D01*
%TO.C,L1*%
X217336972Y-43869235D02*
X216924579Y-44107331D01*
X216924579Y-44107331D02*
X216424579Y-43241305D01*
X218079279Y-43440664D02*
X217584408Y-43726378D01*
X217831844Y-43583521D02*
X217331844Y-42717496D01*
X217331844Y-42717496D02*
X217320794Y-42888833D01*
X217320794Y-42888833D02*
X217285934Y-43018930D01*
X217285934Y-43018930D02*
X217227265Y-43107789D01*
D11*
%TO.C,B1*%
X159416301Y-108414360D02*
X167016301Y-121577946D01*
X167016301Y-121577946D02*
X180179887Y-113977946D01*
X172579887Y-100814360D02*
X159416301Y-108414360D01*
X180179887Y-113977946D02*
X172579887Y-100814360D01*
%TO.C,C1*%
X240961252Y-124410000D02*
X239538748Y-124410000D01*
X240961252Y-122590000D02*
X239538748Y-122590000D01*
%TO.C,B3*%
X149416302Y-91093853D02*
X157016302Y-104257439D01*
X157016302Y-104257439D02*
X170179888Y-96657439D01*
X162579888Y-83493853D02*
X149416302Y-91093853D01*
X170179888Y-96657439D02*
X162579888Y-83493853D01*
%TO.C,R4*%
X146340000Y-62227064D02*
X146340000Y-60772936D01*
X148160000Y-62227064D02*
X148160000Y-60772936D01*
%TO.C,TP6*%
X213800000Y-112170000D02*
X213800000Y-110770000D01*
X215200000Y-112170000D02*
X213800000Y-112170000D01*
X213800000Y-110770000D02*
X215200000Y-110770000D01*
X215200000Y-110770000D02*
X215200000Y-112170000D01*
%TO.C,S1*%
X135860000Y-44000000D02*
X135860000Y-45500000D01*
X137110000Y-48000000D02*
X141610000Y-48000000D01*
X141610000Y-41500000D02*
X137110000Y-41500000D01*
X142860000Y-45500000D02*
X142860000Y-44000000D01*
%TO.C,R6*%
X246410000Y-120022936D02*
X246410000Y-121477064D01*
X244590000Y-120022936D02*
X244590000Y-121477064D01*
%TO.C,S2*%
X151000000Y-44000000D02*
X151000000Y-45500000D01*
X152250000Y-48000000D02*
X156750000Y-48000000D01*
X156750000Y-41500000D02*
X152250000Y-41500000D01*
X158000000Y-45500000D02*
X158000000Y-44000000D01*
%TO.C,B4*%
X166566936Y-70799623D02*
X174166936Y-83963209D01*
X174166936Y-83963209D02*
X187330522Y-76363209D01*
X179730522Y-63199623D02*
X166566936Y-70799623D01*
X187330522Y-76363209D02*
X179730522Y-63199623D01*
%TO.C,U1*%
X206500000Y-98250000D02*
X206500000Y-98550000D01*
X206500000Y-98250000D02*
X227500000Y-98250000D01*
X206500000Y-100650000D02*
X206500000Y-101050000D01*
X206500000Y-100917000D02*
X209507000Y-100917000D01*
X206500000Y-103250000D02*
X206500000Y-103650000D01*
X206500000Y-105750000D02*
X206500000Y-106150000D01*
X206500000Y-108350000D02*
X206500000Y-108750000D01*
X206500000Y-110850000D02*
X206500000Y-111250000D01*
X206500000Y-113350000D02*
X206500000Y-113750000D01*
X206500000Y-115950000D02*
X206500000Y-116350000D01*
X206500000Y-118450000D02*
X206500000Y-118850000D01*
X206500000Y-121050000D02*
X206500000Y-121450000D01*
X206500000Y-123550000D02*
X206500000Y-123950000D01*
X206500000Y-126050000D02*
X206500000Y-126450000D01*
X206500000Y-128650000D02*
X206500000Y-129050000D01*
X206500000Y-131150000D02*
X206500000Y-131550000D01*
X206500000Y-133750000D02*
X206500000Y-134150000D01*
X206500000Y-136250000D02*
X206500000Y-136650000D01*
X206500000Y-138850000D02*
X206500000Y-139250000D01*
X206500000Y-141350000D02*
X206500000Y-141750000D01*
X206500000Y-143850000D02*
X206500000Y-144250000D01*
X206500000Y-146450000D02*
X206500000Y-146850000D01*
X209507000Y-100917000D02*
X209507000Y-98250000D01*
X213300000Y-149250000D02*
X206500000Y-149250000D01*
X215500000Y-149250000D02*
X215900000Y-149250000D01*
X218100000Y-149250000D02*
X218500000Y-149250000D01*
X227500000Y-98250000D02*
X227500000Y-98550000D01*
X227500000Y-100650000D02*
X227500000Y-101050000D01*
X227500000Y-103250000D02*
X227500000Y-103650000D01*
X227500000Y-105750000D02*
X227500000Y-106150000D01*
X227500000Y-108350000D02*
X227500000Y-108750000D01*
X227500000Y-110850000D02*
X227500000Y-111250000D01*
X227500000Y-113350000D02*
X227500000Y-113750000D01*
X227500000Y-115950000D02*
X227500000Y-116350000D01*
X227500000Y-118450000D02*
X227500000Y-118850000D01*
X227500000Y-121050000D02*
X227500000Y-121450000D01*
X227500000Y-123550000D02*
X227500000Y-123950000D01*
X227500000Y-126050000D02*
X227500000Y-126450000D01*
X227500000Y-128650000D02*
X227500000Y-129050000D01*
X227500000Y-131150000D02*
X227500000Y-131550000D01*
X227500000Y-133750000D02*
X227500000Y-134150000D01*
X227500000Y-136250000D02*
X227500000Y-136650000D01*
X227500000Y-138850000D02*
X227500000Y-139250000D01*
X227500000Y-141350000D02*
X227500000Y-141750000D01*
X227500000Y-143850000D02*
X227500000Y-144250000D01*
X227500000Y-146450000D02*
X227500000Y-146850000D01*
X227500000Y-149250000D02*
X220700000Y-149250000D01*
%TO.C,L2*%
X221368207Y-65718207D02*
X228968207Y-78881793D01*
X228968207Y-78881793D02*
X242131793Y-71281793D01*
X234531793Y-58118207D02*
X221368207Y-65718207D01*
X242131793Y-71281793D02*
X234531793Y-58118207D01*
%TO.C,R2*%
X198217572Y-75620131D02*
X205817572Y-88783717D01*
X205817572Y-88783717D02*
X218981158Y-81183717D01*
X211381158Y-68020131D02*
X198217572Y-75620131D01*
X218981158Y-81183717D02*
X211381158Y-68020131D01*
%TO.C,UP2*%
X168354302Y-137894853D02*
X175954302Y-151058439D01*
X175954302Y-151058439D02*
X189117888Y-143458439D01*
X181517888Y-130294853D02*
X168354302Y-137894853D01*
X189117888Y-143458439D02*
X181517888Y-130294853D01*
%TO.C,R5*%
X142840000Y-62227064D02*
X142840000Y-60772936D01*
X144660000Y-62227064D02*
X144660000Y-60772936D01*
%TO.C,LEFT1*%
X88881936Y-50699624D02*
X81281936Y-63863210D01*
X81281936Y-63863210D02*
X94445522Y-71463210D01*
X102045522Y-58299624D02*
X88881936Y-50699624D01*
X94445522Y-71463210D02*
X102045522Y-58299624D01*
%TO.C,A1*%
X120720000Y-44000000D02*
X120720000Y-45500000D01*
X121970000Y-48000000D02*
X126470000Y-48000000D01*
X126470000Y-41500000D02*
X121970000Y-41500000D01*
X127720000Y-45500000D02*
X127720000Y-44000000D01*
%TO.C,R1*%
X188217572Y-58299624D02*
X195817572Y-71463210D01*
X195817572Y-71463210D02*
X208981158Y-63863210D01*
X201381158Y-50699624D02*
X188217572Y-58299624D01*
X208981158Y-63863210D02*
X201381158Y-50699624D01*
%TO.C,USB1*%
X177170000Y-36750000D02*
X177170000Y-38550000D01*
X177170000Y-34650000D02*
X177170000Y-33500000D01*
X167830000Y-36750000D02*
X167830000Y-38550000D01*
X167830000Y-34650000D02*
X167830000Y-33500000D01*
%TO.C,UP1*%
X108745384Y-130295123D02*
X101145384Y-143458709D01*
X101145384Y-143458709D02*
X114308970Y-151058709D01*
X121908970Y-137895123D02*
X108745384Y-130295123D01*
X114308970Y-151058709D02*
X121908970Y-137895123D01*
%TO.C,R3*%
X149092188Y-72831416D02*
X149092188Y-74331416D01*
X150342188Y-76831416D02*
X154842188Y-76831416D01*
X154842188Y-70331416D02*
X150342188Y-70331416D01*
X156092188Y-74331416D02*
X156092188Y-72831416D01*
%TO.C,L3*%
X133920903Y-72831416D02*
X133920903Y-74331416D01*
X135170903Y-76831416D02*
X139670903Y-76831416D01*
X139670903Y-70331416D02*
X135170903Y-70331416D01*
X140920903Y-74331416D02*
X140920903Y-72831416D01*
%TO.C,A2*%
X105580000Y-44000000D02*
X105580000Y-45500000D01*
X106830000Y-48000000D02*
X111330000Y-48000000D01*
X111330000Y-41500000D02*
X106830000Y-41500000D01*
X112580000Y-45500000D02*
X112580000Y-44000000D01*
%TO.C,RIGHT1*%
X127683206Y-83493853D02*
X120083206Y-96657439D01*
X120083206Y-96657439D02*
X133246792Y-104257439D01*
X140846792Y-91093853D02*
X127683206Y-83493853D01*
X133246792Y-104257439D02*
X140846792Y-91093853D01*
%TO.C,TP3*%
X216700000Y-98969999D02*
X216700000Y-100369999D01*
X215300000Y-98969999D02*
X216700000Y-98969999D01*
X216700000Y-100369999D02*
X215300000Y-100369999D01*
X215300000Y-100369999D02*
X215300000Y-98969999D01*
%TO.C,U2*%
X240250000Y-116690000D02*
X238450000Y-116690000D01*
X240250000Y-116690000D02*
X241050000Y-116690000D01*
X240250000Y-119810000D02*
X239450000Y-119810000D01*
X240250000Y-119810000D02*
X241050000Y-119810000D01*
%TO.C,B2*%
X176566936Y-88120131D02*
X184166936Y-101283717D01*
X184166936Y-101283717D02*
X197330522Y-93683717D01*
X189730522Y-80520131D02*
X176566936Y-88120131D01*
X197330522Y-93683717D02*
X189730522Y-80520131D01*
%TO.C,TP2*%
X218700001Y-98969998D02*
X218700001Y-100369998D01*
X217300001Y-98969998D02*
X218700001Y-98969998D01*
X218700001Y-100369998D02*
X217300001Y-100369998D01*
X217300001Y-100369998D02*
X217300001Y-98969998D01*
%TO.C,DOWN1*%
X110532571Y-63199623D02*
X102932571Y-76363209D01*
X102932571Y-76363209D02*
X116096157Y-83963209D01*
X123696157Y-70799623D02*
X110532571Y-63199623D01*
X116096157Y-83963209D02*
X123696157Y-70799623D01*
%TO.C,L1*%
X211368207Y-48397699D02*
X218968207Y-61561285D01*
X218968207Y-61561285D02*
X232131793Y-53961285D01*
X224531793Y-40797699D02*
X211368207Y-48397699D01*
X232131793Y-53961285D02*
X224531793Y-40797699D01*
%TD*%
M02*
