%TF.GenerationSoftware,KiCad,Pcbnew,7.0.2*%
%TF.CreationDate,2023-06-18T21:29:01+09:00*%
%TF.ProjectId,mana-board-kicad,6d616e61-2d62-46f6-9172-642d6b696361,rev?*%
%TF.SameCoordinates,Original*%
%TF.FileFunction,Soldermask,Bot*%
%TF.FilePolarity,Negative*%
%FSLAX46Y46*%
G04 Gerber Fmt 4.6, Leading zero omitted, Abs format (unit mm)*
G04 Created by KiCad (PCBNEW 7.0.2) date 2023-06-18 21:29:01*
%MOMM*%
%LPD*%
G01*
G04 APERTURE LIST*
G04 Aperture macros list*
%AMRoundRect*
0 Rectangle with rounded corners*
0 $1 Rounding radius*
0 $2 $3 $4 $5 $6 $7 $8 $9 X,Y pos of 4 corners*
0 Add a 4 corners polygon primitive as box body*
4,1,4,$2,$3,$4,$5,$6,$7,$8,$9,$2,$3,0*
0 Add four circle primitives for the rounded corners*
1,1,$1+$1,$2,$3*
1,1,$1+$1,$4,$5*
1,1,$1+$1,$6,$7*
1,1,$1+$1,$8,$9*
0 Add four rect primitives between the rounded corners*
20,1,$1+$1,$2,$3,$4,$5,0*
20,1,$1+$1,$4,$5,$6,$7,0*
20,1,$1+$1,$6,$7,$8,$9,0*
20,1,$1+$1,$8,$9,$2,$3,0*%
%AMRotRect*
0 Rectangle, with rotation*
0 The origin of the aperture is its center*
0 $1 length*
0 $2 width*
0 $3 Rotation angle, in degrees counterclockwise*
0 Add horizontal line*
21,1,$1,$2,0,0,$3*%
G04 Aperture macros list end*
%ADD10C,2.100000*%
%ADD11C,2.600000*%
%ADD12C,5.050000*%
%ADD13C,2.200000*%
%ADD14R,1.000000X1.000000*%
%ADD15C,2.000000*%
%ADD16O,1.800000X1.800000*%
%ADD17O,1.500000X1.500000*%
%ADD18O,1.700000X1.700000*%
%ADD19R,1.700000X1.700000*%
%ADD20C,0.650000*%
%ADD21O,1.000000X2.100000*%
%ADD22O,1.000000X1.800000*%
%ADD23RotRect,1.700000X0.820000X210.000000*%
%ADD24RoundRect,0.205000X0.456086X0.500035X-0.661086X-0.144965X-0.456086X-0.500035X0.661086X0.144965X0*%
%ADD25R,1.000000X0.750000*%
%ADD26RotRect,1.700000X0.820000X150.000000*%
%ADD27RoundRect,0.205000X0.661086X-0.144965X-0.456086X0.500035X-0.661086X0.144965X0.456086X-0.500035X0*%
G04 APERTURE END LIST*
D10*
%TO.C,REF\u002A\u002A*%
X145250000Y-99750000D03*
%TD*%
%TO.C,REF\u002A\u002A*%
X188750000Y-109750000D03*
%TD*%
%TO.C,REF\u002A\u002A*%
X65750000Y-148000000D03*
%TD*%
%TO.C,REF\u002A\u002A*%
X245750000Y-148000000D03*
%TD*%
%TO.C,REF\u002A\u002A*%
X245750000Y-43000000D03*
%TD*%
%TO.C,REF\u002A\u002A*%
X65750000Y-43000000D03*
%TD*%
D11*
%TO.C,B1*%
X168042967Y-118156184D03*
D12*
X169798094Y-111196153D03*
D13*
X166848094Y-106086603D03*
X172228221Y-105405256D03*
%TD*%
D11*
%TO.C,B3*%
X158042968Y-100835677D03*
D12*
X159798095Y-93875646D03*
D13*
X156848095Y-88766096D03*
X162228222Y-88084749D03*
%TD*%
D14*
%TO.C,TP6*%
X214500000Y-111470000D03*
%TD*%
D15*
%TO.C,S1*%
X136110000Y-42500000D03*
X142610000Y-42500000D03*
X136110000Y-47000000D03*
X142610000Y-47000000D03*
%TD*%
%TO.C,S2*%
X151250000Y-42500000D03*
X157750000Y-42500000D03*
X151250000Y-47000000D03*
X157750000Y-47000000D03*
%TD*%
D11*
%TO.C,B4*%
X175193602Y-80541447D03*
D12*
X176948729Y-73581416D03*
D13*
X173998729Y-68471866D03*
X179378856Y-67790519D03*
%TD*%
D16*
%TO.C,U1*%
X214275000Y-99750000D03*
D17*
X214575000Y-102780000D03*
X219425000Y-102780000D03*
D16*
X219725000Y-99750000D03*
D18*
X208110000Y-99620000D03*
X208110000Y-102160000D03*
D19*
X208110000Y-104700000D03*
D18*
X208110000Y-107240000D03*
X208110000Y-109780000D03*
X208110000Y-112320000D03*
X208110000Y-114860000D03*
D19*
X208110000Y-117400000D03*
D18*
X208110000Y-119940000D03*
X208110000Y-122480000D03*
X208110000Y-125020000D03*
X208110000Y-127560000D03*
D19*
X208110000Y-130100000D03*
D18*
X208110000Y-132640000D03*
X208110000Y-135180000D03*
X208110000Y-137720000D03*
X208110000Y-140260000D03*
D19*
X208110000Y-142800000D03*
D18*
X208110000Y-145340000D03*
X208110000Y-147880000D03*
X225890000Y-147880000D03*
X225890000Y-145340000D03*
D19*
X225890000Y-142800000D03*
D18*
X225890000Y-140260000D03*
X225890000Y-137720000D03*
X225890000Y-135180000D03*
X225890000Y-132640000D03*
D19*
X225890000Y-130100000D03*
D18*
X225890000Y-127560000D03*
X225890000Y-125020000D03*
X225890000Y-122480000D03*
X225890000Y-119940000D03*
D19*
X225890000Y-117400000D03*
D18*
X225890000Y-114860000D03*
X225890000Y-112320000D03*
X225890000Y-109780000D03*
X225890000Y-107240000D03*
D19*
X225890000Y-104700000D03*
D18*
X225890000Y-102160000D03*
X225890000Y-99620000D03*
X214460000Y-147650000D03*
D19*
X217000000Y-147650000D03*
D18*
X219540000Y-147650000D03*
%TD*%
D11*
%TO.C,L2*%
X229994873Y-75460031D03*
D12*
X231750000Y-68500000D03*
D13*
X228800000Y-63390450D03*
X234180127Y-62709103D03*
%TD*%
D11*
%TO.C,R2*%
X206844238Y-85361955D03*
D12*
X208599365Y-78401924D03*
D13*
X205649365Y-73292374D03*
X211029492Y-72611027D03*
%TD*%
D11*
%TO.C,UP2*%
X176980968Y-147636677D03*
D12*
X178736095Y-140676646D03*
D13*
X175786095Y-135567096D03*
X181166222Y-134885749D03*
%TD*%
D11*
%TO.C,LEFT1*%
X84758602Y-63041448D03*
D12*
X91663729Y-61081417D03*
D13*
X94613729Y-55971867D03*
X97893856Y-60290520D03*
%TD*%
D15*
%TO.C,A1*%
X120970000Y-42500000D03*
X127470000Y-42500000D03*
X120970000Y-47000000D03*
X127470000Y-47000000D03*
%TD*%
D11*
%TO.C,R1*%
X196844238Y-68041448D03*
D12*
X198599365Y-61081417D03*
D13*
X195649365Y-55971867D03*
X201029492Y-55290520D03*
%TD*%
D20*
%TO.C,USB1*%
X175390000Y-39355000D03*
X169610000Y-39355000D03*
D21*
X176820000Y-39855000D03*
D22*
X176820000Y-35675000D03*
D21*
X168180000Y-39855000D03*
D22*
X168180000Y-35675000D03*
%TD*%
D11*
%TO.C,UP1*%
X104622050Y-142636947D03*
D12*
X111527177Y-140676916D03*
D13*
X114477177Y-135567366D03*
X117757304Y-139886019D03*
%TD*%
D15*
%TO.C,R3*%
X149342188Y-71331416D03*
X155842188Y-71331416D03*
X149342188Y-75831416D03*
X155842188Y-75831416D03*
%TD*%
%TO.C,L3*%
X134170903Y-71331416D03*
X140670903Y-71331416D03*
X134170903Y-75831416D03*
X140670903Y-75831416D03*
%TD*%
%TO.C,A2*%
X105830000Y-42500000D03*
X112330000Y-42500000D03*
X105830000Y-47000000D03*
X112330000Y-47000000D03*
%TD*%
D11*
%TO.C,RIGHT1*%
X123559872Y-95835677D03*
D12*
X130464999Y-93875646D03*
D13*
X133414999Y-88766096D03*
X136695126Y-93084749D03*
%TD*%
D14*
%TO.C,TP3*%
X216000000Y-99669999D03*
%TD*%
D11*
%TO.C,B2*%
X185193602Y-97861955D03*
D12*
X186948729Y-90901924D03*
D13*
X183998729Y-85792374D03*
X189378856Y-85111027D03*
%TD*%
D14*
%TO.C,TP2*%
X218000001Y-99669998D03*
%TD*%
D11*
%TO.C,DOWN1*%
X106409237Y-75541447D03*
D12*
X113314364Y-73581416D03*
D13*
X116264364Y-68471866D03*
X119544491Y-72790519D03*
%TD*%
D11*
%TO.C,L1*%
X219994873Y-58139523D03*
D12*
X221750000Y-51179492D03*
D13*
X218800000Y-46069942D03*
X224180127Y-45388595D03*
%TD*%
D23*
%TO.C,D13*%
X183784460Y-144320670D03*
X183034460Y-143021632D03*
D24*
X178617730Y-145571632D03*
D23*
X179367730Y-146870670D03*
%TD*%
%TO.C,D7*%
X203647730Y-64725440D03*
X202897730Y-63426402D03*
D24*
X198481000Y-65976402D03*
D23*
X199231000Y-67275440D03*
%TD*%
%TO.C,D5*%
X164846459Y-97519669D03*
X164096459Y-96220631D03*
D24*
X159679729Y-98770631D03*
D23*
X160429729Y-100069669D03*
%TD*%
%TO.C,D10*%
X191997094Y-94545948D03*
X191247094Y-93246910D03*
D24*
X186830364Y-95796910D03*
D23*
X187580364Y-97095948D03*
%TD*%
%TO.C,D9*%
X174846459Y-114840177D03*
X174096459Y-113541139D03*
D24*
X169679729Y-116091139D03*
D23*
X170429729Y-117390177D03*
%TD*%
%TO.C,D8*%
X226798366Y-54823516D03*
X226048366Y-53524478D03*
D24*
X221631636Y-56074478D03*
D23*
X222381636Y-57373516D03*
%TD*%
%TO.C,D6*%
X181997094Y-77225439D03*
X181247094Y-75926401D03*
D24*
X176830364Y-78476401D03*
D23*
X177580364Y-79775439D03*
%TD*%
D25*
%TO.C,BOOTSEL1*%
X246000000Y-79250000D03*
X240000000Y-79250000D03*
X246000000Y-83000000D03*
X240000000Y-83000000D03*
%TD*%
D23*
%TO.C,D11*%
X213647730Y-82045948D03*
X212897730Y-80746910D03*
D24*
X208481000Y-83296910D03*
D23*
X209231000Y-84595948D03*
%TD*%
D26*
%TO.C,D4*%
X129833364Y-100069670D03*
X130583364Y-98770632D03*
D27*
X126166634Y-96220632D03*
D26*
X125416634Y-97519670D03*
%TD*%
D23*
%TO.C,D12*%
X236798365Y-72144025D03*
X236048365Y-70844987D03*
D24*
X231631635Y-73394987D03*
D23*
X232381635Y-74694025D03*
%TD*%
D26*
%TO.C,D3*%
X112682730Y-79775440D03*
X113432730Y-78476402D03*
D27*
X109016000Y-75926402D03*
D26*
X108266000Y-77225440D03*
%TD*%
D25*
%TO.C,RESET1*%
X243750000Y-108875000D03*
X237750000Y-108875000D03*
X243750000Y-112625000D03*
X237750000Y-112625000D03*
%TD*%
D26*
%TO.C,D1*%
X91032095Y-67275440D03*
X91782095Y-65976402D03*
D27*
X87365365Y-63426402D03*
D26*
X86615365Y-64725440D03*
%TD*%
%TO.C,D2*%
X110895542Y-146870940D03*
X111645542Y-145571902D03*
D27*
X107228812Y-143021902D03*
D26*
X106478812Y-144320940D03*
%TD*%
M02*
