M48
INCH
T1C0.0157
T2C0.0197
T3C0.0236
T4C0.0402
T5C0.0433
T6C0.0472
T7C0.0630
%
G90
G05
T1
X3.1496Y-2.5098
X3.1594Y-2.3819
X4.124Y-2.8346
X4.1535Y-5.8071
X4.7933Y-3.6319
X6.3189Y-3.7008
X6.7189Y-4.3784
X6.7717Y-1.5354
X6.8406Y-1.5354
X6.8701Y-1.6831
X6.9402Y-1.753
X6.9882Y-2.9035
X7.1457Y-5.876
X7.3941Y-3.5794
X7.628Y-4.9705
X7.628Y-5.0098
X7.9626Y-2.5787
X8.3621Y-3.2563
X9.0806Y-2.6258
X9.252Y-3.9173
X9.3898Y-4.8622
X9.4743Y-3.3077
T2
X8.4449Y-4.3886
X8.5039Y-3.924
X8.5827Y-3.924
T4
X8.1933Y-3.922
X8.1933Y-4.022
X8.1933Y-4.122
X8.1933Y-4.222
X8.1933Y-4.322
X8.1933Y-4.422
X8.1933Y-4.522
X8.1933Y-4.622
X8.1933Y-4.722
X8.1933Y-4.822
X8.1933Y-4.922
X8.1933Y-5.022
X8.1933Y-5.122
X8.1933Y-5.222
X8.1933Y-5.322
X8.1933Y-5.422
X8.1933Y-5.522
X8.1933Y-5.622
X8.1933Y-5.722
X8.1933Y-5.822
X8.4433Y-5.813
X8.5433Y-5.813
X8.6433Y-5.813
X8.8933Y-3.922
X8.8933Y-4.022
X8.8933Y-4.122
X8.8933Y-4.222
X8.8933Y-4.322
X8.8933Y-4.422
X8.8933Y-4.522
X8.8933Y-4.622
X8.8933Y-4.722
X8.8933Y-4.822
X8.8933Y-4.922
X8.8933Y-5.022
X8.8933Y-5.122
X8.8933Y-5.222
X8.8933Y-5.322
X8.8933Y-5.422
X8.8933Y-5.522
X8.8933Y-5.622
X8.8933Y-5.722
X8.8933Y-5.822
T5
X4.1665Y-1.6732
X4.1665Y-1.8504
X4.4224Y-1.6732
X4.4224Y-1.8504
X4.7626Y-1.6732
X4.7626Y-1.8504
X5.0185Y-1.6732
X5.0185Y-1.8504
X5.2621Y-5.4499
X5.2621Y-5.627
X5.3587Y-1.6732
X5.3587Y-1.8504
X5.5181Y-5.4499
X5.5181Y-5.627
X5.6146Y-1.6732
X5.6146Y-1.8504
X5.9096Y-5.4499
X5.9096Y-5.627
X5.9547Y-1.6732
X5.9547Y-1.8504
X6.1655Y-5.4499
X6.1655Y-5.627
X6.2106Y-1.6732
X6.2106Y-1.8504
T6
X3.4994Y-2.0371
X3.6285Y-2.2071
X4.4671Y-2.3609
X4.507Y-5.3373
X4.5962Y-2.5309
X4.6361Y-5.5073
X5.1377Y-3.1601
X5.2669Y-3.3301
X6.0865Y-3.1601
X6.2984Y-3.1333
X6.4802Y-3.842
X6.6921Y-3.8152
X6.7618Y-2.3611
X6.9207Y-5.3373
X6.9736Y-2.3343
X7.1325Y-5.3105
X7.1555Y-3.043
X7.3673Y-3.0162
X7.7297Y-2.038
X7.9415Y-2.0111
X8.1234Y-2.7199
X8.3352Y-2.6931
X8.8419Y-2.0894
X9.0537Y-2.0625
X9.2356Y-2.7713
X9.4474Y-2.7445
T7
X3.1114Y-2.3154
X4.0791Y-2.6392
X4.119Y-5.6156
X4.7497Y-3.4384
X6.1336Y-3.6353
X6.5273Y-4.3172
X6.8088Y-2.8363
X6.9678Y-5.8125
X7.2025Y-3.5182
X7.7768Y-2.5132
X8.1705Y-3.1951
X8.889Y-2.5645
X9.2827Y-3.2465
T3
G00X6.6213Y-1.4203
M15
G01X6.6213Y-1.3888
M16
G05
G00X6.6213Y-1.5907
M15
G01X6.6213Y-1.5474
M16
G05
G00X6.9614Y-1.4203
M15
G01X6.9614Y-1.3888
M16
G05
G00X6.9614Y-1.5907
M15
G01X6.9614Y-1.5474
M16
G05
T0
M30
