M48
INCH
T1C0.0256
T2C0.0591
T3C0.0709
T4C0.0827
T5C0.1988
%
G90
G05
T1
X6.6776Y-1.5494
X6.9051Y-1.5494
T2
X8.4478Y-4.0465
X8.6388Y-4.0465
T3
X8.436Y-3.9272
X8.6506Y-3.9272
T4
X2.5886Y-1.6929
X2.5886Y-5.8268
X4.9311Y-3.9272
X7.3319Y-3.926
X9.6752Y-1.6929
X9.6752Y-5.8268
T5
X3.3832Y-2.2382
X4.351Y-2.562
X4.3908Y-5.5385
X5.0216Y-3.3612
X6.2027Y-3.3612
X6.5964Y-4.0432
X6.8779Y-2.5623
X7.0369Y-5.5385
X7.2716Y-3.2442
X7.8459Y-2.2391
X8.2396Y-2.921
X8.9581Y-2.2905
X9.3518Y-2.9724
T0
M30
