M48
INCH
T1C0.0157
T2C0.0197
T3C0.0236
T4C0.0402
T5C0.0433
T6C0.0472
T7C0.0630
%
G90
G05
T1
X3.7795Y-2.0079
X3.8074Y-1.98
X6.752Y-1.5354
X6.811Y-1.5354
X6.8406Y-1.7618
X6.8466Y-1.6376
X9.5571Y-3.1988
X9.6654Y-5.0197
T2
X8.4449Y-4.3886
X8.5039Y-3.924
X8.5827Y-3.924
T4
X8.1933Y-3.922
X8.1933Y-4.022
X8.1933Y-4.122
X8.1933Y-4.222
X8.1933Y-4.322
X8.1933Y-4.422
X8.1933Y-4.522
X8.1933Y-4.622
X8.1933Y-4.722
X8.1933Y-4.822
X8.1933Y-4.922
X8.1933Y-5.022
X8.1933Y-5.122
X8.1933Y-5.222
X8.1933Y-5.322
X8.1933Y-5.422
X8.1933Y-5.522
X8.1933Y-5.622
X8.1933Y-5.722
X8.1933Y-5.822
X8.4433Y-5.813
X8.5433Y-5.813
X8.6433Y-5.813
X8.8933Y-3.922
X8.8933Y-4.022
X8.8933Y-4.122
X8.8933Y-4.222
X8.8933Y-4.322
X8.8933Y-4.422
X8.8933Y-4.522
X8.8933Y-4.622
X8.8933Y-4.722
X8.8933Y-4.822
X8.8933Y-4.922
X8.8933Y-5.022
X8.8933Y-5.122
X8.8933Y-5.222
X8.8933Y-5.322
X8.8933Y-5.422
X8.8933Y-5.522
X8.8933Y-5.622
X8.8933Y-5.722
X8.8933Y-5.822
T5
X4.1665Y-1.6732
X4.1665Y-1.8504
X4.4224Y-1.6732
X4.4224Y-1.8504
X4.7626Y-1.6732
X4.7626Y-1.8504
X5.0185Y-1.6732
X5.0185Y-1.8504
X5.2823Y-2.8083
X5.2823Y-2.9855
X5.3587Y-1.6732
X5.3587Y-1.8504
X5.5382Y-2.8083
X5.5382Y-2.9855
X5.6146Y-1.6732
X5.6146Y-1.8504
X5.8796Y-2.8083
X5.8796Y-2.9855
X5.9547Y-1.6732
X5.9547Y-1.8504
X6.1355Y-2.8083
X6.1355Y-2.9855
X6.2106Y-1.6732
X6.2106Y-1.8504
T6
X3.7249Y-2.2036
X3.8541Y-2.3736
X4.507Y-5.3373
X4.5773Y-2.6957
X4.6361Y-5.5073
X4.7065Y-2.8658
X5.2526Y-3.4947
X5.3817Y-3.6648
X6.1751Y-3.4947
X6.3869Y-3.4679
X6.5688Y-4.1766
X6.7806Y-4.1498
X6.8503Y-2.6957
X6.9207Y-5.3373
X7.0622Y-2.6689
X7.1325Y-5.3105
X7.244Y-3.3777
X7.4559Y-3.3508
X7.7027Y-2.2036
X7.9145Y-2.1768
X8.0964Y-2.8855
X8.3082Y-2.8587
X8.6142Y-1.8138
X8.826Y-1.787
X9.0079Y-2.4957
X9.2197Y-2.4689
T7
X3.337Y-2.4819
X4.119Y-5.6156
X4.1893Y-2.9741
X4.8646Y-3.7731
X6.2222Y-3.9699
X6.6159Y-4.6518
X6.8974Y-3.1709
X6.9678Y-5.8125
X7.2911Y-3.8528
X7.7498Y-2.6788
X8.1435Y-3.3607
X8.6612Y-2.289
X9.0549Y-2.9709
T3
G00X6.6213Y-1.4203
M15
G01X6.6213Y-1.3888
M16
G05
G00X6.6213Y-1.5907
M15
G01X6.6213Y-1.5474
M16
G05
G00X6.9614Y-1.4203
M15
G01X6.9614Y-1.3888
M16
G05
G00X6.9614Y-1.5907
M15
G01X6.9614Y-1.5474
M16
G05
T0
M30
